G04 EAGLE Gerber RS-274X export*
G75*
%MOMM*%
%FSLAX34Y34*%
%LPD*%
%INTop Copper*%
%IPPOS*%
%AMOC8*
5,1,8,0,0,1.08239X$1,22.5*%
G01*
%ADD10R,0.700000X1.000000*%
%ADD11R,1.550000X0.600000*%
%ADD12R,1.100000X1.000000*%
%ADD13R,1.000000X0.500000*%
%ADD14R,1.100000X0.600000*%
%ADD15C,2.000000*%
%ADD16R,1.000000X1.100000*%
%ADD17R,1.000000X1.400000*%
%ADD18R,4.600000X1.000000*%
%ADD19R,3.400000X1.600000*%
%ADD20C,1.879600*%
%ADD21R,1.500000X1.300000*%
%ADD22C,0.200000*%
%ADD23C,0.654800*%
%ADD24C,0.400000*%

G36*
X307064Y2010D02*
X307064Y2010D01*
X307128Y2009D01*
X307203Y2030D01*
X307279Y2041D01*
X307338Y2067D01*
X307400Y2084D01*
X307466Y2125D01*
X307536Y2157D01*
X307585Y2199D01*
X307640Y2232D01*
X307692Y2290D01*
X307750Y2340D01*
X307786Y2394D01*
X307829Y2442D01*
X307862Y2511D01*
X307905Y2576D01*
X307924Y2638D01*
X307952Y2695D01*
X307963Y2765D01*
X307987Y2846D01*
X307988Y2931D01*
X307999Y3000D01*
X307999Y287000D01*
X307990Y287064D01*
X307991Y287128D01*
X307970Y287203D01*
X307959Y287279D01*
X307933Y287338D01*
X307916Y287400D01*
X307875Y287466D01*
X307843Y287536D01*
X307801Y287585D01*
X307768Y287640D01*
X307710Y287692D01*
X307660Y287750D01*
X307606Y287786D01*
X307558Y287829D01*
X307489Y287862D01*
X307424Y287905D01*
X307362Y287924D01*
X307305Y287952D01*
X307235Y287963D01*
X307154Y287987D01*
X307069Y287988D01*
X307000Y287999D01*
X3000Y287999D01*
X2936Y287990D01*
X2872Y287991D01*
X2797Y287970D01*
X2721Y287959D01*
X2662Y287933D01*
X2600Y287916D01*
X2534Y287875D01*
X2464Y287843D01*
X2415Y287801D01*
X2360Y287768D01*
X2308Y287710D01*
X2250Y287660D01*
X2214Y287606D01*
X2171Y287558D01*
X2138Y287489D01*
X2095Y287424D01*
X2076Y287362D01*
X2048Y287305D01*
X2037Y287235D01*
X2013Y287154D01*
X2012Y287069D01*
X2001Y287000D01*
X2001Y224270D01*
X2010Y224206D01*
X2009Y224142D01*
X2030Y224067D01*
X2041Y223991D01*
X2067Y223932D01*
X2084Y223870D01*
X2125Y223804D01*
X2157Y223734D01*
X2199Y223685D01*
X2232Y223630D01*
X2290Y223578D01*
X2340Y223520D01*
X2394Y223484D01*
X2442Y223441D01*
X2511Y223408D01*
X2576Y223365D01*
X2638Y223346D01*
X2695Y223318D01*
X2765Y223307D01*
X2846Y223283D01*
X2931Y223282D01*
X3000Y223271D01*
X36526Y223271D01*
X37271Y222526D01*
X37271Y205474D01*
X36526Y204729D01*
X3000Y204729D01*
X2936Y204720D01*
X2872Y204721D01*
X2797Y204700D01*
X2721Y204689D01*
X2662Y204663D01*
X2600Y204646D01*
X2534Y204605D01*
X2464Y204573D01*
X2415Y204531D01*
X2360Y204498D01*
X2308Y204440D01*
X2250Y204390D01*
X2214Y204336D01*
X2171Y204288D01*
X2138Y204219D01*
X2095Y204154D01*
X2076Y204092D01*
X2048Y204035D01*
X2037Y203965D01*
X2013Y203884D01*
X2012Y203799D01*
X2001Y203730D01*
X2001Y156270D01*
X2010Y156206D01*
X2009Y156142D01*
X2030Y156067D01*
X2041Y155991D01*
X2067Y155932D01*
X2084Y155870D01*
X2125Y155804D01*
X2157Y155734D01*
X2199Y155685D01*
X2232Y155630D01*
X2290Y155578D01*
X2340Y155520D01*
X2394Y155484D01*
X2442Y155441D01*
X2511Y155408D01*
X2576Y155365D01*
X2638Y155346D01*
X2695Y155318D01*
X2765Y155307D01*
X2846Y155283D01*
X2931Y155282D01*
X3000Y155271D01*
X36526Y155271D01*
X37271Y154526D01*
X37271Y137474D01*
X36526Y136729D01*
X3000Y136729D01*
X2936Y136720D01*
X2872Y136721D01*
X2797Y136700D01*
X2721Y136689D01*
X2662Y136663D01*
X2600Y136646D01*
X2534Y136605D01*
X2464Y136573D01*
X2415Y136531D01*
X2360Y136498D01*
X2308Y136440D01*
X2250Y136390D01*
X2214Y136336D01*
X2171Y136288D01*
X2138Y136219D01*
X2095Y136154D01*
X2076Y136092D01*
X2048Y136035D01*
X2037Y135965D01*
X2013Y135884D01*
X2012Y135799D01*
X2001Y135730D01*
X2001Y3000D01*
X2010Y2936D01*
X2009Y2872D01*
X2030Y2797D01*
X2041Y2721D01*
X2067Y2662D01*
X2084Y2600D01*
X2125Y2534D01*
X2157Y2464D01*
X2199Y2415D01*
X2232Y2360D01*
X2290Y2308D01*
X2340Y2250D01*
X2394Y2214D01*
X2442Y2171D01*
X2511Y2138D01*
X2576Y2095D01*
X2638Y2076D01*
X2695Y2048D01*
X2765Y2037D01*
X2846Y2013D01*
X2931Y2012D01*
X3000Y2001D01*
X307000Y2001D01*
X307064Y2010D01*
G37*
%LPC*%
G36*
X97083Y7605D02*
X97083Y7605D01*
X32350Y72339D01*
X32273Y72396D01*
X32202Y72461D01*
X32161Y72481D01*
X32125Y72508D01*
X32034Y72542D01*
X31948Y72584D01*
X31906Y72590D01*
X31861Y72607D01*
X31733Y72617D01*
X31644Y72631D01*
X28478Y72631D01*
X24557Y74256D01*
X21556Y77257D01*
X19931Y81178D01*
X19931Y85422D01*
X21556Y89343D01*
X24557Y92344D01*
X28478Y93969D01*
X32722Y93969D01*
X36643Y92345D01*
X39023Y89964D01*
X39049Y89945D01*
X39070Y89921D01*
X39162Y89861D01*
X39249Y89795D01*
X39279Y89784D01*
X39306Y89766D01*
X39411Y89734D01*
X39513Y89696D01*
X39545Y89693D01*
X39576Y89684D01*
X39685Y89682D01*
X39794Y89674D01*
X39826Y89680D01*
X39858Y89680D01*
X39963Y89709D01*
X40070Y89731D01*
X40099Y89747D01*
X40130Y89755D01*
X40223Y89813D01*
X40319Y89864D01*
X40342Y89886D01*
X40370Y89903D01*
X40443Y89984D01*
X40521Y90061D01*
X40537Y90089D01*
X40559Y90113D01*
X40606Y90211D01*
X40660Y90306D01*
X40668Y90337D01*
X40682Y90366D01*
X40696Y90456D01*
X40725Y90580D01*
X40723Y90629D01*
X40729Y90671D01*
X40729Y96641D01*
X42352Y98263D01*
X46422Y102333D01*
X46428Y102341D01*
X46435Y102347D01*
X46512Y102453D01*
X46591Y102559D01*
X46595Y102568D01*
X46600Y102575D01*
X46644Y102699D01*
X46691Y102823D01*
X46691Y102832D01*
X46695Y102841D01*
X46702Y102972D01*
X46712Y103104D01*
X46711Y103113D01*
X46711Y103123D01*
X46693Y103198D01*
X46655Y103380D01*
X46644Y103401D01*
X46638Y103422D01*
X45331Y106578D01*
X45331Y110822D01*
X46956Y114743D01*
X49957Y117744D01*
X53878Y119369D01*
X58122Y119369D01*
X62043Y117744D01*
X65044Y114743D01*
X66669Y110822D01*
X66669Y106578D01*
X65044Y102657D01*
X62043Y99656D01*
X58122Y98031D01*
X53878Y98031D01*
X50722Y99338D01*
X50713Y99341D01*
X50705Y99345D01*
X50576Y99376D01*
X50449Y99409D01*
X50440Y99408D01*
X50430Y99410D01*
X50298Y99404D01*
X50167Y99399D01*
X50158Y99397D01*
X50149Y99396D01*
X50024Y99353D01*
X49899Y99312D01*
X49891Y99307D01*
X49882Y99304D01*
X49820Y99258D01*
X49666Y99153D01*
X49651Y99135D01*
X49633Y99122D01*
X45563Y95052D01*
X45506Y94975D01*
X45441Y94904D01*
X45421Y94863D01*
X45394Y94827D01*
X45360Y94736D01*
X45318Y94650D01*
X45312Y94608D01*
X45295Y94563D01*
X45285Y94435D01*
X45271Y94346D01*
X45271Y90071D01*
X45275Y90039D01*
X45273Y90007D01*
X45295Y89900D01*
X45311Y89792D01*
X45324Y89762D01*
X45330Y89731D01*
X45382Y89634D01*
X45427Y89535D01*
X45448Y89510D01*
X45463Y89482D01*
X45539Y89404D01*
X45610Y89321D01*
X45637Y89303D01*
X45660Y89280D01*
X45755Y89226D01*
X45846Y89166D01*
X45877Y89157D01*
X45905Y89141D01*
X46011Y89116D01*
X46116Y89084D01*
X46148Y89083D01*
X46179Y89076D01*
X46289Y89081D01*
X46398Y89080D01*
X46429Y89089D01*
X46461Y89090D01*
X46564Y89126D01*
X46670Y89155D01*
X46697Y89172D01*
X46728Y89183D01*
X46801Y89236D01*
X46910Y89303D01*
X46942Y89339D01*
X46977Y89364D01*
X49957Y92345D01*
X53878Y93969D01*
X58122Y93969D01*
X62043Y92344D01*
X65044Y89343D01*
X66669Y85422D01*
X66669Y81178D01*
X65044Y77257D01*
X62043Y74256D01*
X58888Y72948D01*
X58879Y72944D01*
X58870Y72941D01*
X58758Y72872D01*
X58645Y72805D01*
X58638Y72798D01*
X58630Y72793D01*
X58542Y72695D01*
X58452Y72599D01*
X58448Y72591D01*
X58441Y72584D01*
X58384Y72465D01*
X58324Y72348D01*
X58322Y72338D01*
X58318Y72330D01*
X58306Y72254D01*
X58272Y72070D01*
X58274Y72047D01*
X58271Y72025D01*
X58271Y65054D01*
X58284Y64960D01*
X58289Y64863D01*
X58304Y64820D01*
X58311Y64775D01*
X58350Y64688D01*
X58382Y64597D01*
X58407Y64562D01*
X58427Y64518D01*
X58510Y64421D01*
X58563Y64348D01*
X97772Y25139D01*
X97849Y25082D01*
X97920Y25017D01*
X97961Y24997D01*
X97997Y24970D01*
X98088Y24936D01*
X98174Y24894D01*
X98216Y24888D01*
X98261Y24871D01*
X98389Y24861D01*
X98478Y24847D01*
X103980Y24847D01*
X104044Y24856D01*
X104108Y24855D01*
X104183Y24876D01*
X104259Y24887D01*
X104318Y24913D01*
X104380Y24930D01*
X104446Y24971D01*
X104516Y25003D01*
X104565Y25045D01*
X104620Y25078D01*
X104672Y25136D01*
X104730Y25186D01*
X104766Y25240D01*
X104809Y25288D01*
X104842Y25357D01*
X104885Y25422D01*
X104904Y25484D01*
X104932Y25541D01*
X104943Y25611D01*
X104967Y25692D01*
X104968Y25777D01*
X104979Y25846D01*
X104979Y31626D01*
X105724Y32371D01*
X116776Y32371D01*
X117521Y31626D01*
X117521Y25846D01*
X117530Y25782D01*
X117529Y25718D01*
X117550Y25643D01*
X117561Y25567D01*
X117587Y25508D01*
X117604Y25446D01*
X117645Y25380D01*
X117677Y25310D01*
X117719Y25261D01*
X117752Y25206D01*
X117810Y25154D01*
X117860Y25096D01*
X117914Y25060D01*
X117962Y25017D01*
X118031Y24984D01*
X118096Y24941D01*
X118158Y24922D01*
X118215Y24894D01*
X118285Y24883D01*
X118366Y24859D01*
X118451Y24858D01*
X118520Y24847D01*
X161480Y24847D01*
X161544Y24856D01*
X161608Y24855D01*
X161683Y24876D01*
X161759Y24887D01*
X161818Y24913D01*
X161880Y24930D01*
X161946Y24971D01*
X162016Y25003D01*
X162065Y25045D01*
X162120Y25078D01*
X162172Y25136D01*
X162230Y25186D01*
X162266Y25240D01*
X162309Y25288D01*
X162342Y25357D01*
X162385Y25422D01*
X162404Y25484D01*
X162432Y25541D01*
X162443Y25611D01*
X162467Y25692D01*
X162468Y25777D01*
X162479Y25846D01*
X162479Y31626D01*
X163224Y32371D01*
X174276Y32371D01*
X175021Y31626D01*
X175021Y25574D01*
X174276Y24829D01*
X169174Y24829D01*
X169079Y24816D01*
X168983Y24811D01*
X168940Y24796D01*
X168895Y24789D01*
X168807Y24750D01*
X168716Y24718D01*
X168682Y24693D01*
X168638Y24673D01*
X168541Y24590D01*
X168467Y24537D01*
X165859Y21928D01*
X165307Y21377D01*
X165288Y21351D01*
X165263Y21330D01*
X165204Y21238D01*
X165138Y21151D01*
X165127Y21121D01*
X165109Y21094D01*
X165077Y20989D01*
X165039Y20887D01*
X165036Y20855D01*
X165027Y20824D01*
X165025Y20715D01*
X165017Y20606D01*
X165023Y20574D01*
X165023Y20542D01*
X165052Y20437D01*
X165074Y20330D01*
X165089Y20301D01*
X165098Y20270D01*
X165156Y20177D01*
X165207Y20081D01*
X165229Y20058D01*
X165246Y20030D01*
X165327Y19957D01*
X165404Y19879D01*
X165432Y19863D01*
X165456Y19841D01*
X165554Y19794D01*
X165649Y19740D01*
X165680Y19732D01*
X165709Y19718D01*
X165799Y19704D01*
X165923Y19675D01*
X165972Y19677D01*
X166014Y19671D01*
X174276Y19671D01*
X175021Y18926D01*
X175021Y12874D01*
X174276Y12129D01*
X169174Y12129D01*
X169079Y12116D01*
X168983Y12111D01*
X168940Y12096D01*
X168895Y12089D01*
X168807Y12050D01*
X168716Y12018D01*
X168682Y11993D01*
X168638Y11973D01*
X168540Y11890D01*
X168467Y11837D01*
X164236Y7605D01*
X97083Y7605D01*
G37*
%LPD*%
%LPC*%
G36*
X105724Y37529D02*
X105724Y37529D01*
X104979Y38274D01*
X104979Y44326D01*
X105724Y45071D01*
X111396Y45071D01*
X111490Y45084D01*
X111587Y45089D01*
X111630Y45104D01*
X111675Y45111D01*
X111762Y45150D01*
X111853Y45182D01*
X111887Y45207D01*
X111932Y45227D01*
X112029Y45310D01*
X112102Y45363D01*
X115262Y48523D01*
X115282Y48549D01*
X115306Y48570D01*
X115366Y48662D01*
X115431Y48749D01*
X115443Y48779D01*
X115460Y48806D01*
X115492Y48911D01*
X115531Y49013D01*
X115533Y49045D01*
X115543Y49076D01*
X115544Y49185D01*
X115553Y49294D01*
X115546Y49326D01*
X115547Y49358D01*
X115517Y49463D01*
X115495Y49570D01*
X115480Y49599D01*
X115471Y49630D01*
X115414Y49723D01*
X115363Y49819D01*
X115340Y49842D01*
X115323Y49870D01*
X115242Y49943D01*
X115166Y50021D01*
X115138Y50037D01*
X115114Y50059D01*
X115016Y50106D01*
X114921Y50160D01*
X114889Y50168D01*
X114860Y50182D01*
X114771Y50196D01*
X114646Y50225D01*
X114598Y50223D01*
X114556Y50229D01*
X105724Y50229D01*
X104936Y51017D01*
X104913Y51068D01*
X104896Y51130D01*
X104855Y51196D01*
X104823Y51266D01*
X104781Y51315D01*
X104748Y51370D01*
X104690Y51422D01*
X104640Y51480D01*
X104586Y51516D01*
X104538Y51559D01*
X104469Y51592D01*
X104404Y51635D01*
X104342Y51654D01*
X104285Y51682D01*
X104215Y51693D01*
X104134Y51717D01*
X104049Y51718D01*
X103980Y51729D01*
X97759Y51729D01*
X79129Y70359D01*
X79129Y72025D01*
X79128Y72035D01*
X79129Y72044D01*
X79108Y72174D01*
X79089Y72304D01*
X79086Y72313D01*
X79084Y72322D01*
X79027Y72442D01*
X78973Y72561D01*
X78967Y72568D01*
X78963Y72577D01*
X78875Y72676D01*
X78790Y72776D01*
X78782Y72781D01*
X78776Y72788D01*
X78710Y72828D01*
X78554Y72930D01*
X78531Y72937D01*
X78512Y72948D01*
X75357Y74256D01*
X72356Y77257D01*
X70731Y81178D01*
X70731Y85422D01*
X72356Y89343D01*
X75357Y92344D01*
X79278Y93969D01*
X83522Y93969D01*
X87443Y92344D01*
X90444Y89343D01*
X92069Y85422D01*
X92069Y81178D01*
X90444Y77257D01*
X87443Y74255D01*
X84733Y73133D01*
X84631Y73072D01*
X84526Y73017D01*
X84509Y73001D01*
X84490Y72989D01*
X84409Y72903D01*
X84324Y72820D01*
X84313Y72800D01*
X84297Y72783D01*
X84243Y72678D01*
X84185Y72574D01*
X84180Y72552D01*
X84169Y72532D01*
X84147Y72416D01*
X84120Y72300D01*
X84121Y72277D01*
X84117Y72255D01*
X84128Y72137D01*
X84134Y72018D01*
X84142Y71997D01*
X84144Y71974D01*
X84188Y71864D01*
X84227Y71752D01*
X84239Y71734D01*
X84248Y71712D01*
X84363Y71565D01*
X84408Y71503D01*
X99348Y56563D01*
X99425Y56506D01*
X99496Y56441D01*
X99537Y56421D01*
X99573Y56394D01*
X99664Y56360D01*
X99750Y56318D01*
X99792Y56312D01*
X99837Y56295D01*
X99965Y56285D01*
X100054Y56271D01*
X103980Y56271D01*
X104044Y56280D01*
X104108Y56279D01*
X104183Y56300D01*
X104259Y56311D01*
X104318Y56337D01*
X104380Y56354D01*
X104446Y56395D01*
X104516Y56427D01*
X104565Y56469D01*
X104620Y56502D01*
X104672Y56560D01*
X104730Y56610D01*
X104766Y56664D01*
X104809Y56712D01*
X104842Y56781D01*
X104885Y56846D01*
X104904Y56908D01*
X104932Y56965D01*
X104934Y56981D01*
X105724Y57771D01*
X116776Y57771D01*
X117521Y57026D01*
X117521Y53194D01*
X117525Y53162D01*
X117523Y53130D01*
X117545Y53023D01*
X117561Y52915D01*
X117574Y52886D01*
X117580Y52854D01*
X117632Y52758D01*
X117677Y52658D01*
X117698Y52634D01*
X117713Y52605D01*
X117789Y52527D01*
X117860Y52444D01*
X117887Y52426D01*
X117910Y52403D01*
X118005Y52349D01*
X118096Y52290D01*
X118127Y52280D01*
X118155Y52264D01*
X118262Y52239D01*
X118366Y52207D01*
X118398Y52207D01*
X118429Y52199D01*
X118539Y52205D01*
X118648Y52203D01*
X118679Y52212D01*
X118711Y52214D01*
X118814Y52249D01*
X118920Y52279D01*
X118947Y52296D01*
X118978Y52306D01*
X119051Y52359D01*
X119160Y52427D01*
X119192Y52463D01*
X119227Y52488D01*
X130939Y64201D01*
X161480Y64201D01*
X161544Y64210D01*
X161608Y64209D01*
X161683Y64230D01*
X161759Y64241D01*
X161818Y64267D01*
X161880Y64284D01*
X161946Y64325D01*
X162016Y64357D01*
X162065Y64399D01*
X162120Y64432D01*
X162172Y64490D01*
X162230Y64540D01*
X162266Y64594D01*
X162309Y64642D01*
X162342Y64711D01*
X162385Y64776D01*
X162404Y64838D01*
X162432Y64895D01*
X162443Y64965D01*
X162467Y65046D01*
X162468Y65131D01*
X162479Y65200D01*
X162479Y69726D01*
X163224Y70471D01*
X174276Y70471D01*
X175021Y69726D01*
X175021Y67884D01*
X175025Y67852D01*
X175023Y67820D01*
X175045Y67713D01*
X175061Y67605D01*
X175074Y67576D01*
X175080Y67544D01*
X175132Y67448D01*
X175177Y67348D01*
X175198Y67323D01*
X175213Y67295D01*
X175289Y67217D01*
X175360Y67134D01*
X175387Y67116D01*
X175410Y67093D01*
X175505Y67039D01*
X175596Y66979D01*
X175627Y66970D01*
X175655Y66954D01*
X175762Y66929D01*
X175866Y66897D01*
X175898Y66896D01*
X175929Y66889D01*
X176039Y66895D01*
X176148Y66893D01*
X176179Y66902D01*
X176211Y66903D01*
X176314Y66939D01*
X176420Y66968D01*
X176447Y66985D01*
X176478Y66996D01*
X176551Y67049D01*
X176660Y67116D01*
X176692Y67152D01*
X176727Y67178D01*
X182687Y73138D01*
X182744Y73215D01*
X182809Y73286D01*
X182829Y73327D01*
X182856Y73363D01*
X182890Y73453D01*
X182932Y73540D01*
X182938Y73582D01*
X182955Y73627D01*
X182965Y73755D01*
X182979Y73844D01*
X182979Y77176D01*
X183724Y77921D01*
X200276Y77921D01*
X201021Y77176D01*
X201021Y70124D01*
X200276Y69379D01*
X185765Y69379D01*
X185670Y69366D01*
X185574Y69361D01*
X185531Y69346D01*
X185486Y69339D01*
X185398Y69300D01*
X185307Y69268D01*
X185273Y69243D01*
X185229Y69223D01*
X185131Y69140D01*
X185058Y69087D01*
X182898Y66927D01*
X182879Y66901D01*
X182854Y66880D01*
X182794Y66788D01*
X182729Y66701D01*
X182717Y66671D01*
X182700Y66644D01*
X182668Y66539D01*
X182629Y66437D01*
X182627Y66405D01*
X182617Y66374D01*
X182616Y66265D01*
X182607Y66156D01*
X182614Y66124D01*
X182614Y66092D01*
X182643Y65987D01*
X182665Y65880D01*
X182680Y65851D01*
X182689Y65820D01*
X182746Y65727D01*
X182798Y65631D01*
X182820Y65608D01*
X182837Y65580D01*
X182918Y65507D01*
X182994Y65429D01*
X183022Y65413D01*
X183046Y65391D01*
X183145Y65344D01*
X183240Y65290D01*
X183271Y65282D01*
X183300Y65268D01*
X183389Y65254D01*
X183514Y65225D01*
X183563Y65227D01*
X183605Y65221D01*
X200276Y65221D01*
X201021Y64476D01*
X201021Y57424D01*
X200276Y56679D01*
X197238Y56679D01*
X197206Y56675D01*
X197174Y56677D01*
X197067Y56655D01*
X196959Y56639D01*
X196929Y56626D01*
X196898Y56620D01*
X196801Y56568D01*
X196702Y56523D01*
X196677Y56502D01*
X196649Y56487D01*
X196570Y56411D01*
X196488Y56340D01*
X196470Y56313D01*
X196447Y56290D01*
X196393Y56195D01*
X196333Y56104D01*
X196324Y56073D01*
X196308Y56045D01*
X196283Y55938D01*
X196251Y55834D01*
X196250Y55802D01*
X196243Y55770D01*
X196248Y55661D01*
X196247Y55552D01*
X196256Y55521D01*
X196257Y55489D01*
X196293Y55386D01*
X196322Y55280D01*
X196339Y55253D01*
X196350Y55222D01*
X196403Y55149D01*
X196470Y55040D01*
X196493Y55020D01*
X197307Y53056D01*
X197307Y50944D01*
X196499Y48994D01*
X195006Y47501D01*
X193056Y46693D01*
X190944Y46693D01*
X188994Y47501D01*
X187501Y48994D01*
X186693Y50944D01*
X186693Y53056D01*
X187504Y55013D01*
X187512Y55020D01*
X187572Y55112D01*
X187638Y55199D01*
X187649Y55229D01*
X187667Y55256D01*
X187699Y55361D01*
X187737Y55463D01*
X187740Y55495D01*
X187749Y55526D01*
X187751Y55635D01*
X187759Y55744D01*
X187753Y55776D01*
X187753Y55808D01*
X187724Y55913D01*
X187702Y56020D01*
X187687Y56048D01*
X187678Y56080D01*
X187620Y56173D01*
X187569Y56269D01*
X187547Y56292D01*
X187530Y56320D01*
X187449Y56393D01*
X187373Y56471D01*
X187344Y56487D01*
X187320Y56509D01*
X187222Y56556D01*
X187127Y56610D01*
X187096Y56618D01*
X187067Y56632D01*
X186977Y56646D01*
X186853Y56675D01*
X186804Y56673D01*
X186762Y56679D01*
X183724Y56679D01*
X182979Y57424D01*
X182979Y64595D01*
X182975Y64627D01*
X182977Y64659D01*
X182955Y64766D01*
X182939Y64875D01*
X182926Y64904D01*
X182920Y64935D01*
X182868Y65032D01*
X182823Y65131D01*
X182802Y65156D01*
X182787Y65184D01*
X182711Y65263D01*
X182640Y65346D01*
X182613Y65363D01*
X182590Y65387D01*
X182495Y65440D01*
X182404Y65500D01*
X182373Y65510D01*
X182345Y65526D01*
X182238Y65551D01*
X182134Y65583D01*
X182102Y65583D01*
X182071Y65590D01*
X181961Y65585D01*
X181852Y65586D01*
X181821Y65578D01*
X181789Y65576D01*
X181686Y65540D01*
X181580Y65511D01*
X181553Y65494D01*
X181522Y65484D01*
X181449Y65430D01*
X181340Y65363D01*
X181308Y65327D01*
X181273Y65302D01*
X175631Y59659D01*
X174800Y59659D01*
X174768Y59655D01*
X174736Y59657D01*
X174629Y59635D01*
X174521Y59619D01*
X174492Y59606D01*
X174460Y59600D01*
X174364Y59548D01*
X174264Y59503D01*
X174240Y59482D01*
X174211Y59467D01*
X174133Y59391D01*
X174050Y59320D01*
X174032Y59293D01*
X174009Y59270D01*
X173955Y59175D01*
X173895Y59084D01*
X173886Y59053D01*
X173870Y59025D01*
X173845Y58918D01*
X173813Y58814D01*
X173812Y58782D01*
X173805Y58751D01*
X173811Y58641D01*
X173809Y58532D01*
X173818Y58501D01*
X173819Y58469D01*
X173855Y58366D01*
X173884Y58260D01*
X173901Y58233D01*
X173912Y58202D01*
X173965Y58129D01*
X174033Y58020D01*
X174069Y57988D01*
X174094Y57953D01*
X175021Y57026D01*
X175021Y50974D01*
X174276Y50229D01*
X163224Y50229D01*
X162479Y50974D01*
X162479Y57026D01*
X163406Y57953D01*
X163426Y57979D01*
X163450Y58000D01*
X163510Y58092D01*
X163576Y58179D01*
X163587Y58209D01*
X163605Y58236D01*
X163637Y58341D01*
X163675Y58443D01*
X163678Y58475D01*
X163687Y58506D01*
X163689Y58615D01*
X163697Y58724D01*
X163690Y58756D01*
X163691Y58788D01*
X163662Y58893D01*
X163639Y59000D01*
X163624Y59029D01*
X163616Y59060D01*
X163558Y59153D01*
X163507Y59249D01*
X163484Y59272D01*
X163467Y59300D01*
X163387Y59373D01*
X163310Y59451D01*
X163282Y59467D01*
X163258Y59489D01*
X163160Y59536D01*
X163065Y59590D01*
X163033Y59598D01*
X163004Y59612D01*
X162915Y59626D01*
X162790Y59655D01*
X162742Y59653D01*
X162700Y59659D01*
X133234Y59659D01*
X133140Y59646D01*
X133043Y59641D01*
X133000Y59626D01*
X132955Y59619D01*
X132868Y59580D01*
X132777Y59548D01*
X132742Y59523D01*
X132698Y59503D01*
X132601Y59420D01*
X132528Y59367D01*
X117813Y44652D01*
X117801Y44636D01*
X117793Y44629D01*
X117774Y44599D01*
X117756Y44575D01*
X117691Y44504D01*
X117671Y44463D01*
X117644Y44427D01*
X117610Y44336D01*
X117568Y44250D01*
X117562Y44208D01*
X117545Y44163D01*
X117535Y44035D01*
X117521Y43946D01*
X117521Y38274D01*
X116776Y37529D01*
X105724Y37529D01*
G37*
%LPD*%
%LPC*%
G36*
X277121Y241499D02*
X277121Y241499D01*
X269954Y244468D01*
X264468Y249954D01*
X261499Y257121D01*
X261499Y264879D01*
X264468Y272046D01*
X269954Y277532D01*
X277121Y280501D01*
X284879Y280501D01*
X292046Y277532D01*
X297532Y272046D01*
X300501Y264879D01*
X300501Y257121D01*
X297532Y249954D01*
X292046Y244468D01*
X284879Y241499D01*
X277121Y241499D01*
G37*
%LPD*%
%LPC*%
G36*
X25121Y241499D02*
X25121Y241499D01*
X17954Y244468D01*
X12468Y249954D01*
X9499Y257121D01*
X9499Y264879D01*
X12468Y272046D01*
X17954Y277532D01*
X25121Y280501D01*
X32879Y280501D01*
X40046Y277532D01*
X45532Y272046D01*
X48501Y264879D01*
X48501Y257121D01*
X45532Y249954D01*
X40046Y244468D01*
X32879Y241499D01*
X25121Y241499D01*
G37*
%LPD*%
%LPC*%
G36*
X277121Y9499D02*
X277121Y9499D01*
X269954Y12468D01*
X264468Y17954D01*
X261499Y25121D01*
X261499Y32879D01*
X264468Y40046D01*
X269954Y45532D01*
X277121Y48501D01*
X284879Y48501D01*
X292046Y45532D01*
X297532Y40046D01*
X300501Y32879D01*
X300501Y25121D01*
X297532Y17954D01*
X292046Y12468D01*
X284879Y9499D01*
X277121Y9499D01*
G37*
%LPD*%
%LPC*%
G36*
X25121Y9499D02*
X25121Y9499D01*
X17954Y12468D01*
X12468Y17954D01*
X9499Y25121D01*
X9499Y32879D01*
X12468Y40046D01*
X17954Y45532D01*
X25121Y48501D01*
X32879Y48501D01*
X40046Y45532D01*
X45532Y40046D01*
X48501Y32879D01*
X48501Y25121D01*
X45532Y17954D01*
X40046Y12468D01*
X32879Y9499D01*
X25121Y9499D01*
G37*
%LPD*%
%LPC*%
G36*
X47474Y183729D02*
X47474Y183729D01*
X46729Y184474D01*
X46729Y195526D01*
X47474Y196271D01*
X73231Y196271D01*
X73326Y196284D01*
X73422Y196289D01*
X73466Y196304D01*
X73511Y196311D01*
X73598Y196350D01*
X73689Y196382D01*
X73723Y196407D01*
X73767Y196427D01*
X73865Y196510D01*
X73938Y196563D01*
X94645Y217271D01*
X108730Y217271D01*
X108794Y217280D01*
X108858Y217279D01*
X108933Y217300D01*
X109009Y217311D01*
X109068Y217337D01*
X109130Y217354D01*
X109196Y217395D01*
X109266Y217427D01*
X109315Y217469D01*
X109370Y217502D01*
X109422Y217560D01*
X109480Y217610D01*
X109516Y217664D01*
X109559Y217712D01*
X109592Y217781D01*
X109635Y217846D01*
X109654Y217908D01*
X109682Y217965D01*
X109693Y218035D01*
X109717Y218116D01*
X109718Y218201D01*
X109729Y218270D01*
X109729Y221526D01*
X110474Y222271D01*
X121526Y222271D01*
X122271Y221526D01*
X122271Y206474D01*
X121526Y205729D01*
X110474Y205729D01*
X109729Y206474D01*
X109729Y209730D01*
X109720Y209794D01*
X109721Y209858D01*
X109700Y209933D01*
X109689Y210009D01*
X109663Y210068D01*
X109646Y210130D01*
X109605Y210196D01*
X109573Y210266D01*
X109531Y210315D01*
X109498Y210370D01*
X109440Y210422D01*
X109390Y210480D01*
X109336Y210516D01*
X109288Y210559D01*
X109219Y210592D01*
X109154Y210635D01*
X109092Y210654D01*
X109035Y210682D01*
X108965Y210693D01*
X108884Y210717D01*
X108799Y210718D01*
X108730Y210729D01*
X97769Y210729D01*
X97674Y210716D01*
X97578Y210711D01*
X97534Y210696D01*
X97489Y210689D01*
X97402Y210650D01*
X97311Y210618D01*
X97277Y210593D01*
X97233Y210573D01*
X97135Y210490D01*
X97062Y210437D01*
X84602Y197977D01*
X84583Y197951D01*
X84558Y197930D01*
X84498Y197838D01*
X84433Y197751D01*
X84421Y197721D01*
X84404Y197694D01*
X84372Y197589D01*
X84333Y197487D01*
X84331Y197455D01*
X84321Y197424D01*
X84320Y197315D01*
X84311Y197206D01*
X84318Y197174D01*
X84318Y197142D01*
X84347Y197037D01*
X84369Y196930D01*
X84384Y196901D01*
X84393Y196870D01*
X84450Y196777D01*
X84502Y196681D01*
X84524Y196658D01*
X84541Y196630D01*
X84622Y196557D01*
X84698Y196479D01*
X84726Y196463D01*
X84750Y196441D01*
X84849Y196394D01*
X84944Y196340D01*
X84975Y196332D01*
X85004Y196318D01*
X85093Y196304D01*
X85218Y196275D01*
X85267Y196277D01*
X85309Y196271D01*
X94526Y196271D01*
X95271Y195526D01*
X95271Y184474D01*
X94526Y183729D01*
X47474Y183729D01*
G37*
%LPD*%
%LPC*%
G36*
X137474Y143729D02*
X137474Y143729D01*
X136729Y144474D01*
X136729Y156526D01*
X137474Y157271D01*
X139730Y157271D01*
X139794Y157280D01*
X139858Y157279D01*
X139933Y157300D01*
X140009Y157311D01*
X140068Y157337D01*
X140130Y157354D01*
X140196Y157395D01*
X140266Y157427D01*
X140315Y157469D01*
X140370Y157502D01*
X140422Y157560D01*
X140480Y157610D01*
X140516Y157664D01*
X140559Y157712D01*
X140592Y157781D01*
X140635Y157846D01*
X140654Y157908D01*
X140682Y157965D01*
X140693Y158035D01*
X140717Y158116D01*
X140718Y158201D01*
X140729Y158270D01*
X140729Y168230D01*
X140720Y168294D01*
X140721Y168358D01*
X140700Y168433D01*
X140689Y168509D01*
X140663Y168568D01*
X140646Y168630D01*
X140605Y168696D01*
X140573Y168766D01*
X140531Y168815D01*
X140498Y168870D01*
X140440Y168922D01*
X140390Y168980D01*
X140336Y169016D01*
X140288Y169059D01*
X140219Y169092D01*
X140154Y169135D01*
X140092Y169154D01*
X140035Y169182D01*
X139965Y169193D01*
X139884Y169217D01*
X139799Y169218D01*
X139730Y169229D01*
X136974Y169229D01*
X136229Y169974D01*
X136229Y174312D01*
X136225Y174344D01*
X136227Y174376D01*
X136205Y174483D01*
X136189Y174591D01*
X136176Y174621D01*
X136170Y174652D01*
X136118Y174749D01*
X136073Y174848D01*
X136052Y174873D01*
X136037Y174901D01*
X135961Y174980D01*
X135890Y175062D01*
X135863Y175080D01*
X135840Y175103D01*
X135746Y175157D01*
X135654Y175217D01*
X135623Y175226D01*
X135595Y175242D01*
X135489Y175267D01*
X135384Y175299D01*
X135352Y175300D01*
X135321Y175307D01*
X135211Y175302D01*
X135102Y175303D01*
X135071Y175294D01*
X135039Y175293D01*
X134936Y175257D01*
X134830Y175228D01*
X134803Y175211D01*
X134772Y175200D01*
X134699Y175147D01*
X134590Y175080D01*
X134558Y175044D01*
X134523Y175019D01*
X134006Y174501D01*
X132056Y173693D01*
X129944Y173693D01*
X127994Y174501D01*
X126501Y175994D01*
X125693Y177944D01*
X125693Y180056D01*
X126501Y182006D01*
X126519Y182023D01*
X126538Y182049D01*
X126562Y182070D01*
X126622Y182162D01*
X126688Y182249D01*
X126699Y182279D01*
X126717Y182306D01*
X126749Y182411D01*
X126787Y182513D01*
X126790Y182545D01*
X126799Y182576D01*
X126801Y182685D01*
X126809Y182794D01*
X126803Y182826D01*
X126803Y182858D01*
X126774Y182963D01*
X126752Y183070D01*
X126737Y183099D01*
X126728Y183130D01*
X126670Y183223D01*
X126619Y183319D01*
X126597Y183342D01*
X126580Y183370D01*
X126499Y183443D01*
X126422Y183521D01*
X126394Y183537D01*
X126370Y183559D01*
X126272Y183606D01*
X126177Y183660D01*
X126146Y183668D01*
X126117Y183682D01*
X126027Y183696D01*
X125903Y183725D01*
X125854Y183723D01*
X125812Y183729D01*
X119974Y183729D01*
X119229Y184474D01*
X119229Y199526D01*
X119974Y200271D01*
X131026Y200271D01*
X131771Y199526D01*
X131771Y196270D01*
X131780Y196206D01*
X131779Y196142D01*
X131800Y196067D01*
X131811Y195991D01*
X131837Y195932D01*
X131854Y195870D01*
X131895Y195804D01*
X131927Y195734D01*
X131969Y195685D01*
X132002Y195630D01*
X132060Y195578D01*
X132110Y195520D01*
X132164Y195484D01*
X132212Y195441D01*
X132281Y195408D01*
X132346Y195365D01*
X132408Y195346D01*
X132465Y195318D01*
X132535Y195307D01*
X132616Y195283D01*
X132701Y195282D01*
X132770Y195271D01*
X135230Y195271D01*
X135294Y195280D01*
X135358Y195279D01*
X135433Y195300D01*
X135509Y195311D01*
X135568Y195337D01*
X135630Y195354D01*
X135696Y195395D01*
X135766Y195427D01*
X135815Y195469D01*
X135870Y195502D01*
X135922Y195560D01*
X135980Y195610D01*
X136016Y195664D01*
X136059Y195712D01*
X136092Y195781D01*
X136135Y195846D01*
X136154Y195908D01*
X136182Y195965D01*
X136184Y195981D01*
X136974Y196771D01*
X149026Y196771D01*
X149771Y196026D01*
X149771Y194565D01*
X149784Y194470D01*
X149789Y194374D01*
X149804Y194330D01*
X149811Y194285D01*
X149850Y194198D01*
X149882Y194107D01*
X149907Y194073D01*
X149927Y194029D01*
X150010Y193931D01*
X150063Y193858D01*
X153418Y190504D01*
X155041Y188881D01*
X155041Y178329D01*
X150063Y173352D01*
X150006Y173275D01*
X149941Y173204D01*
X149921Y173163D01*
X149894Y173127D01*
X149860Y173037D01*
X149818Y172950D01*
X149812Y172908D01*
X149795Y172863D01*
X149785Y172735D01*
X149771Y172646D01*
X149771Y169974D01*
X149026Y169229D01*
X146270Y169229D01*
X146206Y169220D01*
X146142Y169221D01*
X146067Y169200D01*
X145991Y169189D01*
X145932Y169163D01*
X145870Y169146D01*
X145804Y169105D01*
X145734Y169073D01*
X145685Y169031D01*
X145630Y168998D01*
X145578Y168940D01*
X145520Y168890D01*
X145484Y168836D01*
X145441Y168788D01*
X145408Y168719D01*
X145365Y168654D01*
X145346Y168592D01*
X145318Y168535D01*
X145307Y168465D01*
X145283Y168384D01*
X145282Y168299D01*
X145271Y168230D01*
X145271Y158270D01*
X145280Y158206D01*
X145279Y158142D01*
X145300Y158067D01*
X145311Y157991D01*
X145337Y157932D01*
X145354Y157870D01*
X145395Y157804D01*
X145427Y157734D01*
X145469Y157685D01*
X145502Y157630D01*
X145560Y157578D01*
X145610Y157520D01*
X145664Y157484D01*
X145712Y157441D01*
X145781Y157408D01*
X145846Y157365D01*
X145908Y157346D01*
X145965Y157318D01*
X146035Y157307D01*
X146116Y157283D01*
X146201Y157282D01*
X146270Y157271D01*
X148526Y157271D01*
X149271Y156526D01*
X149271Y144474D01*
X148526Y143729D01*
X137474Y143729D01*
G37*
%LPD*%
%LPC*%
G36*
X183724Y82079D02*
X183724Y82079D01*
X182979Y82824D01*
X182979Y89876D01*
X183724Y90621D01*
X200276Y90621D01*
X201021Y89876D01*
X201021Y89620D01*
X201030Y89556D01*
X201029Y89492D01*
X201050Y89417D01*
X201061Y89341D01*
X201087Y89282D01*
X201104Y89220D01*
X201145Y89154D01*
X201177Y89084D01*
X201219Y89035D01*
X201252Y88980D01*
X201310Y88928D01*
X201360Y88870D01*
X201414Y88834D01*
X201462Y88791D01*
X201531Y88758D01*
X201596Y88715D01*
X201658Y88696D01*
X201715Y88668D01*
X201785Y88657D01*
X201866Y88633D01*
X201951Y88632D01*
X202020Y88621D01*
X210496Y88621D01*
X210590Y88634D01*
X210687Y88639D01*
X210730Y88654D01*
X210775Y88661D01*
X210862Y88700D01*
X210953Y88732D01*
X210988Y88757D01*
X211032Y88777D01*
X211129Y88860D01*
X211202Y88913D01*
X239437Y117148D01*
X239494Y117225D01*
X239559Y117296D01*
X239579Y117337D01*
X239606Y117373D01*
X239640Y117464D01*
X239682Y117550D01*
X239688Y117592D01*
X239705Y117637D01*
X239714Y117749D01*
X239717Y117760D01*
X239718Y117780D01*
X239729Y117854D01*
X239729Y124526D01*
X240474Y125271D01*
X248526Y125271D01*
X249271Y124526D01*
X249271Y123770D01*
X249280Y123706D01*
X249279Y123642D01*
X249300Y123567D01*
X249311Y123491D01*
X249337Y123432D01*
X249354Y123370D01*
X249395Y123304D01*
X249427Y123234D01*
X249469Y123185D01*
X249502Y123130D01*
X249560Y123078D01*
X249610Y123020D01*
X249664Y122984D01*
X249712Y122941D01*
X249781Y122908D01*
X249846Y122865D01*
X249908Y122846D01*
X249965Y122818D01*
X250035Y122807D01*
X250116Y122783D01*
X250201Y122782D01*
X250270Y122771D01*
X254230Y122771D01*
X254294Y122780D01*
X254358Y122779D01*
X254433Y122800D01*
X254509Y122811D01*
X254568Y122837D01*
X254630Y122854D01*
X254696Y122895D01*
X254766Y122927D01*
X254815Y122969D01*
X254870Y123002D01*
X254922Y123060D01*
X254980Y123110D01*
X255016Y123164D01*
X255059Y123212D01*
X255092Y123281D01*
X255135Y123346D01*
X255154Y123408D01*
X255182Y123465D01*
X255193Y123535D01*
X255217Y123616D01*
X255218Y123701D01*
X255229Y123770D01*
X255229Y127526D01*
X255974Y128271D01*
X272026Y128271D01*
X272771Y127526D01*
X272771Y113474D01*
X272026Y112729D01*
X255974Y112729D01*
X255229Y113474D01*
X255229Y117230D01*
X255220Y117294D01*
X255221Y117358D01*
X255200Y117433D01*
X255189Y117509D01*
X255163Y117568D01*
X255146Y117630D01*
X255105Y117696D01*
X255073Y117766D01*
X255031Y117815D01*
X254998Y117870D01*
X254940Y117922D01*
X254890Y117980D01*
X254836Y118016D01*
X254788Y118059D01*
X254719Y118092D01*
X254654Y118135D01*
X254592Y118154D01*
X254535Y118182D01*
X254465Y118193D01*
X254384Y118217D01*
X254299Y118218D01*
X254230Y118229D01*
X250270Y118229D01*
X250206Y118220D01*
X250142Y118221D01*
X250067Y118200D01*
X249991Y118189D01*
X249932Y118163D01*
X249870Y118146D01*
X249804Y118105D01*
X249734Y118073D01*
X249685Y118031D01*
X249630Y117998D01*
X249578Y117940D01*
X249520Y117890D01*
X249484Y117836D01*
X249441Y117788D01*
X249408Y117719D01*
X249365Y117654D01*
X249346Y117592D01*
X249318Y117535D01*
X249307Y117465D01*
X249283Y117384D01*
X249282Y117299D01*
X249271Y117230D01*
X249271Y113474D01*
X248526Y112729D01*
X241854Y112729D01*
X241760Y112716D01*
X241663Y112711D01*
X241620Y112696D01*
X241575Y112689D01*
X241488Y112650D01*
X241397Y112618D01*
X241362Y112593D01*
X241318Y112573D01*
X241221Y112490D01*
X241148Y112437D01*
X212791Y84079D01*
X202020Y84079D01*
X201956Y84070D01*
X201892Y84071D01*
X201817Y84050D01*
X201741Y84039D01*
X201682Y84013D01*
X201620Y83996D01*
X201554Y83955D01*
X201484Y83923D01*
X201435Y83881D01*
X201380Y83848D01*
X201328Y83790D01*
X201270Y83740D01*
X201234Y83686D01*
X201191Y83638D01*
X201158Y83569D01*
X201115Y83504D01*
X201096Y83442D01*
X201068Y83385D01*
X201057Y83315D01*
X201033Y83234D01*
X201032Y83149D01*
X201021Y83080D01*
X201021Y82824D01*
X200276Y82079D01*
X183724Y82079D01*
G37*
%LPD*%
%LPC*%
G36*
X68944Y153693D02*
X68944Y153693D01*
X66994Y154501D01*
X65501Y155994D01*
X64693Y157944D01*
X64693Y160056D01*
X65501Y162006D01*
X65519Y162023D01*
X65538Y162049D01*
X65562Y162070D01*
X65622Y162162D01*
X65688Y162249D01*
X65699Y162279D01*
X65717Y162306D01*
X65749Y162411D01*
X65787Y162513D01*
X65790Y162545D01*
X65799Y162576D01*
X65801Y162685D01*
X65809Y162794D01*
X65803Y162826D01*
X65803Y162858D01*
X65774Y162963D01*
X65752Y163070D01*
X65737Y163099D01*
X65728Y163130D01*
X65670Y163223D01*
X65619Y163319D01*
X65597Y163342D01*
X65580Y163370D01*
X65499Y163443D01*
X65422Y163521D01*
X65394Y163537D01*
X65370Y163559D01*
X65272Y163606D01*
X65177Y163660D01*
X65146Y163668D01*
X65117Y163682D01*
X65027Y163696D01*
X64903Y163725D01*
X64854Y163723D01*
X64812Y163729D01*
X47474Y163729D01*
X46729Y164474D01*
X46729Y175526D01*
X47474Y176271D01*
X94526Y176271D01*
X95271Y175526D01*
X95271Y164474D01*
X94526Y163729D01*
X75270Y163729D01*
X75206Y163720D01*
X75142Y163721D01*
X75067Y163700D01*
X74991Y163689D01*
X74932Y163663D01*
X74870Y163646D01*
X74804Y163605D01*
X74734Y163573D01*
X74685Y163531D01*
X74630Y163498D01*
X74578Y163440D01*
X74520Y163390D01*
X74484Y163336D01*
X74441Y163288D01*
X74408Y163219D01*
X74365Y163154D01*
X74346Y163092D01*
X74318Y163035D01*
X74307Y162965D01*
X74283Y162884D01*
X74282Y162799D01*
X74271Y162730D01*
X74271Y162648D01*
X74284Y162553D01*
X74289Y162457D01*
X74304Y162414D01*
X74311Y162369D01*
X74350Y162281D01*
X74382Y162190D01*
X74407Y162156D01*
X74427Y162112D01*
X74481Y162048D01*
X75307Y160056D01*
X75307Y157944D01*
X74499Y155994D01*
X73006Y154501D01*
X71056Y153693D01*
X68944Y153693D01*
G37*
%LPD*%
%LPC*%
G36*
X230974Y136729D02*
X230974Y136729D01*
X230229Y137474D01*
X230229Y148526D01*
X230974Y149271D01*
X236430Y149271D01*
X236494Y149280D01*
X236558Y149279D01*
X236633Y149300D01*
X236709Y149311D01*
X236768Y149337D01*
X236830Y149354D01*
X236896Y149395D01*
X236966Y149427D01*
X237015Y149469D01*
X237070Y149502D01*
X237122Y149560D01*
X237180Y149610D01*
X237216Y149664D01*
X237259Y149712D01*
X237292Y149781D01*
X237335Y149846D01*
X237354Y149908D01*
X237382Y149965D01*
X237393Y150035D01*
X237417Y150116D01*
X237418Y150201D01*
X237429Y150270D01*
X237429Y169074D01*
X237428Y169083D01*
X237429Y169092D01*
X237408Y169222D01*
X237389Y169353D01*
X237386Y169361D01*
X237384Y169371D01*
X237327Y169490D01*
X237273Y169610D01*
X237267Y169617D01*
X237263Y169625D01*
X237175Y169724D01*
X237090Y169824D01*
X237082Y169829D01*
X237076Y169836D01*
X237010Y169876D01*
X236854Y169978D01*
X236831Y169985D01*
X236812Y169997D01*
X233316Y171445D01*
X230145Y174616D01*
X228429Y178758D01*
X228429Y183242D01*
X230145Y187384D01*
X233316Y190555D01*
X237458Y192271D01*
X241942Y192271D01*
X246084Y190555D01*
X249255Y187384D01*
X250971Y183242D01*
X250971Y178758D01*
X249255Y174616D01*
X246084Y171445D01*
X242588Y169997D01*
X242579Y169992D01*
X242570Y169989D01*
X242458Y169920D01*
X242345Y169853D01*
X242338Y169846D01*
X242330Y169841D01*
X242242Y169743D01*
X242152Y169647D01*
X242148Y169639D01*
X242141Y169632D01*
X242084Y169513D01*
X242024Y169396D01*
X242022Y169387D01*
X242018Y169378D01*
X242006Y169302D01*
X241972Y169119D01*
X241974Y169095D01*
X241971Y169074D01*
X241971Y146759D01*
X240063Y144852D01*
X240006Y144775D01*
X239941Y144704D01*
X239921Y144663D01*
X239894Y144627D01*
X239860Y144536D01*
X239818Y144450D01*
X239812Y144408D01*
X239795Y144363D01*
X239785Y144235D01*
X239771Y144146D01*
X239771Y137474D01*
X239026Y136729D01*
X230974Y136729D01*
G37*
%LPD*%
%LPC*%
G36*
X183724Y94779D02*
X183724Y94779D01*
X182979Y95524D01*
X182979Y102576D01*
X183724Y103321D01*
X200276Y103321D01*
X201021Y102576D01*
X201021Y102320D01*
X201030Y102256D01*
X201029Y102192D01*
X201050Y102117D01*
X201061Y102041D01*
X201087Y101982D01*
X201104Y101920D01*
X201145Y101854D01*
X201177Y101784D01*
X201219Y101735D01*
X201252Y101680D01*
X201310Y101628D01*
X201360Y101570D01*
X201414Y101534D01*
X201462Y101491D01*
X201531Y101458D01*
X201596Y101415D01*
X201658Y101396D01*
X201715Y101368D01*
X201785Y101357D01*
X201866Y101333D01*
X201951Y101332D01*
X202020Y101321D01*
X211696Y101321D01*
X211790Y101334D01*
X211887Y101339D01*
X211930Y101354D01*
X211975Y101361D01*
X212062Y101400D01*
X212153Y101432D01*
X212188Y101457D01*
X212232Y101477D01*
X212329Y101560D01*
X212402Y101613D01*
X221812Y111023D01*
X221831Y111049D01*
X221856Y111070D01*
X221916Y111162D01*
X221981Y111249D01*
X221993Y111279D01*
X222010Y111306D01*
X222042Y111411D01*
X222081Y111513D01*
X222083Y111545D01*
X222093Y111576D01*
X222094Y111685D01*
X222103Y111794D01*
X222096Y111826D01*
X222097Y111858D01*
X222067Y111963D01*
X222045Y112070D01*
X222030Y112099D01*
X222021Y112130D01*
X221964Y112223D01*
X221913Y112319D01*
X221890Y112342D01*
X221873Y112370D01*
X221792Y112443D01*
X221716Y112521D01*
X221688Y112537D01*
X221664Y112559D01*
X221626Y112577D01*
X220729Y113474D01*
X220729Y124526D01*
X221474Y125271D01*
X229526Y125271D01*
X230271Y124526D01*
X230271Y113474D01*
X229526Y112729D01*
X228770Y112729D01*
X228706Y112720D01*
X228642Y112721D01*
X228567Y112700D01*
X228491Y112689D01*
X228432Y112663D01*
X228370Y112646D01*
X228304Y112605D01*
X228234Y112573D01*
X228185Y112531D01*
X228130Y112498D01*
X228078Y112440D01*
X228020Y112390D01*
X227984Y112336D01*
X227941Y112288D01*
X227908Y112219D01*
X227865Y112154D01*
X227846Y112092D01*
X227818Y112035D01*
X227807Y111965D01*
X227783Y111884D01*
X227782Y111799D01*
X227771Y111730D01*
X227771Y110559D01*
X213991Y96779D01*
X202020Y96779D01*
X201956Y96770D01*
X201892Y96771D01*
X201817Y96750D01*
X201741Y96739D01*
X201682Y96713D01*
X201620Y96696D01*
X201554Y96655D01*
X201484Y96623D01*
X201435Y96581D01*
X201380Y96548D01*
X201328Y96490D01*
X201270Y96440D01*
X201234Y96386D01*
X201191Y96338D01*
X201158Y96269D01*
X201115Y96204D01*
X201096Y96142D01*
X201068Y96085D01*
X201057Y96015D01*
X201033Y95934D01*
X201032Y95849D01*
X201021Y95780D01*
X201021Y95524D01*
X200276Y94779D01*
X183724Y94779D01*
G37*
%LPD*%
%LPC*%
G36*
X255974Y131729D02*
X255974Y131729D01*
X255229Y132474D01*
X255229Y146526D01*
X255974Y147271D01*
X272026Y147271D01*
X272771Y146526D01*
X272771Y142770D01*
X272780Y142706D01*
X272779Y142642D01*
X272800Y142567D01*
X272811Y142491D01*
X272837Y142432D01*
X272854Y142370D01*
X272895Y142304D01*
X272927Y142234D01*
X272969Y142185D01*
X273002Y142130D01*
X273060Y142078D01*
X273110Y142020D01*
X273164Y141984D01*
X273212Y141941D01*
X273281Y141908D01*
X273346Y141865D01*
X273408Y141846D01*
X273465Y141818D01*
X273535Y141807D01*
X273616Y141783D01*
X273701Y141782D01*
X273770Y141771D01*
X274322Y141771D01*
X274331Y141772D01*
X274341Y141771D01*
X274471Y141792D01*
X274601Y141811D01*
X274610Y141814D01*
X274619Y141816D01*
X274739Y141873D01*
X274858Y141927D01*
X274865Y141933D01*
X274874Y141937D01*
X274972Y142025D01*
X275072Y142110D01*
X275077Y142118D01*
X275085Y142124D01*
X275124Y142190D01*
X275227Y142346D01*
X275234Y142369D01*
X275245Y142388D01*
X275501Y143006D01*
X276994Y144499D01*
X278944Y145307D01*
X281056Y145307D01*
X283006Y144499D01*
X284499Y143006D01*
X285307Y141056D01*
X285307Y138944D01*
X284499Y136994D01*
X283006Y135501D01*
X281056Y134693D01*
X278944Y134693D01*
X276994Y135501D01*
X275559Y136937D01*
X275482Y136994D01*
X275410Y137059D01*
X275369Y137079D01*
X275333Y137106D01*
X275243Y137140D01*
X275157Y137182D01*
X275115Y137188D01*
X275069Y137205D01*
X274941Y137215D01*
X274852Y137229D01*
X273770Y137229D01*
X273706Y137220D01*
X273642Y137221D01*
X273567Y137200D01*
X273491Y137189D01*
X273432Y137163D01*
X273370Y137146D01*
X273304Y137105D01*
X273234Y137073D01*
X273185Y137031D01*
X273130Y136998D01*
X273078Y136940D01*
X273020Y136890D01*
X272984Y136836D01*
X272941Y136788D01*
X272908Y136719D01*
X272865Y136654D01*
X272846Y136592D01*
X272818Y136535D01*
X272807Y136465D01*
X272783Y136384D01*
X272782Y136299D01*
X272771Y136230D01*
X272771Y132474D01*
X272026Y131729D01*
X255974Y131729D01*
G37*
%LPD*%
%LPC*%
G36*
X79278Y98031D02*
X79278Y98031D01*
X75357Y99656D01*
X72356Y102657D01*
X70731Y106578D01*
X70731Y110822D01*
X72356Y114743D01*
X75357Y117744D01*
X79278Y119369D01*
X83522Y119369D01*
X87443Y117744D01*
X90444Y114743D01*
X92069Y110822D01*
X92069Y106578D01*
X90444Y102657D01*
X87443Y99656D01*
X83522Y98031D01*
X79278Y98031D01*
G37*
%LPD*%
%LPC*%
G36*
X261974Y77229D02*
X261974Y77229D01*
X261229Y77974D01*
X261229Y83230D01*
X261220Y83294D01*
X261221Y83358D01*
X261200Y83433D01*
X261189Y83509D01*
X261163Y83568D01*
X261146Y83630D01*
X261105Y83696D01*
X261073Y83766D01*
X261031Y83815D01*
X260998Y83870D01*
X260940Y83922D01*
X260890Y83980D01*
X260836Y84016D01*
X260788Y84059D01*
X260719Y84092D01*
X260654Y84135D01*
X260592Y84154D01*
X260535Y84182D01*
X260465Y84193D01*
X260384Y84217D01*
X260299Y84218D01*
X260230Y84229D01*
X256020Y84229D01*
X255956Y84220D01*
X255892Y84221D01*
X255817Y84200D01*
X255741Y84189D01*
X255682Y84163D01*
X255620Y84146D01*
X255554Y84105D01*
X255484Y84073D01*
X255435Y84031D01*
X255380Y83998D01*
X255328Y83940D01*
X255270Y83890D01*
X255234Y83836D01*
X255191Y83788D01*
X255158Y83719D01*
X255115Y83654D01*
X255096Y83592D01*
X255068Y83535D01*
X255057Y83465D01*
X255033Y83384D01*
X255032Y83299D01*
X255021Y83230D01*
X255021Y82824D01*
X254276Y82079D01*
X237724Y82079D01*
X236979Y82824D01*
X236979Y89876D01*
X237724Y90621D01*
X254276Y90621D01*
X255021Y89876D01*
X255021Y89770D01*
X255030Y89706D01*
X255029Y89642D01*
X255050Y89567D01*
X255061Y89491D01*
X255087Y89432D01*
X255104Y89370D01*
X255145Y89304D01*
X255177Y89234D01*
X255219Y89185D01*
X255252Y89130D01*
X255310Y89078D01*
X255360Y89020D01*
X255414Y88984D01*
X255462Y88941D01*
X255531Y88908D01*
X255596Y88865D01*
X255658Y88846D01*
X255715Y88818D01*
X255785Y88807D01*
X255866Y88783D01*
X255951Y88782D01*
X256020Y88771D01*
X260560Y88771D01*
X260655Y88784D01*
X260751Y88789D01*
X260794Y88804D01*
X260839Y88811D01*
X260927Y88850D01*
X261017Y88882D01*
X261052Y88907D01*
X261096Y88927D01*
X261193Y89010D01*
X261266Y89063D01*
X261974Y89771D01*
X274026Y89771D01*
X274771Y89026D01*
X274771Y77974D01*
X274026Y77229D01*
X261974Y77229D01*
G37*
%LPD*%
%LPC*%
G36*
X163474Y143729D02*
X163474Y143729D01*
X162729Y144474D01*
X162729Y156526D01*
X163474Y157271D01*
X165730Y157271D01*
X165794Y157280D01*
X165858Y157279D01*
X165933Y157300D01*
X166009Y157311D01*
X166068Y157337D01*
X166130Y157354D01*
X166196Y157395D01*
X166266Y157427D01*
X166315Y157469D01*
X166370Y157502D01*
X166422Y157560D01*
X166480Y157610D01*
X166516Y157664D01*
X166559Y157712D01*
X166592Y157781D01*
X166635Y157846D01*
X166654Y157908D01*
X166682Y157965D01*
X166693Y158035D01*
X166717Y158116D01*
X166718Y158201D01*
X166729Y158270D01*
X166729Y168230D01*
X166720Y168294D01*
X166721Y168358D01*
X166700Y168433D01*
X166689Y168509D01*
X166663Y168568D01*
X166646Y168630D01*
X166605Y168696D01*
X166573Y168766D01*
X166531Y168815D01*
X166498Y168870D01*
X166440Y168922D01*
X166390Y168980D01*
X166336Y169016D01*
X166288Y169059D01*
X166219Y169092D01*
X166154Y169135D01*
X166092Y169154D01*
X166035Y169182D01*
X165965Y169193D01*
X165884Y169217D01*
X165799Y169218D01*
X165730Y169229D01*
X162974Y169229D01*
X162229Y169974D01*
X162229Y177026D01*
X162974Y177771D01*
X175026Y177771D01*
X175771Y177026D01*
X175771Y169974D01*
X175026Y169229D01*
X172270Y169229D01*
X172206Y169220D01*
X172142Y169221D01*
X172067Y169200D01*
X171991Y169189D01*
X171932Y169163D01*
X171870Y169146D01*
X171804Y169105D01*
X171734Y169073D01*
X171685Y169031D01*
X171630Y168998D01*
X171578Y168940D01*
X171520Y168890D01*
X171484Y168836D01*
X171441Y168788D01*
X171408Y168719D01*
X171365Y168654D01*
X171346Y168592D01*
X171318Y168535D01*
X171307Y168465D01*
X171283Y168384D01*
X171282Y168299D01*
X171271Y168230D01*
X171271Y158270D01*
X171280Y158206D01*
X171279Y158142D01*
X171300Y158067D01*
X171311Y157991D01*
X171337Y157932D01*
X171354Y157870D01*
X171395Y157804D01*
X171427Y157734D01*
X171469Y157685D01*
X171502Y157630D01*
X171560Y157578D01*
X171610Y157520D01*
X171664Y157484D01*
X171712Y157441D01*
X171781Y157408D01*
X171846Y157365D01*
X171908Y157346D01*
X171965Y157318D01*
X172035Y157307D01*
X172116Y157283D01*
X172201Y157282D01*
X172270Y157271D01*
X174526Y157271D01*
X175271Y156526D01*
X175271Y144474D01*
X174526Y143729D01*
X163474Y143729D01*
G37*
%LPD*%
%LPC*%
G36*
X105944Y173693D02*
X105944Y173693D01*
X103994Y174501D01*
X102501Y175994D01*
X101693Y177944D01*
X101693Y180056D01*
X102501Y182006D01*
X102519Y182023D01*
X102538Y182049D01*
X102562Y182070D01*
X102622Y182162D01*
X102688Y182249D01*
X102699Y182279D01*
X102717Y182306D01*
X102749Y182411D01*
X102787Y182513D01*
X102790Y182545D01*
X102799Y182576D01*
X102801Y182685D01*
X102809Y182794D01*
X102803Y182826D01*
X102803Y182858D01*
X102774Y182963D01*
X102752Y183070D01*
X102737Y183099D01*
X102728Y183130D01*
X102670Y183223D01*
X102619Y183319D01*
X102597Y183342D01*
X102580Y183370D01*
X102499Y183443D01*
X102422Y183521D01*
X102394Y183537D01*
X102370Y183559D01*
X102272Y183606D01*
X102177Y183660D01*
X102146Y183668D01*
X102117Y183682D01*
X102027Y183696D01*
X101903Y183725D01*
X101854Y183723D01*
X101812Y183729D01*
X100974Y183729D01*
X100229Y184474D01*
X100229Y199526D01*
X100974Y200271D01*
X112026Y200271D01*
X112771Y199526D01*
X112771Y184474D01*
X112000Y183702D01*
X111909Y183689D01*
X111879Y183676D01*
X111848Y183670D01*
X111751Y183618D01*
X111652Y183573D01*
X111627Y183552D01*
X111599Y183537D01*
X111520Y183461D01*
X111438Y183390D01*
X111420Y183363D01*
X111397Y183340D01*
X111343Y183245D01*
X111283Y183154D01*
X111274Y183123D01*
X111258Y183095D01*
X111233Y182989D01*
X111201Y182884D01*
X111200Y182852D01*
X111193Y182820D01*
X111198Y182711D01*
X111197Y182602D01*
X111206Y182571D01*
X111207Y182539D01*
X111243Y182436D01*
X111272Y182330D01*
X111289Y182303D01*
X111300Y182272D01*
X111353Y182199D01*
X111420Y182090D01*
X111456Y182058D01*
X111481Y182023D01*
X111499Y182006D01*
X112307Y180056D01*
X112307Y177944D01*
X111499Y175994D01*
X110006Y174501D01*
X108056Y173693D01*
X105944Y173693D01*
G37*
%LPD*%
%LPC*%
G36*
X164944Y115693D02*
X164944Y115693D01*
X162994Y116501D01*
X161501Y117994D01*
X160693Y119944D01*
X160693Y122056D01*
X161501Y124006D01*
X163135Y125639D01*
X163155Y125667D01*
X163230Y125740D01*
X163241Y125759D01*
X163256Y125775D01*
X163298Y125857D01*
X163304Y125865D01*
X163309Y125879D01*
X163310Y125882D01*
X163369Y125986D01*
X163374Y126007D01*
X163384Y126026D01*
X163407Y126143D01*
X163434Y126260D01*
X163433Y126282D01*
X163437Y126303D01*
X163426Y126422D01*
X163420Y126542D01*
X163413Y126562D01*
X163411Y126583D01*
X163367Y126695D01*
X163328Y126808D01*
X163315Y126825D01*
X163307Y126846D01*
X163189Y126998D01*
X163146Y127057D01*
X162729Y127474D01*
X162729Y139526D01*
X163474Y140271D01*
X174526Y140271D01*
X175271Y139526D01*
X175271Y127474D01*
X174526Y126729D01*
X172270Y126729D01*
X172206Y126720D01*
X172142Y126721D01*
X172067Y126700D01*
X171991Y126689D01*
X171932Y126663D01*
X171870Y126646D01*
X171804Y126605D01*
X171734Y126573D01*
X171685Y126531D01*
X171630Y126498D01*
X171578Y126440D01*
X171520Y126390D01*
X171484Y126336D01*
X171441Y126288D01*
X171408Y126219D01*
X171365Y126154D01*
X171346Y126092D01*
X171318Y126035D01*
X171307Y125965D01*
X171283Y125884D01*
X171282Y125799D01*
X171271Y125730D01*
X171271Y122950D01*
X171252Y122897D01*
X171205Y122774D01*
X171205Y122764D01*
X171202Y122755D01*
X171194Y122623D01*
X171184Y122492D01*
X171186Y122483D01*
X171185Y122474D01*
X171203Y122398D01*
X171241Y122216D01*
X171253Y122195D01*
X171258Y122174D01*
X171307Y122056D01*
X171307Y119944D01*
X170499Y117994D01*
X169006Y116501D01*
X167056Y115693D01*
X164944Y115693D01*
G37*
%LPD*%
%LPC*%
G36*
X144944Y115693D02*
X144944Y115693D01*
X142994Y116501D01*
X141501Y117994D01*
X140693Y119944D01*
X140693Y122056D01*
X140742Y122174D01*
X140745Y122183D01*
X140749Y122192D01*
X140780Y122320D01*
X140812Y122447D01*
X140812Y122457D01*
X140814Y122466D01*
X140808Y122597D01*
X140803Y122729D01*
X140800Y122738D01*
X140800Y122748D01*
X140757Y122872D01*
X140729Y122956D01*
X140729Y125730D01*
X140720Y125794D01*
X140721Y125858D01*
X140700Y125933D01*
X140689Y126009D01*
X140663Y126068D01*
X140646Y126130D01*
X140605Y126196D01*
X140573Y126266D01*
X140531Y126315D01*
X140498Y126370D01*
X140440Y126422D01*
X140390Y126480D01*
X140336Y126516D01*
X140288Y126559D01*
X140219Y126592D01*
X140154Y126635D01*
X140092Y126654D01*
X140035Y126682D01*
X139965Y126693D01*
X139884Y126717D01*
X139799Y126718D01*
X139730Y126729D01*
X137474Y126729D01*
X136729Y127474D01*
X136729Y139526D01*
X137474Y140271D01*
X148526Y140271D01*
X149271Y139526D01*
X149271Y127474D01*
X148854Y127057D01*
X148783Y126963D01*
X148708Y126871D01*
X148699Y126850D01*
X148685Y126832D01*
X148643Y126721D01*
X148596Y126612D01*
X148594Y126589D01*
X148585Y126568D01*
X148576Y126450D01*
X148562Y126333D01*
X148565Y126310D01*
X148564Y126287D01*
X148588Y126171D01*
X148607Y126054D01*
X148617Y126033D01*
X148621Y126010D01*
X148677Y125906D01*
X148680Y125900D01*
X148684Y125888D01*
X148688Y125883D01*
X148727Y125799D01*
X148743Y125782D01*
X148754Y125761D01*
X148836Y125677D01*
X148847Y125664D01*
X148865Y125639D01*
X148900Y125605D01*
X148915Y125588D01*
X148919Y125586D01*
X150499Y124006D01*
X151307Y122056D01*
X151307Y119944D01*
X150499Y117994D01*
X149006Y116501D01*
X147056Y115693D01*
X144944Y115693D01*
G37*
%LPD*%
%LPC*%
G36*
X92474Y123729D02*
X92474Y123729D01*
X91729Y124474D01*
X91729Y133146D01*
X91716Y133241D01*
X91711Y133337D01*
X91696Y133380D01*
X91689Y133425D01*
X91650Y133512D01*
X91618Y133603D01*
X91593Y133638D01*
X91573Y133682D01*
X91490Y133779D01*
X91437Y133852D01*
X89727Y135562D01*
X89708Y135677D01*
X89689Y135808D01*
X89686Y135817D01*
X89684Y135826D01*
X89628Y135945D01*
X89573Y136065D01*
X89567Y136072D01*
X89563Y136081D01*
X89475Y136179D01*
X89390Y136279D01*
X89382Y136285D01*
X89376Y136292D01*
X89310Y136332D01*
X89154Y136434D01*
X89131Y136441D01*
X89112Y136452D01*
X88994Y136501D01*
X87501Y137994D01*
X86693Y139944D01*
X86693Y142056D01*
X87501Y144006D01*
X88994Y145499D01*
X90944Y146307D01*
X93056Y146307D01*
X95006Y145499D01*
X96499Y144006D01*
X97307Y142056D01*
X97307Y139944D01*
X96499Y137994D01*
X96481Y137977D01*
X96462Y137951D01*
X96438Y137930D01*
X96378Y137838D01*
X96312Y137751D01*
X96301Y137721D01*
X96283Y137694D01*
X96251Y137589D01*
X96213Y137487D01*
X96210Y137455D01*
X96201Y137424D01*
X96199Y137315D01*
X96191Y137206D01*
X96197Y137174D01*
X96197Y137142D01*
X96226Y137037D01*
X96248Y136930D01*
X96263Y136901D01*
X96272Y136870D01*
X96330Y136777D01*
X96381Y136681D01*
X96403Y136658D01*
X96420Y136630D01*
X96501Y136557D01*
X96578Y136479D01*
X96606Y136463D01*
X96630Y136441D01*
X96728Y136394D01*
X96823Y136340D01*
X96854Y136332D01*
X96883Y136318D01*
X96973Y136304D01*
X97097Y136275D01*
X97146Y136277D01*
X97188Y136271D01*
X104526Y136271D01*
X105271Y135526D01*
X105271Y124474D01*
X104526Y123729D01*
X92474Y123729D01*
G37*
%LPD*%
%LPC*%
G36*
X261974Y94229D02*
X261974Y94229D01*
X261229Y94974D01*
X261229Y106026D01*
X261974Y106771D01*
X274026Y106771D01*
X274771Y106026D01*
X274771Y104688D01*
X274775Y104656D01*
X274773Y104624D01*
X274795Y104517D01*
X274811Y104409D01*
X274824Y104379D01*
X274830Y104348D01*
X274882Y104251D01*
X274927Y104152D01*
X274948Y104127D01*
X274963Y104099D01*
X275039Y104020D01*
X275110Y103938D01*
X275137Y103920D01*
X275160Y103897D01*
X275254Y103843D01*
X275346Y103783D01*
X275377Y103774D01*
X275405Y103758D01*
X275511Y103733D01*
X275616Y103701D01*
X275648Y103700D01*
X275679Y103693D01*
X275789Y103698D01*
X275898Y103697D01*
X275929Y103706D01*
X275961Y103707D01*
X276064Y103743D01*
X276170Y103772D01*
X276197Y103789D01*
X276228Y103800D01*
X276301Y103853D01*
X276410Y103920D01*
X276442Y103956D01*
X276477Y103981D01*
X276994Y104499D01*
X278944Y105307D01*
X281056Y105307D01*
X283006Y104499D01*
X284499Y103006D01*
X285307Y101056D01*
X285307Y98944D01*
X284499Y96994D01*
X283006Y95501D01*
X281056Y94693D01*
X278944Y94693D01*
X276994Y95501D01*
X276477Y96019D01*
X276451Y96038D01*
X276430Y96062D01*
X276338Y96122D01*
X276251Y96188D01*
X276221Y96199D01*
X276194Y96217D01*
X276089Y96249D01*
X275987Y96287D01*
X275955Y96290D01*
X275924Y96299D01*
X275815Y96301D01*
X275706Y96309D01*
X275674Y96303D01*
X275642Y96303D01*
X275537Y96274D01*
X275430Y96252D01*
X275401Y96236D01*
X275370Y96228D01*
X275277Y96171D01*
X275181Y96119D01*
X275158Y96097D01*
X275130Y96080D01*
X275057Y95999D01*
X274979Y95922D01*
X274963Y95894D01*
X274941Y95870D01*
X274894Y95772D01*
X274840Y95677D01*
X274832Y95646D01*
X274818Y95617D01*
X274804Y95527D01*
X274775Y95403D01*
X274777Y95354D01*
X274771Y95312D01*
X274771Y94974D01*
X274026Y94229D01*
X261974Y94229D01*
G37*
%LPD*%
%LPC*%
G36*
X163474Y223729D02*
X163474Y223729D01*
X162729Y224474D01*
X162729Y236526D01*
X163474Y237271D01*
X163812Y237271D01*
X163844Y237275D01*
X163876Y237273D01*
X163983Y237295D01*
X164091Y237311D01*
X164121Y237324D01*
X164152Y237330D01*
X164249Y237382D01*
X164348Y237427D01*
X164373Y237448D01*
X164401Y237463D01*
X164480Y237539D01*
X164562Y237610D01*
X164580Y237637D01*
X164603Y237660D01*
X164657Y237755D01*
X164717Y237846D01*
X164726Y237877D01*
X164742Y237905D01*
X164767Y238011D01*
X164799Y238116D01*
X164800Y238148D01*
X164807Y238180D01*
X164802Y238289D01*
X164803Y238398D01*
X164794Y238429D01*
X164793Y238461D01*
X164757Y238564D01*
X164728Y238670D01*
X164711Y238697D01*
X164700Y238728D01*
X164647Y238801D01*
X164580Y238910D01*
X164544Y238942D01*
X164519Y238977D01*
X164501Y238994D01*
X163693Y240944D01*
X163693Y243056D01*
X164501Y245006D01*
X165994Y246499D01*
X167944Y247307D01*
X170056Y247307D01*
X172006Y246499D01*
X173499Y245006D01*
X174307Y243056D01*
X174307Y240944D01*
X173499Y238994D01*
X173481Y238977D01*
X173462Y238951D01*
X173438Y238930D01*
X173378Y238838D01*
X173312Y238751D01*
X173301Y238721D01*
X173283Y238694D01*
X173251Y238589D01*
X173213Y238487D01*
X173210Y238455D01*
X173201Y238424D01*
X173199Y238315D01*
X173191Y238206D01*
X173197Y238174D01*
X173197Y238142D01*
X173226Y238037D01*
X173248Y237930D01*
X173263Y237901D01*
X173272Y237870D01*
X173330Y237777D01*
X173381Y237681D01*
X173403Y237658D01*
X173420Y237630D01*
X173501Y237557D01*
X173578Y237479D01*
X173606Y237463D01*
X173630Y237441D01*
X173728Y237394D01*
X173823Y237340D01*
X173854Y237332D01*
X173883Y237318D01*
X173973Y237304D01*
X174097Y237275D01*
X174146Y237277D01*
X174188Y237271D01*
X174526Y237271D01*
X175271Y236526D01*
X175271Y224474D01*
X174526Y223729D01*
X163474Y223729D01*
G37*
%LPD*%
%LPC*%
G36*
X230944Y54693D02*
X230944Y54693D01*
X228994Y55501D01*
X227501Y56994D01*
X226693Y58944D01*
X226693Y61056D01*
X227501Y63006D01*
X228994Y64499D01*
X230944Y65307D01*
X233056Y65307D01*
X235006Y64499D01*
X235297Y64208D01*
X235349Y64169D01*
X235394Y64123D01*
X235461Y64085D01*
X235523Y64038D01*
X235583Y64016D01*
X235639Y63984D01*
X235714Y63966D01*
X235787Y63939D01*
X235851Y63934D01*
X235913Y63919D01*
X235991Y63923D01*
X236068Y63917D01*
X236131Y63930D01*
X236195Y63933D01*
X236268Y63959D01*
X236344Y63975D01*
X236401Y64005D01*
X236461Y64026D01*
X236518Y64067D01*
X236593Y64107D01*
X236654Y64166D01*
X236710Y64208D01*
X237724Y65221D01*
X254276Y65221D01*
X255021Y64476D01*
X255021Y57424D01*
X254276Y56679D01*
X237724Y56679D01*
X237660Y56742D01*
X237609Y56781D01*
X237564Y56827D01*
X237497Y56865D01*
X237435Y56912D01*
X237375Y56934D01*
X237319Y56966D01*
X237243Y56984D01*
X237171Y57011D01*
X237107Y57016D01*
X237044Y57031D01*
X236967Y57027D01*
X236890Y57033D01*
X236827Y57020D01*
X236763Y57017D01*
X236689Y56991D01*
X236614Y56975D01*
X236557Y56945D01*
X236496Y56924D01*
X236440Y56883D01*
X236365Y56843D01*
X236304Y56784D01*
X236247Y56742D01*
X235006Y55501D01*
X233056Y54693D01*
X230944Y54693D01*
G37*
%LPD*%
%LPC*%
G36*
X230944Y67693D02*
X230944Y67693D01*
X228994Y68501D01*
X227501Y69994D01*
X226693Y71944D01*
X226693Y74056D01*
X227501Y76006D01*
X228994Y77499D01*
X230944Y78307D01*
X233056Y78307D01*
X235006Y77499D01*
X235447Y77058D01*
X235499Y77019D01*
X235544Y76973D01*
X235611Y76935D01*
X235673Y76888D01*
X235733Y76866D01*
X235789Y76834D01*
X235864Y76816D01*
X235937Y76789D01*
X236001Y76784D01*
X236063Y76769D01*
X236141Y76773D01*
X236218Y76767D01*
X236281Y76780D01*
X236345Y76783D01*
X236418Y76809D01*
X236494Y76825D01*
X236551Y76855D01*
X236611Y76876D01*
X236668Y76917D01*
X236743Y76957D01*
X236804Y77016D01*
X236860Y77058D01*
X237724Y77921D01*
X254276Y77921D01*
X255021Y77176D01*
X255021Y70124D01*
X254276Y69379D01*
X237724Y69379D01*
X237510Y69592D01*
X237459Y69631D01*
X237414Y69677D01*
X237347Y69715D01*
X237285Y69762D01*
X237225Y69784D01*
X237169Y69816D01*
X237093Y69834D01*
X237021Y69861D01*
X236957Y69866D01*
X236894Y69881D01*
X236817Y69877D01*
X236740Y69883D01*
X236677Y69870D01*
X236613Y69867D01*
X236540Y69841D01*
X236464Y69825D01*
X236407Y69795D01*
X236346Y69774D01*
X236290Y69733D01*
X236215Y69693D01*
X236154Y69634D01*
X236097Y69592D01*
X235006Y68501D01*
X233056Y67693D01*
X230944Y67693D01*
G37*
%LPD*%
%LPC*%
G36*
X155944Y86693D02*
X155944Y86693D01*
X153994Y87501D01*
X152501Y88994D01*
X151693Y90944D01*
X151693Y93056D01*
X152501Y95006D01*
X153994Y96499D01*
X155944Y97307D01*
X158056Y97307D01*
X160006Y96499D01*
X161222Y95283D01*
X161274Y95244D01*
X161319Y95198D01*
X161386Y95160D01*
X161448Y95113D01*
X161508Y95091D01*
X161564Y95059D01*
X161639Y95041D01*
X161712Y95014D01*
X161776Y95009D01*
X161838Y94994D01*
X161916Y94998D01*
X161993Y94992D01*
X162056Y95005D01*
X162120Y95008D01*
X162193Y95034D01*
X162269Y95050D01*
X162326Y95080D01*
X162386Y95101D01*
X162443Y95142D01*
X162518Y95182D01*
X162579Y95241D01*
X162635Y95283D01*
X163224Y95871D01*
X174276Y95871D01*
X175021Y95126D01*
X175021Y89074D01*
X174276Y88329D01*
X163224Y88329D01*
X162735Y88817D01*
X162684Y88856D01*
X162639Y88902D01*
X162572Y88940D01*
X162510Y88987D01*
X162450Y89009D01*
X162394Y89041D01*
X162318Y89059D01*
X162246Y89086D01*
X162182Y89091D01*
X162119Y89106D01*
X162042Y89102D01*
X161965Y89108D01*
X161902Y89095D01*
X161838Y89092D01*
X161765Y89066D01*
X161689Y89050D01*
X161632Y89020D01*
X161571Y88999D01*
X161515Y88958D01*
X161440Y88918D01*
X161379Y88859D01*
X161322Y88817D01*
X160006Y87501D01*
X158056Y86693D01*
X155944Y86693D01*
G37*
%LPD*%
%LPC*%
G36*
X163224Y75629D02*
X163224Y75629D01*
X162479Y76374D01*
X162479Y82426D01*
X163224Y83171D01*
X174276Y83171D01*
X175021Y82426D01*
X175021Y76374D01*
X174276Y75629D01*
X163224Y75629D01*
G37*
%LPD*%
%LPC*%
G36*
X105724Y75629D02*
X105724Y75629D01*
X104979Y76374D01*
X104979Y82426D01*
X105724Y83171D01*
X116776Y83171D01*
X117521Y82426D01*
X117521Y76374D01*
X116776Y75629D01*
X105724Y75629D01*
G37*
%LPD*%
%LPC*%
G36*
X105724Y62929D02*
X105724Y62929D01*
X104979Y63674D01*
X104979Y69726D01*
X105724Y70471D01*
X116776Y70471D01*
X117521Y69726D01*
X117521Y63674D01*
X116776Y62929D01*
X105724Y62929D01*
G37*
%LPD*%
%LPC*%
G36*
X163224Y37529D02*
X163224Y37529D01*
X162479Y38274D01*
X162479Y44326D01*
X163224Y45071D01*
X174276Y45071D01*
X175021Y44326D01*
X175021Y38274D01*
X174276Y37529D01*
X163224Y37529D01*
G37*
%LPD*%
D10*
X235000Y143000D03*
X225500Y119000D03*
X244500Y119000D03*
D11*
X192000Y99050D03*
X192000Y86350D03*
X192000Y73650D03*
X192000Y60950D03*
X246000Y60950D03*
X246000Y73650D03*
X246000Y86350D03*
X246000Y99050D03*
D12*
X268000Y100500D03*
X268000Y83500D03*
D13*
X111250Y54000D03*
X168750Y54000D03*
X111250Y79400D03*
X168750Y79400D03*
X111250Y66700D03*
X168750Y66700D03*
X111250Y92100D03*
X168750Y92100D03*
X111250Y28600D03*
X168750Y28600D03*
X111250Y15900D03*
X168750Y15900D03*
X111250Y41300D03*
X168750Y41300D03*
D14*
X143000Y192500D03*
X143000Y183000D03*
X143000Y173500D03*
X169000Y173500D03*
X169000Y192500D03*
D15*
X239700Y181000D03*
X214300Y181000D03*
D16*
X143000Y150500D03*
X143000Y133500D03*
X169000Y150500D03*
X169000Y133500D03*
X169000Y213500D03*
X169000Y230500D03*
D17*
X116000Y214000D03*
X125500Y192000D03*
X106500Y192000D03*
D18*
X71000Y170000D03*
X71000Y190000D03*
D19*
X19000Y146000D03*
X19000Y214000D03*
D20*
X30600Y83300D03*
X30600Y108700D03*
X56000Y83300D03*
X56000Y108700D03*
X81400Y83300D03*
X81400Y108700D03*
D12*
X115500Y130000D03*
X98500Y130000D03*
D21*
X264000Y139500D03*
X264000Y120500D03*
D22*
X244500Y119000D02*
X211850Y86350D01*
X192000Y86350D01*
X244500Y119000D02*
X246000Y120500D01*
X264000Y120500D01*
X225500Y119000D02*
X225500Y111500D01*
X213050Y99050D01*
X192000Y99050D01*
X169000Y230500D02*
X169000Y242000D01*
D23*
X169000Y242000D03*
X131000Y179000D03*
D22*
X143000Y133500D02*
X143000Y124000D01*
X146000Y121000D01*
D23*
X146000Y121000D03*
D22*
X169000Y124000D02*
X169000Y133500D01*
X169000Y124000D02*
X166000Y121000D01*
D23*
X166000Y121000D03*
D22*
X168750Y92100D02*
X168650Y92000D01*
X157000Y92000D01*
D23*
X157000Y92000D03*
D22*
X92000Y136500D02*
X92000Y141000D01*
X92000Y136500D02*
X98500Y130000D01*
D23*
X92000Y141000D03*
D22*
X192000Y60950D02*
X192000Y52000D01*
D23*
X192000Y52000D03*
D24*
X143000Y183000D02*
X135000Y183000D01*
X131000Y179000D01*
D22*
X268000Y100500D02*
X279500Y100500D01*
X280000Y100000D01*
D23*
X280000Y100000D03*
D22*
X279500Y139500D02*
X264000Y139500D01*
X279500Y139500D02*
X280000Y140000D01*
D23*
X280000Y140000D03*
D22*
X246000Y73650D02*
X232650Y73650D01*
X232000Y73000D01*
D23*
X232000Y73000D03*
D22*
X232950Y60950D02*
X246000Y60950D01*
X232950Y60950D02*
X232000Y60000D01*
D23*
X232000Y60000D03*
D24*
X106500Y179500D02*
X106500Y192000D01*
X106500Y179500D02*
X107000Y179000D01*
D23*
X107000Y179000D03*
D24*
X71000Y170000D02*
X71000Y160000D01*
X70000Y159000D01*
D23*
X70000Y159000D03*
D22*
X265000Y86500D02*
X268000Y83500D01*
X265000Y86500D02*
X245242Y86500D01*
X245865Y86485D02*
X246000Y86350D01*
X245865Y86485D02*
X245242Y86500D01*
X239700Y147700D02*
X239700Y181000D01*
X239700Y147700D02*
X235000Y143000D01*
X169000Y150500D02*
X169000Y173500D01*
X143000Y173500D02*
X143000Y150500D01*
X143000Y192500D02*
X148210Y192500D01*
X152770Y187940D01*
X152770Y179270D01*
X147000Y173500D01*
X143000Y173500D01*
D24*
X142500Y192000D02*
X125500Y192000D01*
D22*
X142500Y192000D02*
X143000Y192500D01*
X72000Y190000D02*
X71000Y190000D01*
D24*
X96000Y214000D02*
X116000Y214000D01*
X96000Y214000D02*
X72000Y190000D01*
D22*
X97260Y15900D02*
X111250Y15900D01*
X97260Y15900D02*
X43000Y70160D01*
X43000Y95700D02*
X56000Y108700D01*
X43000Y95700D02*
X43000Y70160D01*
X168750Y28600D02*
X168750Y28031D01*
X163296Y22576D01*
X97124Y22576D01*
X56000Y63700D01*
X56000Y83300D01*
X168750Y15900D02*
X168750Y15331D01*
X163296Y9876D01*
X98024Y9876D01*
X30600Y77300D01*
X30600Y83300D01*
X98700Y54000D02*
X111250Y54000D01*
X98700Y54000D02*
X81400Y71300D01*
X81400Y83300D01*
X186410Y73650D02*
X192000Y73650D01*
X174690Y61930D02*
X131880Y61930D01*
X111250Y41300D01*
X174690Y61930D02*
X186410Y73650D01*
M02*
