G04 EAGLE Gerber RS-274X export*
G75*
%MOMM*%
%FSLAX34Y34*%
%LPD*%
%INSilkscreen Top*%
%IPPOS*%
%AMOC8*
5,1,8,0,0,1.08239X$1,22.5*%
G01*
%ADD10C,0.200000*%
%ADD11C,0.101600*%
%ADD12C,0.152400*%
%ADD13C,0.076200*%
%ADD14C,0.203200*%
%ADD15C,0.127000*%
%ADD16C,0.177800*%


D10*
X253000Y261000D02*
X253008Y261687D01*
X253034Y262374D01*
X253076Y263060D01*
X253135Y263744D01*
X253211Y264427D01*
X253303Y265108D01*
X253412Y265787D01*
X253538Y266463D01*
X253680Y267135D01*
X253839Y267803D01*
X254014Y268468D01*
X254206Y269128D01*
X254413Y269783D01*
X254637Y270433D01*
X254876Y271077D01*
X255131Y271715D01*
X255402Y272347D01*
X255688Y272972D01*
X255990Y273589D01*
X256306Y274199D01*
X256638Y274801D01*
X256984Y275395D01*
X257344Y275980D01*
X257719Y276556D01*
X258108Y277123D01*
X258510Y277680D01*
X258926Y278226D01*
X259356Y278763D01*
X259798Y279289D01*
X260253Y279804D01*
X260721Y280307D01*
X261201Y280799D01*
X261693Y281279D01*
X262196Y281747D01*
X262711Y282202D01*
X263237Y282644D01*
X263774Y283074D01*
X264320Y283490D01*
X264877Y283892D01*
X265444Y284281D01*
X266020Y284656D01*
X266605Y285016D01*
X267199Y285362D01*
X267801Y285694D01*
X268411Y286010D01*
X269028Y286312D01*
X269653Y286598D01*
X270285Y286869D01*
X270923Y287124D01*
X271567Y287363D01*
X272217Y287587D01*
X272872Y287794D01*
X273532Y287986D01*
X274197Y288161D01*
X274865Y288320D01*
X275537Y288462D01*
X276213Y288588D01*
X276892Y288697D01*
X277573Y288789D01*
X278256Y288865D01*
X278940Y288924D01*
X279626Y288966D01*
X280313Y288992D01*
X281000Y289000D01*
X281687Y288992D01*
X282374Y288966D01*
X283060Y288924D01*
X283744Y288865D01*
X284427Y288789D01*
X285108Y288697D01*
X285787Y288588D01*
X286463Y288462D01*
X287135Y288320D01*
X287803Y288161D01*
X288468Y287986D01*
X289128Y287794D01*
X289783Y287587D01*
X290433Y287363D01*
X291077Y287124D01*
X291715Y286869D01*
X292347Y286598D01*
X292972Y286312D01*
X293589Y286010D01*
X294199Y285694D01*
X294801Y285362D01*
X295395Y285016D01*
X295980Y284656D01*
X296556Y284281D01*
X297123Y283892D01*
X297680Y283490D01*
X298226Y283074D01*
X298763Y282644D01*
X299289Y282202D01*
X299804Y281747D01*
X300307Y281279D01*
X300799Y280799D01*
X301279Y280307D01*
X301747Y279804D01*
X302202Y279289D01*
X302644Y278763D01*
X303074Y278226D01*
X303490Y277680D01*
X303892Y277123D01*
X304281Y276556D01*
X304656Y275980D01*
X305016Y275395D01*
X305362Y274801D01*
X305694Y274199D01*
X306010Y273589D01*
X306312Y272972D01*
X306598Y272347D01*
X306869Y271715D01*
X307124Y271077D01*
X307363Y270433D01*
X307587Y269783D01*
X307794Y269128D01*
X307986Y268468D01*
X308161Y267803D01*
X308320Y267135D01*
X308462Y266463D01*
X308588Y265787D01*
X308697Y265108D01*
X308789Y264427D01*
X308865Y263744D01*
X308924Y263060D01*
X308966Y262374D01*
X308992Y261687D01*
X309000Y261000D01*
X308992Y260313D01*
X308966Y259626D01*
X308924Y258940D01*
X308865Y258256D01*
X308789Y257573D01*
X308697Y256892D01*
X308588Y256213D01*
X308462Y255537D01*
X308320Y254865D01*
X308161Y254197D01*
X307986Y253532D01*
X307794Y252872D01*
X307587Y252217D01*
X307363Y251567D01*
X307124Y250923D01*
X306869Y250285D01*
X306598Y249653D01*
X306312Y249028D01*
X306010Y248411D01*
X305694Y247801D01*
X305362Y247199D01*
X305016Y246605D01*
X304656Y246020D01*
X304281Y245444D01*
X303892Y244877D01*
X303490Y244320D01*
X303074Y243774D01*
X302644Y243237D01*
X302202Y242711D01*
X301747Y242196D01*
X301279Y241693D01*
X300799Y241201D01*
X300307Y240721D01*
X299804Y240253D01*
X299289Y239798D01*
X298763Y239356D01*
X298226Y238926D01*
X297680Y238510D01*
X297123Y238108D01*
X296556Y237719D01*
X295980Y237344D01*
X295395Y236984D01*
X294801Y236638D01*
X294199Y236306D01*
X293589Y235990D01*
X292972Y235688D01*
X292347Y235402D01*
X291715Y235131D01*
X291077Y234876D01*
X290433Y234637D01*
X289783Y234413D01*
X289128Y234206D01*
X288468Y234014D01*
X287803Y233839D01*
X287135Y233680D01*
X286463Y233538D01*
X285787Y233412D01*
X285108Y233303D01*
X284427Y233211D01*
X283744Y233135D01*
X283060Y233076D01*
X282374Y233034D01*
X281687Y233008D01*
X281000Y233000D01*
X280313Y233008D01*
X279626Y233034D01*
X278940Y233076D01*
X278256Y233135D01*
X277573Y233211D01*
X276892Y233303D01*
X276213Y233412D01*
X275537Y233538D01*
X274865Y233680D01*
X274197Y233839D01*
X273532Y234014D01*
X272872Y234206D01*
X272217Y234413D01*
X271567Y234637D01*
X270923Y234876D01*
X270285Y235131D01*
X269653Y235402D01*
X269028Y235688D01*
X268411Y235990D01*
X267801Y236306D01*
X267199Y236638D01*
X266605Y236984D01*
X266020Y237344D01*
X265444Y237719D01*
X264877Y238108D01*
X264320Y238510D01*
X263774Y238926D01*
X263237Y239356D01*
X262711Y239798D01*
X262196Y240253D01*
X261693Y240721D01*
X261201Y241201D01*
X260721Y241693D01*
X260253Y242196D01*
X259798Y242711D01*
X259356Y243237D01*
X258926Y243774D01*
X258510Y244320D01*
X258108Y244877D01*
X257719Y245444D01*
X257344Y246020D01*
X256984Y246605D01*
X256638Y247199D01*
X256306Y247801D01*
X255990Y248411D01*
X255688Y249028D01*
X255402Y249653D01*
X255131Y250285D01*
X254876Y250923D01*
X254637Y251567D01*
X254413Y252217D01*
X254206Y252872D01*
X254014Y253532D01*
X253839Y254197D01*
X253680Y254865D01*
X253538Y255537D01*
X253412Y256213D01*
X253303Y256892D01*
X253211Y257573D01*
X253135Y258256D01*
X253076Y258940D01*
X253034Y259626D01*
X253008Y260313D01*
X253000Y261000D01*
X253000Y29000D02*
X253008Y29687D01*
X253034Y30374D01*
X253076Y31060D01*
X253135Y31744D01*
X253211Y32427D01*
X253303Y33108D01*
X253412Y33787D01*
X253538Y34463D01*
X253680Y35135D01*
X253839Y35803D01*
X254014Y36468D01*
X254206Y37128D01*
X254413Y37783D01*
X254637Y38433D01*
X254876Y39077D01*
X255131Y39715D01*
X255402Y40347D01*
X255688Y40972D01*
X255990Y41589D01*
X256306Y42199D01*
X256638Y42801D01*
X256984Y43395D01*
X257344Y43980D01*
X257719Y44556D01*
X258108Y45123D01*
X258510Y45680D01*
X258926Y46226D01*
X259356Y46763D01*
X259798Y47289D01*
X260253Y47804D01*
X260721Y48307D01*
X261201Y48799D01*
X261693Y49279D01*
X262196Y49747D01*
X262711Y50202D01*
X263237Y50644D01*
X263774Y51074D01*
X264320Y51490D01*
X264877Y51892D01*
X265444Y52281D01*
X266020Y52656D01*
X266605Y53016D01*
X267199Y53362D01*
X267801Y53694D01*
X268411Y54010D01*
X269028Y54312D01*
X269653Y54598D01*
X270285Y54869D01*
X270923Y55124D01*
X271567Y55363D01*
X272217Y55587D01*
X272872Y55794D01*
X273532Y55986D01*
X274197Y56161D01*
X274865Y56320D01*
X275537Y56462D01*
X276213Y56588D01*
X276892Y56697D01*
X277573Y56789D01*
X278256Y56865D01*
X278940Y56924D01*
X279626Y56966D01*
X280313Y56992D01*
X281000Y57000D01*
X281687Y56992D01*
X282374Y56966D01*
X283060Y56924D01*
X283744Y56865D01*
X284427Y56789D01*
X285108Y56697D01*
X285787Y56588D01*
X286463Y56462D01*
X287135Y56320D01*
X287803Y56161D01*
X288468Y55986D01*
X289128Y55794D01*
X289783Y55587D01*
X290433Y55363D01*
X291077Y55124D01*
X291715Y54869D01*
X292347Y54598D01*
X292972Y54312D01*
X293589Y54010D01*
X294199Y53694D01*
X294801Y53362D01*
X295395Y53016D01*
X295980Y52656D01*
X296556Y52281D01*
X297123Y51892D01*
X297680Y51490D01*
X298226Y51074D01*
X298763Y50644D01*
X299289Y50202D01*
X299804Y49747D01*
X300307Y49279D01*
X300799Y48799D01*
X301279Y48307D01*
X301747Y47804D01*
X302202Y47289D01*
X302644Y46763D01*
X303074Y46226D01*
X303490Y45680D01*
X303892Y45123D01*
X304281Y44556D01*
X304656Y43980D01*
X305016Y43395D01*
X305362Y42801D01*
X305694Y42199D01*
X306010Y41589D01*
X306312Y40972D01*
X306598Y40347D01*
X306869Y39715D01*
X307124Y39077D01*
X307363Y38433D01*
X307587Y37783D01*
X307794Y37128D01*
X307986Y36468D01*
X308161Y35803D01*
X308320Y35135D01*
X308462Y34463D01*
X308588Y33787D01*
X308697Y33108D01*
X308789Y32427D01*
X308865Y31744D01*
X308924Y31060D01*
X308966Y30374D01*
X308992Y29687D01*
X309000Y29000D01*
X308992Y28313D01*
X308966Y27626D01*
X308924Y26940D01*
X308865Y26256D01*
X308789Y25573D01*
X308697Y24892D01*
X308588Y24213D01*
X308462Y23537D01*
X308320Y22865D01*
X308161Y22197D01*
X307986Y21532D01*
X307794Y20872D01*
X307587Y20217D01*
X307363Y19567D01*
X307124Y18923D01*
X306869Y18285D01*
X306598Y17653D01*
X306312Y17028D01*
X306010Y16411D01*
X305694Y15801D01*
X305362Y15199D01*
X305016Y14605D01*
X304656Y14020D01*
X304281Y13444D01*
X303892Y12877D01*
X303490Y12320D01*
X303074Y11774D01*
X302644Y11237D01*
X302202Y10711D01*
X301747Y10196D01*
X301279Y9693D01*
X300799Y9201D01*
X300307Y8721D01*
X299804Y8253D01*
X299289Y7798D01*
X298763Y7356D01*
X298226Y6926D01*
X297680Y6510D01*
X297123Y6108D01*
X296556Y5719D01*
X295980Y5344D01*
X295395Y4984D01*
X294801Y4638D01*
X294199Y4306D01*
X293589Y3990D01*
X292972Y3688D01*
X292347Y3402D01*
X291715Y3131D01*
X291077Y2876D01*
X290433Y2637D01*
X289783Y2413D01*
X289128Y2206D01*
X288468Y2014D01*
X287803Y1839D01*
X287135Y1680D01*
X286463Y1538D01*
X285787Y1412D01*
X285108Y1303D01*
X284427Y1211D01*
X283744Y1135D01*
X283060Y1076D01*
X282374Y1034D01*
X281687Y1008D01*
X281000Y1000D01*
X280313Y1008D01*
X279626Y1034D01*
X278940Y1076D01*
X278256Y1135D01*
X277573Y1211D01*
X276892Y1303D01*
X276213Y1412D01*
X275537Y1538D01*
X274865Y1680D01*
X274197Y1839D01*
X273532Y2014D01*
X272872Y2206D01*
X272217Y2413D01*
X271567Y2637D01*
X270923Y2876D01*
X270285Y3131D01*
X269653Y3402D01*
X269028Y3688D01*
X268411Y3990D01*
X267801Y4306D01*
X267199Y4638D01*
X266605Y4984D01*
X266020Y5344D01*
X265444Y5719D01*
X264877Y6108D01*
X264320Y6510D01*
X263774Y6926D01*
X263237Y7356D01*
X262711Y7798D01*
X262196Y8253D01*
X261693Y8721D01*
X261201Y9201D01*
X260721Y9693D01*
X260253Y10196D01*
X259798Y10711D01*
X259356Y11237D01*
X258926Y11774D01*
X258510Y12320D01*
X258108Y12877D01*
X257719Y13444D01*
X257344Y14020D01*
X256984Y14605D01*
X256638Y15199D01*
X256306Y15801D01*
X255990Y16411D01*
X255688Y17028D01*
X255402Y17653D01*
X255131Y18285D01*
X254876Y18923D01*
X254637Y19567D01*
X254413Y20217D01*
X254206Y20872D01*
X254014Y21532D01*
X253839Y22197D01*
X253680Y22865D01*
X253538Y23537D01*
X253412Y24213D01*
X253303Y24892D01*
X253211Y25573D01*
X253135Y26256D01*
X253076Y26940D01*
X253034Y27626D01*
X253008Y28313D01*
X253000Y29000D01*
X1000Y261000D02*
X1008Y261687D01*
X1034Y262374D01*
X1076Y263060D01*
X1135Y263744D01*
X1211Y264427D01*
X1303Y265108D01*
X1412Y265787D01*
X1538Y266463D01*
X1680Y267135D01*
X1839Y267803D01*
X2014Y268468D01*
X2206Y269128D01*
X2413Y269783D01*
X2637Y270433D01*
X2876Y271077D01*
X3131Y271715D01*
X3402Y272347D01*
X3688Y272972D01*
X3990Y273589D01*
X4306Y274199D01*
X4638Y274801D01*
X4984Y275395D01*
X5344Y275980D01*
X5719Y276556D01*
X6108Y277123D01*
X6510Y277680D01*
X6926Y278226D01*
X7356Y278763D01*
X7798Y279289D01*
X8253Y279804D01*
X8721Y280307D01*
X9201Y280799D01*
X9693Y281279D01*
X10196Y281747D01*
X10711Y282202D01*
X11237Y282644D01*
X11774Y283074D01*
X12320Y283490D01*
X12877Y283892D01*
X13444Y284281D01*
X14020Y284656D01*
X14605Y285016D01*
X15199Y285362D01*
X15801Y285694D01*
X16411Y286010D01*
X17028Y286312D01*
X17653Y286598D01*
X18285Y286869D01*
X18923Y287124D01*
X19567Y287363D01*
X20217Y287587D01*
X20872Y287794D01*
X21532Y287986D01*
X22197Y288161D01*
X22865Y288320D01*
X23537Y288462D01*
X24213Y288588D01*
X24892Y288697D01*
X25573Y288789D01*
X26256Y288865D01*
X26940Y288924D01*
X27626Y288966D01*
X28313Y288992D01*
X29000Y289000D01*
X29687Y288992D01*
X30374Y288966D01*
X31060Y288924D01*
X31744Y288865D01*
X32427Y288789D01*
X33108Y288697D01*
X33787Y288588D01*
X34463Y288462D01*
X35135Y288320D01*
X35803Y288161D01*
X36468Y287986D01*
X37128Y287794D01*
X37783Y287587D01*
X38433Y287363D01*
X39077Y287124D01*
X39715Y286869D01*
X40347Y286598D01*
X40972Y286312D01*
X41589Y286010D01*
X42199Y285694D01*
X42801Y285362D01*
X43395Y285016D01*
X43980Y284656D01*
X44556Y284281D01*
X45123Y283892D01*
X45680Y283490D01*
X46226Y283074D01*
X46763Y282644D01*
X47289Y282202D01*
X47804Y281747D01*
X48307Y281279D01*
X48799Y280799D01*
X49279Y280307D01*
X49747Y279804D01*
X50202Y279289D01*
X50644Y278763D01*
X51074Y278226D01*
X51490Y277680D01*
X51892Y277123D01*
X52281Y276556D01*
X52656Y275980D01*
X53016Y275395D01*
X53362Y274801D01*
X53694Y274199D01*
X54010Y273589D01*
X54312Y272972D01*
X54598Y272347D01*
X54869Y271715D01*
X55124Y271077D01*
X55363Y270433D01*
X55587Y269783D01*
X55794Y269128D01*
X55986Y268468D01*
X56161Y267803D01*
X56320Y267135D01*
X56462Y266463D01*
X56588Y265787D01*
X56697Y265108D01*
X56789Y264427D01*
X56865Y263744D01*
X56924Y263060D01*
X56966Y262374D01*
X56992Y261687D01*
X57000Y261000D01*
X56992Y260313D01*
X56966Y259626D01*
X56924Y258940D01*
X56865Y258256D01*
X56789Y257573D01*
X56697Y256892D01*
X56588Y256213D01*
X56462Y255537D01*
X56320Y254865D01*
X56161Y254197D01*
X55986Y253532D01*
X55794Y252872D01*
X55587Y252217D01*
X55363Y251567D01*
X55124Y250923D01*
X54869Y250285D01*
X54598Y249653D01*
X54312Y249028D01*
X54010Y248411D01*
X53694Y247801D01*
X53362Y247199D01*
X53016Y246605D01*
X52656Y246020D01*
X52281Y245444D01*
X51892Y244877D01*
X51490Y244320D01*
X51074Y243774D01*
X50644Y243237D01*
X50202Y242711D01*
X49747Y242196D01*
X49279Y241693D01*
X48799Y241201D01*
X48307Y240721D01*
X47804Y240253D01*
X47289Y239798D01*
X46763Y239356D01*
X46226Y238926D01*
X45680Y238510D01*
X45123Y238108D01*
X44556Y237719D01*
X43980Y237344D01*
X43395Y236984D01*
X42801Y236638D01*
X42199Y236306D01*
X41589Y235990D01*
X40972Y235688D01*
X40347Y235402D01*
X39715Y235131D01*
X39077Y234876D01*
X38433Y234637D01*
X37783Y234413D01*
X37128Y234206D01*
X36468Y234014D01*
X35803Y233839D01*
X35135Y233680D01*
X34463Y233538D01*
X33787Y233412D01*
X33108Y233303D01*
X32427Y233211D01*
X31744Y233135D01*
X31060Y233076D01*
X30374Y233034D01*
X29687Y233008D01*
X29000Y233000D01*
X28313Y233008D01*
X27626Y233034D01*
X26940Y233076D01*
X26256Y233135D01*
X25573Y233211D01*
X24892Y233303D01*
X24213Y233412D01*
X23537Y233538D01*
X22865Y233680D01*
X22197Y233839D01*
X21532Y234014D01*
X20872Y234206D01*
X20217Y234413D01*
X19567Y234637D01*
X18923Y234876D01*
X18285Y235131D01*
X17653Y235402D01*
X17028Y235688D01*
X16411Y235990D01*
X15801Y236306D01*
X15199Y236638D01*
X14605Y236984D01*
X14020Y237344D01*
X13444Y237719D01*
X12877Y238108D01*
X12320Y238510D01*
X11774Y238926D01*
X11237Y239356D01*
X10711Y239798D01*
X10196Y240253D01*
X9693Y240721D01*
X9201Y241201D01*
X8721Y241693D01*
X8253Y242196D01*
X7798Y242711D01*
X7356Y243237D01*
X6926Y243774D01*
X6510Y244320D01*
X6108Y244877D01*
X5719Y245444D01*
X5344Y246020D01*
X4984Y246605D01*
X4638Y247199D01*
X4306Y247801D01*
X3990Y248411D01*
X3688Y249028D01*
X3402Y249653D01*
X3131Y250285D01*
X2876Y250923D01*
X2637Y251567D01*
X2413Y252217D01*
X2206Y252872D01*
X2014Y253532D01*
X1839Y254197D01*
X1680Y254865D01*
X1538Y255537D01*
X1412Y256213D01*
X1303Y256892D01*
X1211Y257573D01*
X1135Y258256D01*
X1076Y258940D01*
X1034Y259626D01*
X1008Y260313D01*
X1000Y261000D01*
X1000Y29000D02*
X1008Y29687D01*
X1034Y30374D01*
X1076Y31060D01*
X1135Y31744D01*
X1211Y32427D01*
X1303Y33108D01*
X1412Y33787D01*
X1538Y34463D01*
X1680Y35135D01*
X1839Y35803D01*
X2014Y36468D01*
X2206Y37128D01*
X2413Y37783D01*
X2637Y38433D01*
X2876Y39077D01*
X3131Y39715D01*
X3402Y40347D01*
X3688Y40972D01*
X3990Y41589D01*
X4306Y42199D01*
X4638Y42801D01*
X4984Y43395D01*
X5344Y43980D01*
X5719Y44556D01*
X6108Y45123D01*
X6510Y45680D01*
X6926Y46226D01*
X7356Y46763D01*
X7798Y47289D01*
X8253Y47804D01*
X8721Y48307D01*
X9201Y48799D01*
X9693Y49279D01*
X10196Y49747D01*
X10711Y50202D01*
X11237Y50644D01*
X11774Y51074D01*
X12320Y51490D01*
X12877Y51892D01*
X13444Y52281D01*
X14020Y52656D01*
X14605Y53016D01*
X15199Y53362D01*
X15801Y53694D01*
X16411Y54010D01*
X17028Y54312D01*
X17653Y54598D01*
X18285Y54869D01*
X18923Y55124D01*
X19567Y55363D01*
X20217Y55587D01*
X20872Y55794D01*
X21532Y55986D01*
X22197Y56161D01*
X22865Y56320D01*
X23537Y56462D01*
X24213Y56588D01*
X24892Y56697D01*
X25573Y56789D01*
X26256Y56865D01*
X26940Y56924D01*
X27626Y56966D01*
X28313Y56992D01*
X29000Y57000D01*
X29687Y56992D01*
X30374Y56966D01*
X31060Y56924D01*
X31744Y56865D01*
X32427Y56789D01*
X33108Y56697D01*
X33787Y56588D01*
X34463Y56462D01*
X35135Y56320D01*
X35803Y56161D01*
X36468Y55986D01*
X37128Y55794D01*
X37783Y55587D01*
X38433Y55363D01*
X39077Y55124D01*
X39715Y54869D01*
X40347Y54598D01*
X40972Y54312D01*
X41589Y54010D01*
X42199Y53694D01*
X42801Y53362D01*
X43395Y53016D01*
X43980Y52656D01*
X44556Y52281D01*
X45123Y51892D01*
X45680Y51490D01*
X46226Y51074D01*
X46763Y50644D01*
X47289Y50202D01*
X47804Y49747D01*
X48307Y49279D01*
X48799Y48799D01*
X49279Y48307D01*
X49747Y47804D01*
X50202Y47289D01*
X50644Y46763D01*
X51074Y46226D01*
X51490Y45680D01*
X51892Y45123D01*
X52281Y44556D01*
X52656Y43980D01*
X53016Y43395D01*
X53362Y42801D01*
X53694Y42199D01*
X54010Y41589D01*
X54312Y40972D01*
X54598Y40347D01*
X54869Y39715D01*
X55124Y39077D01*
X55363Y38433D01*
X55587Y37783D01*
X55794Y37128D01*
X55986Y36468D01*
X56161Y35803D01*
X56320Y35135D01*
X56462Y34463D01*
X56588Y33787D01*
X56697Y33108D01*
X56789Y32427D01*
X56865Y31744D01*
X56924Y31060D01*
X56966Y30374D01*
X56992Y29687D01*
X57000Y29000D01*
X56992Y28313D01*
X56966Y27626D01*
X56924Y26940D01*
X56865Y26256D01*
X56789Y25573D01*
X56697Y24892D01*
X56588Y24213D01*
X56462Y23537D01*
X56320Y22865D01*
X56161Y22197D01*
X55986Y21532D01*
X55794Y20872D01*
X55587Y20217D01*
X55363Y19567D01*
X55124Y18923D01*
X54869Y18285D01*
X54598Y17653D01*
X54312Y17028D01*
X54010Y16411D01*
X53694Y15801D01*
X53362Y15199D01*
X53016Y14605D01*
X52656Y14020D01*
X52281Y13444D01*
X51892Y12877D01*
X51490Y12320D01*
X51074Y11774D01*
X50644Y11237D01*
X50202Y10711D01*
X49747Y10196D01*
X49279Y9693D01*
X48799Y9201D01*
X48307Y8721D01*
X47804Y8253D01*
X47289Y7798D01*
X46763Y7356D01*
X46226Y6926D01*
X45680Y6510D01*
X45123Y6108D01*
X44556Y5719D01*
X43980Y5344D01*
X43395Y4984D01*
X42801Y4638D01*
X42199Y4306D01*
X41589Y3990D01*
X40972Y3688D01*
X40347Y3402D01*
X39715Y3131D01*
X39077Y2876D01*
X38433Y2637D01*
X37783Y2413D01*
X37128Y2206D01*
X36468Y2014D01*
X35803Y1839D01*
X35135Y1680D01*
X34463Y1538D01*
X33787Y1412D01*
X33108Y1303D01*
X32427Y1211D01*
X31744Y1135D01*
X31060Y1076D01*
X30374Y1034D01*
X29687Y1008D01*
X29000Y1000D01*
X28313Y1008D01*
X27626Y1034D01*
X26940Y1076D01*
X26256Y1135D01*
X25573Y1211D01*
X24892Y1303D01*
X24213Y1412D01*
X23537Y1538D01*
X22865Y1680D01*
X22197Y1839D01*
X21532Y2014D01*
X20872Y2206D01*
X20217Y2413D01*
X19567Y2637D01*
X18923Y2876D01*
X18285Y3131D01*
X17653Y3402D01*
X17028Y3688D01*
X16411Y3990D01*
X15801Y4306D01*
X15199Y4638D01*
X14605Y4984D01*
X14020Y5344D01*
X13444Y5719D01*
X12877Y6108D01*
X12320Y6510D01*
X11774Y6926D01*
X11237Y7356D01*
X10711Y7798D01*
X10196Y8253D01*
X9693Y8721D01*
X9201Y9201D01*
X8721Y9693D01*
X8253Y10196D01*
X7798Y10711D01*
X7356Y11237D01*
X6926Y11774D01*
X6510Y12320D01*
X6108Y12877D01*
X5719Y13444D01*
X5344Y14020D01*
X4984Y14605D01*
X4638Y15199D01*
X4306Y15801D01*
X3990Y16411D01*
X3688Y17028D01*
X3402Y17653D01*
X3131Y18285D01*
X2876Y18923D01*
X2637Y19567D01*
X2413Y20217D01*
X2206Y20872D01*
X2014Y21532D01*
X1839Y22197D01*
X1680Y22865D01*
X1538Y23537D01*
X1412Y24213D01*
X1303Y24892D01*
X1211Y25573D01*
X1135Y26256D01*
X1076Y26940D01*
X1034Y27626D01*
X1008Y28313D01*
X1000Y29000D01*
X249500Y123000D02*
X249500Y139000D01*
X220500Y139000D02*
X220500Y123000D01*
X220500Y139000D02*
X229500Y139000D01*
X230500Y123000D02*
X239500Y123000D01*
X240500Y139000D02*
X249500Y139000D01*
D11*
X203797Y132996D02*
X203797Y129004D01*
X203797Y132996D02*
X203799Y133095D01*
X203805Y133194D01*
X203815Y133293D01*
X203829Y133391D01*
X203846Y133489D01*
X203868Y133586D01*
X203893Y133682D01*
X203922Y133777D01*
X203955Y133870D01*
X203992Y133963D01*
X204032Y134053D01*
X204076Y134142D01*
X204123Y134230D01*
X204174Y134315D01*
X204228Y134398D01*
X204285Y134479D01*
X204346Y134558D01*
X204410Y134634D01*
X204476Y134708D01*
X204546Y134778D01*
X204618Y134846D01*
X204693Y134912D01*
X204770Y134974D01*
X204850Y135033D01*
X204932Y135088D01*
X205016Y135141D01*
X205103Y135190D01*
X205191Y135236D01*
X205281Y135278D01*
X205372Y135316D01*
X205465Y135351D01*
X205560Y135382D01*
X205655Y135409D01*
X205751Y135433D01*
X205849Y135452D01*
X205947Y135468D01*
X206045Y135480D01*
X206144Y135488D01*
X206243Y135492D01*
X206343Y135492D01*
X206442Y135488D01*
X206541Y135480D01*
X206639Y135468D01*
X206737Y135452D01*
X206835Y135433D01*
X206931Y135409D01*
X207026Y135382D01*
X207121Y135351D01*
X207214Y135316D01*
X207305Y135278D01*
X207395Y135236D01*
X207483Y135190D01*
X207570Y135141D01*
X207654Y135088D01*
X207736Y135033D01*
X207816Y134974D01*
X207893Y134912D01*
X207968Y134846D01*
X208040Y134778D01*
X208110Y134708D01*
X208176Y134634D01*
X208240Y134558D01*
X208301Y134479D01*
X208358Y134398D01*
X208412Y134315D01*
X208463Y134230D01*
X208510Y134142D01*
X208554Y134053D01*
X208594Y133963D01*
X208631Y133870D01*
X208664Y133777D01*
X208693Y133682D01*
X208718Y133586D01*
X208740Y133489D01*
X208757Y133391D01*
X208771Y133293D01*
X208781Y133194D01*
X208787Y133095D01*
X208789Y132996D01*
X208788Y132996D02*
X208788Y129004D01*
X208789Y129004D02*
X208787Y128905D01*
X208781Y128806D01*
X208771Y128707D01*
X208757Y128609D01*
X208740Y128511D01*
X208718Y128414D01*
X208693Y128318D01*
X208664Y128223D01*
X208631Y128130D01*
X208594Y128037D01*
X208554Y127947D01*
X208510Y127858D01*
X208463Y127770D01*
X208412Y127685D01*
X208358Y127602D01*
X208301Y127521D01*
X208240Y127442D01*
X208176Y127366D01*
X208110Y127292D01*
X208040Y127222D01*
X207968Y127154D01*
X207893Y127088D01*
X207816Y127026D01*
X207736Y126967D01*
X207654Y126912D01*
X207570Y126859D01*
X207483Y126810D01*
X207395Y126764D01*
X207305Y126722D01*
X207214Y126684D01*
X207121Y126649D01*
X207026Y126618D01*
X206931Y126591D01*
X206835Y126567D01*
X206737Y126548D01*
X206639Y126532D01*
X206541Y126520D01*
X206442Y126512D01*
X206343Y126508D01*
X206243Y126508D01*
X206144Y126512D01*
X206045Y126520D01*
X205947Y126532D01*
X205849Y126548D01*
X205751Y126567D01*
X205655Y126591D01*
X205560Y126618D01*
X205465Y126649D01*
X205372Y126684D01*
X205281Y126722D01*
X205191Y126764D01*
X205103Y126810D01*
X205016Y126859D01*
X204932Y126912D01*
X204850Y126967D01*
X204770Y127026D01*
X204693Y127088D01*
X204618Y127154D01*
X204546Y127222D01*
X204476Y127292D01*
X204410Y127366D01*
X204346Y127442D01*
X204285Y127521D01*
X204228Y127602D01*
X204174Y127685D01*
X204123Y127770D01*
X204076Y127858D01*
X204032Y127947D01*
X203992Y128037D01*
X203955Y128130D01*
X203922Y128223D01*
X203893Y128318D01*
X203868Y128414D01*
X203846Y128511D01*
X203829Y128609D01*
X203815Y128707D01*
X203805Y128806D01*
X203799Y128905D01*
X203797Y129004D01*
X207790Y128504D02*
X209786Y126508D01*
X212501Y133496D02*
X214996Y135492D01*
X214996Y126508D01*
X212501Y126508D02*
X217492Y126508D01*
D12*
X201188Y55108D02*
X236812Y55108D01*
X236812Y104892D01*
X215952Y104892D01*
X201188Y104892D01*
X201188Y55108D01*
X215952Y104892D02*
X215958Y104783D01*
X215968Y104675D01*
X215983Y104567D01*
X216001Y104459D01*
X216023Y104353D01*
X216048Y104247D01*
X216078Y104142D01*
X216111Y104038D01*
X216148Y103936D01*
X216188Y103835D01*
X216232Y103735D01*
X216280Y103637D01*
X216331Y103541D01*
X216385Y103447D01*
X216443Y103354D01*
X216504Y103264D01*
X216568Y103176D01*
X216636Y103091D01*
X216706Y103007D01*
X216779Y102927D01*
X216855Y102849D01*
X216934Y102774D01*
X217016Y102701D01*
X217100Y102632D01*
X217186Y102566D01*
X217275Y102503D01*
X217366Y102443D01*
X217459Y102386D01*
X217554Y102333D01*
X217651Y102283D01*
X217749Y102236D01*
X217849Y102193D01*
X217951Y102154D01*
X218054Y102118D01*
X218158Y102087D01*
X218263Y102058D01*
X218369Y102034D01*
X218476Y102013D01*
X218584Y101997D01*
X218692Y101984D01*
X218800Y101975D01*
X218909Y101969D01*
X219018Y101968D01*
X219127Y101971D01*
X219236Y101977D01*
X219344Y101987D01*
X219452Y102002D01*
X219560Y102020D01*
X219666Y102042D01*
X219772Y102067D01*
X219877Y102097D01*
X219981Y102130D01*
X220083Y102167D01*
X220184Y102207D01*
X220284Y102251D01*
X220382Y102299D01*
X220478Y102350D01*
X220572Y102404D01*
X220665Y102462D01*
X220755Y102523D01*
X220843Y102587D01*
X220928Y102655D01*
X221012Y102725D01*
X221092Y102798D01*
X221170Y102874D01*
X221245Y102953D01*
X221318Y103035D01*
X221387Y103119D01*
X221453Y103205D01*
X221516Y103294D01*
X221576Y103385D01*
X221633Y103478D01*
X221686Y103573D01*
X221736Y103670D01*
X221783Y103768D01*
X221826Y103868D01*
X221865Y103970D01*
X221901Y104073D01*
X221932Y104177D01*
X221961Y104282D01*
X221985Y104388D01*
X222006Y104495D01*
X222022Y104603D01*
X222035Y104711D01*
X222044Y104819D01*
X222050Y104928D01*
X222051Y105037D01*
X222048Y105146D01*
X240336Y53584D02*
X197664Y53584D01*
X197664Y106416D02*
X240336Y106416D01*
D13*
X193469Y106671D02*
X193469Y102692D01*
X195790Y99707D01*
X193469Y102692D02*
X191147Y99707D01*
X193469Y102692D02*
X197116Y104018D01*
X193469Y102692D02*
X189821Y104018D01*
D11*
X188508Y112004D02*
X188508Y118492D01*
X188508Y112004D02*
X188510Y111905D01*
X188516Y111806D01*
X188526Y111707D01*
X188540Y111609D01*
X188557Y111511D01*
X188579Y111414D01*
X188604Y111318D01*
X188633Y111223D01*
X188666Y111130D01*
X188703Y111037D01*
X188743Y110947D01*
X188787Y110858D01*
X188834Y110770D01*
X188885Y110685D01*
X188939Y110602D01*
X188996Y110521D01*
X189057Y110442D01*
X189121Y110366D01*
X189187Y110292D01*
X189257Y110222D01*
X189329Y110154D01*
X189404Y110088D01*
X189481Y110026D01*
X189561Y109967D01*
X189643Y109912D01*
X189727Y109859D01*
X189814Y109810D01*
X189902Y109764D01*
X189992Y109722D01*
X190083Y109684D01*
X190176Y109649D01*
X190271Y109618D01*
X190366Y109591D01*
X190462Y109567D01*
X190560Y109548D01*
X190658Y109532D01*
X190756Y109520D01*
X190855Y109512D01*
X190954Y109508D01*
X191054Y109508D01*
X191153Y109512D01*
X191252Y109520D01*
X191350Y109532D01*
X191448Y109548D01*
X191546Y109567D01*
X191642Y109591D01*
X191737Y109618D01*
X191832Y109649D01*
X191925Y109684D01*
X192016Y109722D01*
X192106Y109764D01*
X192194Y109810D01*
X192281Y109859D01*
X192365Y109912D01*
X192447Y109967D01*
X192527Y110026D01*
X192604Y110088D01*
X192679Y110154D01*
X192751Y110222D01*
X192821Y110292D01*
X192887Y110366D01*
X192951Y110442D01*
X193012Y110521D01*
X193069Y110602D01*
X193123Y110685D01*
X193174Y110770D01*
X193221Y110858D01*
X193265Y110947D01*
X193305Y111037D01*
X193342Y111130D01*
X193375Y111223D01*
X193404Y111318D01*
X193429Y111414D01*
X193451Y111511D01*
X193468Y111609D01*
X193482Y111707D01*
X193492Y111806D01*
X193498Y111905D01*
X193500Y112004D01*
X193499Y112004D02*
X193499Y118492D01*
X197808Y116496D02*
X200304Y118492D01*
X200304Y109508D01*
X202799Y109508D02*
X197808Y109508D01*
X259158Y75842D02*
X259158Y66858D01*
X259158Y75842D02*
X261654Y75842D01*
X261753Y75840D01*
X261852Y75834D01*
X261951Y75824D01*
X262049Y75810D01*
X262147Y75793D01*
X262244Y75771D01*
X262340Y75746D01*
X262435Y75717D01*
X262528Y75684D01*
X262621Y75647D01*
X262711Y75607D01*
X262800Y75563D01*
X262888Y75516D01*
X262973Y75465D01*
X263056Y75411D01*
X263137Y75354D01*
X263216Y75293D01*
X263292Y75229D01*
X263366Y75163D01*
X263436Y75093D01*
X263504Y75021D01*
X263570Y74946D01*
X263632Y74869D01*
X263691Y74789D01*
X263746Y74707D01*
X263799Y74623D01*
X263848Y74536D01*
X263894Y74448D01*
X263936Y74358D01*
X263974Y74267D01*
X264009Y74174D01*
X264040Y74079D01*
X264067Y73984D01*
X264091Y73888D01*
X264110Y73790D01*
X264126Y73692D01*
X264138Y73594D01*
X264146Y73495D01*
X264150Y73396D01*
X264150Y73296D01*
X264146Y73197D01*
X264138Y73098D01*
X264126Y73000D01*
X264110Y72902D01*
X264091Y72804D01*
X264067Y72708D01*
X264040Y72613D01*
X264009Y72518D01*
X263974Y72425D01*
X263936Y72334D01*
X263894Y72244D01*
X263848Y72156D01*
X263799Y72069D01*
X263746Y71985D01*
X263691Y71903D01*
X263632Y71823D01*
X263570Y71746D01*
X263504Y71671D01*
X263436Y71599D01*
X263366Y71529D01*
X263292Y71463D01*
X263216Y71399D01*
X263137Y71338D01*
X263056Y71281D01*
X262973Y71227D01*
X262888Y71176D01*
X262800Y71129D01*
X262711Y71085D01*
X262621Y71045D01*
X262528Y71008D01*
X262435Y70975D01*
X262340Y70946D01*
X262244Y70921D01*
X262147Y70899D01*
X262049Y70882D01*
X261951Y70868D01*
X261852Y70858D01*
X261753Y70852D01*
X261654Y70850D01*
X261654Y70851D02*
X259158Y70851D01*
X262153Y70851D02*
X264149Y66858D01*
X273083Y73596D02*
X273081Y73689D01*
X273075Y73781D01*
X273066Y73874D01*
X273052Y73966D01*
X273035Y74057D01*
X273014Y74147D01*
X272990Y74237D01*
X272961Y74325D01*
X272929Y74412D01*
X272894Y74498D01*
X272855Y74582D01*
X272812Y74665D01*
X272766Y74746D01*
X272717Y74824D01*
X272665Y74901D01*
X272609Y74976D01*
X272551Y75048D01*
X272489Y75117D01*
X272425Y75184D01*
X272358Y75248D01*
X272289Y75310D01*
X272217Y75368D01*
X272142Y75424D01*
X272065Y75476D01*
X271987Y75525D01*
X271906Y75571D01*
X271823Y75614D01*
X271739Y75653D01*
X271653Y75688D01*
X271566Y75720D01*
X271478Y75749D01*
X271388Y75773D01*
X271298Y75794D01*
X271207Y75811D01*
X271115Y75825D01*
X271022Y75834D01*
X270930Y75840D01*
X270837Y75842D01*
X270837Y75843D02*
X270730Y75841D01*
X270624Y75835D01*
X270517Y75825D01*
X270412Y75811D01*
X270306Y75794D01*
X270202Y75772D01*
X270098Y75747D01*
X269995Y75718D01*
X269894Y75685D01*
X269794Y75648D01*
X269695Y75607D01*
X269598Y75563D01*
X269502Y75516D01*
X269408Y75465D01*
X269317Y75410D01*
X269227Y75352D01*
X269140Y75291D01*
X269054Y75227D01*
X268972Y75159D01*
X268892Y75089D01*
X268814Y75015D01*
X268739Y74939D01*
X268667Y74860D01*
X268599Y74779D01*
X268533Y74695D01*
X268470Y74608D01*
X268411Y74520D01*
X268354Y74429D01*
X268302Y74336D01*
X268252Y74241D01*
X268207Y74145D01*
X268165Y74047D01*
X268126Y73947D01*
X268091Y73846D01*
X272335Y71849D02*
X272405Y71918D01*
X272471Y71989D01*
X272535Y72063D01*
X272595Y72140D01*
X272653Y72219D01*
X272707Y72300D01*
X272757Y72384D01*
X272805Y72469D01*
X272849Y72557D01*
X272889Y72646D01*
X272926Y72736D01*
X272959Y72828D01*
X272988Y72921D01*
X273013Y73016D01*
X273035Y73111D01*
X273052Y73207D01*
X273066Y73304D01*
X273076Y73401D01*
X273082Y73498D01*
X273084Y73596D01*
X272335Y71849D02*
X268092Y66858D01*
X273083Y66858D01*
D10*
X160000Y97550D02*
X120000Y97550D01*
X160000Y97550D02*
X160000Y10450D01*
X120000Y10450D01*
X120000Y97550D01*
X125000Y92000D02*
X125002Y92089D01*
X125008Y92178D01*
X125018Y92267D01*
X125032Y92355D01*
X125049Y92442D01*
X125071Y92528D01*
X125097Y92614D01*
X125126Y92698D01*
X125159Y92781D01*
X125195Y92862D01*
X125236Y92942D01*
X125279Y93019D01*
X125326Y93095D01*
X125377Y93168D01*
X125430Y93239D01*
X125487Y93308D01*
X125547Y93374D01*
X125610Y93438D01*
X125675Y93498D01*
X125743Y93556D01*
X125814Y93610D01*
X125887Y93661D01*
X125962Y93709D01*
X126039Y93754D01*
X126118Y93795D01*
X126199Y93832D01*
X126281Y93866D01*
X126365Y93897D01*
X126450Y93923D01*
X126536Y93946D01*
X126623Y93964D01*
X126711Y93979D01*
X126800Y93990D01*
X126889Y93997D01*
X126978Y94000D01*
X127067Y93999D01*
X127156Y93994D01*
X127244Y93985D01*
X127333Y93972D01*
X127420Y93955D01*
X127507Y93935D01*
X127593Y93910D01*
X127677Y93882D01*
X127760Y93850D01*
X127842Y93814D01*
X127922Y93775D01*
X128000Y93732D01*
X128076Y93686D01*
X128150Y93636D01*
X128222Y93583D01*
X128291Y93527D01*
X128358Y93468D01*
X128422Y93406D01*
X128483Y93342D01*
X128542Y93274D01*
X128597Y93204D01*
X128649Y93132D01*
X128698Y93057D01*
X128743Y92981D01*
X128785Y92902D01*
X128823Y92822D01*
X128858Y92740D01*
X128889Y92656D01*
X128917Y92571D01*
X128940Y92485D01*
X128960Y92398D01*
X128976Y92311D01*
X128988Y92222D01*
X128996Y92134D01*
X129000Y92045D01*
X129000Y91955D01*
X128996Y91866D01*
X128988Y91778D01*
X128976Y91689D01*
X128960Y91602D01*
X128940Y91515D01*
X128917Y91429D01*
X128889Y91344D01*
X128858Y91260D01*
X128823Y91178D01*
X128785Y91098D01*
X128743Y91019D01*
X128698Y90943D01*
X128649Y90868D01*
X128597Y90796D01*
X128542Y90726D01*
X128483Y90658D01*
X128422Y90594D01*
X128358Y90532D01*
X128291Y90473D01*
X128222Y90417D01*
X128150Y90364D01*
X128076Y90314D01*
X128000Y90268D01*
X127922Y90225D01*
X127842Y90186D01*
X127760Y90150D01*
X127677Y90118D01*
X127593Y90090D01*
X127507Y90065D01*
X127420Y90045D01*
X127333Y90028D01*
X127244Y90015D01*
X127156Y90006D01*
X127067Y90001D01*
X126978Y90000D01*
X126889Y90003D01*
X126800Y90010D01*
X126711Y90021D01*
X126623Y90036D01*
X126536Y90054D01*
X126450Y90077D01*
X126365Y90103D01*
X126281Y90134D01*
X126199Y90168D01*
X126118Y90205D01*
X126039Y90246D01*
X125962Y90291D01*
X125887Y90339D01*
X125814Y90390D01*
X125743Y90444D01*
X125675Y90502D01*
X125610Y90562D01*
X125547Y90626D01*
X125487Y90692D01*
X125430Y90761D01*
X125377Y90832D01*
X125326Y90905D01*
X125279Y90981D01*
X125236Y91058D01*
X125195Y91138D01*
X125159Y91219D01*
X125126Y91302D01*
X125097Y91386D01*
X125071Y91472D01*
X125049Y91558D01*
X125032Y91645D01*
X125018Y91733D01*
X125008Y91822D01*
X125002Y91911D01*
X125000Y92000D01*
D11*
X89508Y51492D02*
X89508Y45004D01*
X89510Y44905D01*
X89516Y44806D01*
X89526Y44707D01*
X89540Y44609D01*
X89557Y44511D01*
X89579Y44414D01*
X89604Y44318D01*
X89633Y44223D01*
X89666Y44130D01*
X89703Y44037D01*
X89743Y43947D01*
X89787Y43858D01*
X89834Y43770D01*
X89885Y43685D01*
X89939Y43602D01*
X89996Y43521D01*
X90057Y43442D01*
X90121Y43366D01*
X90187Y43292D01*
X90257Y43222D01*
X90329Y43154D01*
X90404Y43088D01*
X90481Y43026D01*
X90561Y42967D01*
X90643Y42912D01*
X90727Y42859D01*
X90814Y42810D01*
X90902Y42764D01*
X90992Y42722D01*
X91083Y42684D01*
X91176Y42649D01*
X91271Y42618D01*
X91366Y42591D01*
X91462Y42567D01*
X91560Y42548D01*
X91658Y42532D01*
X91756Y42520D01*
X91855Y42512D01*
X91954Y42508D01*
X92054Y42508D01*
X92153Y42512D01*
X92252Y42520D01*
X92350Y42532D01*
X92448Y42548D01*
X92546Y42567D01*
X92642Y42591D01*
X92737Y42618D01*
X92832Y42649D01*
X92925Y42684D01*
X93016Y42722D01*
X93106Y42764D01*
X93194Y42810D01*
X93281Y42859D01*
X93365Y42912D01*
X93447Y42967D01*
X93527Y43026D01*
X93604Y43088D01*
X93679Y43154D01*
X93751Y43222D01*
X93821Y43292D01*
X93887Y43366D01*
X93951Y43442D01*
X94012Y43521D01*
X94069Y43602D01*
X94123Y43685D01*
X94174Y43770D01*
X94221Y43858D01*
X94265Y43947D01*
X94305Y44037D01*
X94342Y44130D01*
X94375Y44223D01*
X94404Y44318D01*
X94429Y44414D01*
X94451Y44511D01*
X94468Y44609D01*
X94482Y44707D01*
X94492Y44806D01*
X94498Y44905D01*
X94500Y45004D01*
X94499Y45004D02*
X94499Y51492D01*
X98808Y42508D02*
X101304Y42508D01*
X101403Y42510D01*
X101502Y42516D01*
X101601Y42526D01*
X101699Y42540D01*
X101797Y42557D01*
X101894Y42579D01*
X101990Y42604D01*
X102085Y42633D01*
X102178Y42666D01*
X102271Y42703D01*
X102361Y42743D01*
X102450Y42787D01*
X102538Y42834D01*
X102623Y42885D01*
X102706Y42939D01*
X102787Y42996D01*
X102866Y43057D01*
X102942Y43121D01*
X103016Y43187D01*
X103086Y43257D01*
X103154Y43329D01*
X103220Y43404D01*
X103282Y43481D01*
X103341Y43561D01*
X103396Y43643D01*
X103449Y43727D01*
X103498Y43814D01*
X103544Y43902D01*
X103586Y43992D01*
X103624Y44083D01*
X103659Y44176D01*
X103690Y44271D01*
X103717Y44366D01*
X103741Y44462D01*
X103760Y44560D01*
X103776Y44658D01*
X103788Y44756D01*
X103796Y44855D01*
X103800Y44954D01*
X103800Y45054D01*
X103796Y45153D01*
X103788Y45252D01*
X103776Y45350D01*
X103760Y45448D01*
X103741Y45546D01*
X103717Y45642D01*
X103690Y45737D01*
X103659Y45832D01*
X103624Y45925D01*
X103586Y46016D01*
X103544Y46106D01*
X103498Y46194D01*
X103449Y46281D01*
X103396Y46365D01*
X103341Y46447D01*
X103282Y46527D01*
X103220Y46604D01*
X103154Y46679D01*
X103086Y46751D01*
X103016Y46821D01*
X102942Y46887D01*
X102866Y46951D01*
X102787Y47012D01*
X102706Y47069D01*
X102623Y47123D01*
X102538Y47174D01*
X102450Y47221D01*
X102361Y47265D01*
X102271Y47305D01*
X102178Y47342D01*
X102085Y47375D01*
X101990Y47404D01*
X101894Y47429D01*
X101797Y47451D01*
X101699Y47468D01*
X101601Y47482D01*
X101502Y47492D01*
X101403Y47498D01*
X101304Y47500D01*
X101803Y51492D02*
X98808Y51492D01*
X101803Y51492D02*
X101891Y51490D01*
X101979Y51484D01*
X102067Y51474D01*
X102154Y51461D01*
X102241Y51443D01*
X102327Y51422D01*
X102411Y51397D01*
X102495Y51368D01*
X102577Y51336D01*
X102658Y51300D01*
X102737Y51260D01*
X102814Y51217D01*
X102889Y51171D01*
X102962Y51121D01*
X103033Y51068D01*
X103101Y51012D01*
X103167Y50953D01*
X103230Y50892D01*
X103290Y50827D01*
X103348Y50760D01*
X103402Y50691D01*
X103453Y50619D01*
X103501Y50545D01*
X103546Y50468D01*
X103587Y50390D01*
X103625Y50311D01*
X103659Y50229D01*
X103690Y50146D01*
X103717Y50062D01*
X103740Y49977D01*
X103760Y49891D01*
X103775Y49804D01*
X103787Y49716D01*
X103795Y49628D01*
X103799Y49540D01*
X103799Y49452D01*
X103795Y49364D01*
X103787Y49276D01*
X103775Y49188D01*
X103760Y49101D01*
X103740Y49015D01*
X103717Y48930D01*
X103690Y48846D01*
X103659Y48763D01*
X103625Y48681D01*
X103587Y48602D01*
X103546Y48524D01*
X103501Y48447D01*
X103453Y48373D01*
X103402Y48301D01*
X103348Y48232D01*
X103290Y48165D01*
X103230Y48100D01*
X103167Y48039D01*
X103101Y47980D01*
X103033Y47924D01*
X102962Y47871D01*
X102889Y47821D01*
X102814Y47775D01*
X102737Y47732D01*
X102658Y47692D01*
X102577Y47656D01*
X102495Y47624D01*
X102411Y47595D01*
X102327Y47570D01*
X102241Y47549D01*
X102154Y47531D01*
X102067Y47518D01*
X101979Y47508D01*
X101891Y47502D01*
X101803Y47500D01*
X101803Y47499D02*
X99806Y47499D01*
D12*
X145840Y166490D02*
X166160Y166490D01*
X166160Y199510D02*
X145840Y199510D01*
D13*
X140185Y199278D02*
X140185Y203257D01*
X140185Y199278D02*
X142506Y196293D01*
X140185Y199278D02*
X137863Y196293D01*
X140185Y199278D02*
X143832Y200604D01*
X140185Y199278D02*
X136537Y200604D01*
D12*
X149904Y167760D02*
X162096Y167760D01*
X162096Y198240D01*
X159048Y198240D01*
X152952Y198240D01*
X149904Y198240D01*
X149904Y167760D01*
X152952Y198240D02*
X152954Y198131D01*
X152960Y198023D01*
X152969Y197914D01*
X152983Y197806D01*
X153000Y197699D01*
X153022Y197592D01*
X153047Y197486D01*
X153075Y197381D01*
X153108Y197277D01*
X153144Y197175D01*
X153184Y197074D01*
X153227Y196974D01*
X153274Y196876D01*
X153325Y196779D01*
X153379Y196685D01*
X153436Y196592D01*
X153496Y196502D01*
X153560Y196413D01*
X153627Y196327D01*
X153696Y196244D01*
X153769Y196163D01*
X153845Y196085D01*
X153923Y196009D01*
X154004Y195936D01*
X154087Y195867D01*
X154173Y195800D01*
X154262Y195736D01*
X154352Y195676D01*
X154445Y195619D01*
X154539Y195565D01*
X154636Y195514D01*
X154734Y195467D01*
X154834Y195424D01*
X154935Y195384D01*
X155037Y195348D01*
X155141Y195315D01*
X155246Y195287D01*
X155352Y195262D01*
X155459Y195240D01*
X155566Y195223D01*
X155674Y195209D01*
X155783Y195200D01*
X155891Y195194D01*
X156000Y195192D01*
X156109Y195194D01*
X156217Y195200D01*
X156326Y195209D01*
X156434Y195223D01*
X156541Y195240D01*
X156648Y195262D01*
X156754Y195287D01*
X156859Y195315D01*
X156963Y195348D01*
X157065Y195384D01*
X157166Y195424D01*
X157266Y195467D01*
X157364Y195514D01*
X157461Y195565D01*
X157555Y195619D01*
X157648Y195676D01*
X157738Y195736D01*
X157827Y195800D01*
X157913Y195867D01*
X157996Y195936D01*
X158077Y196009D01*
X158155Y196085D01*
X158231Y196163D01*
X158304Y196244D01*
X158373Y196327D01*
X158440Y196413D01*
X158504Y196502D01*
X158564Y196592D01*
X158621Y196685D01*
X158675Y196779D01*
X158726Y196876D01*
X158773Y196974D01*
X158816Y197074D01*
X158856Y197175D01*
X158892Y197277D01*
X158925Y197381D01*
X158953Y197486D01*
X158978Y197592D01*
X159000Y197699D01*
X159017Y197806D01*
X159031Y197914D01*
X159040Y198023D01*
X159046Y198131D01*
X159048Y198240D01*
D11*
X142508Y206004D02*
X142508Y212492D01*
X142508Y206004D02*
X142510Y205905D01*
X142516Y205806D01*
X142526Y205707D01*
X142540Y205609D01*
X142557Y205511D01*
X142579Y205414D01*
X142604Y205318D01*
X142633Y205223D01*
X142666Y205130D01*
X142703Y205037D01*
X142743Y204947D01*
X142787Y204858D01*
X142834Y204770D01*
X142885Y204685D01*
X142939Y204602D01*
X142996Y204521D01*
X143057Y204442D01*
X143121Y204366D01*
X143187Y204292D01*
X143257Y204222D01*
X143329Y204154D01*
X143404Y204088D01*
X143481Y204026D01*
X143561Y203967D01*
X143643Y203912D01*
X143727Y203859D01*
X143814Y203810D01*
X143902Y203764D01*
X143992Y203722D01*
X144083Y203684D01*
X144176Y203649D01*
X144271Y203618D01*
X144366Y203591D01*
X144462Y203567D01*
X144560Y203548D01*
X144658Y203532D01*
X144756Y203520D01*
X144855Y203512D01*
X144954Y203508D01*
X145054Y203508D01*
X145153Y203512D01*
X145252Y203520D01*
X145350Y203532D01*
X145448Y203548D01*
X145546Y203567D01*
X145642Y203591D01*
X145737Y203618D01*
X145832Y203649D01*
X145925Y203684D01*
X146016Y203722D01*
X146106Y203764D01*
X146194Y203810D01*
X146281Y203859D01*
X146365Y203912D01*
X146447Y203967D01*
X146527Y204026D01*
X146604Y204088D01*
X146679Y204154D01*
X146751Y204222D01*
X146821Y204292D01*
X146887Y204366D01*
X146951Y204442D01*
X147012Y204521D01*
X147069Y204602D01*
X147123Y204685D01*
X147174Y204770D01*
X147221Y204858D01*
X147265Y204947D01*
X147305Y205037D01*
X147342Y205130D01*
X147375Y205223D01*
X147404Y205318D01*
X147429Y205414D01*
X147451Y205511D01*
X147468Y205609D01*
X147482Y205707D01*
X147492Y205806D01*
X147498Y205905D01*
X147500Y206004D01*
X147499Y206004D02*
X147499Y212492D01*
X154553Y212492D02*
X154646Y212490D01*
X154738Y212484D01*
X154831Y212475D01*
X154923Y212461D01*
X155014Y212444D01*
X155104Y212423D01*
X155194Y212399D01*
X155282Y212370D01*
X155369Y212338D01*
X155455Y212303D01*
X155539Y212264D01*
X155622Y212221D01*
X155703Y212175D01*
X155781Y212126D01*
X155858Y212074D01*
X155933Y212018D01*
X156005Y211960D01*
X156074Y211898D01*
X156141Y211834D01*
X156205Y211767D01*
X156267Y211698D01*
X156325Y211626D01*
X156381Y211551D01*
X156433Y211474D01*
X156482Y211396D01*
X156528Y211315D01*
X156571Y211232D01*
X156610Y211148D01*
X156645Y211062D01*
X156677Y210975D01*
X156706Y210887D01*
X156730Y210797D01*
X156751Y210707D01*
X156768Y210616D01*
X156782Y210524D01*
X156791Y210431D01*
X156797Y210339D01*
X156799Y210246D01*
X154553Y212493D02*
X154446Y212491D01*
X154340Y212485D01*
X154233Y212475D01*
X154128Y212461D01*
X154022Y212444D01*
X153918Y212422D01*
X153814Y212397D01*
X153711Y212368D01*
X153610Y212335D01*
X153510Y212298D01*
X153411Y212257D01*
X153314Y212213D01*
X153218Y212166D01*
X153124Y212115D01*
X153033Y212060D01*
X152943Y212002D01*
X152856Y211941D01*
X152770Y211877D01*
X152688Y211809D01*
X152608Y211739D01*
X152530Y211665D01*
X152455Y211589D01*
X152383Y211510D01*
X152315Y211429D01*
X152249Y211345D01*
X152186Y211258D01*
X152127Y211170D01*
X152070Y211079D01*
X152018Y210986D01*
X151968Y210891D01*
X151923Y210795D01*
X151881Y210697D01*
X151842Y210597D01*
X151807Y210496D01*
X156051Y208499D02*
X156121Y208568D01*
X156187Y208639D01*
X156251Y208713D01*
X156311Y208790D01*
X156369Y208869D01*
X156423Y208950D01*
X156473Y209034D01*
X156521Y209119D01*
X156565Y209207D01*
X156605Y209296D01*
X156642Y209386D01*
X156675Y209478D01*
X156704Y209571D01*
X156729Y209666D01*
X156751Y209761D01*
X156768Y209857D01*
X156782Y209954D01*
X156792Y210051D01*
X156798Y210148D01*
X156800Y210246D01*
X156050Y208499D02*
X151808Y203508D01*
X156799Y203508D01*
X129842Y149314D02*
X129842Y147318D01*
X129840Y147231D01*
X129834Y147144D01*
X129825Y147057D01*
X129812Y146971D01*
X129795Y146886D01*
X129774Y146801D01*
X129750Y146718D01*
X129722Y146635D01*
X129690Y146554D01*
X129655Y146474D01*
X129616Y146396D01*
X129575Y146320D01*
X129529Y146246D01*
X129481Y146173D01*
X129430Y146103D01*
X129375Y146035D01*
X129318Y145970D01*
X129257Y145907D01*
X129194Y145846D01*
X129129Y145789D01*
X129061Y145734D01*
X128991Y145683D01*
X128918Y145635D01*
X128844Y145589D01*
X128768Y145548D01*
X128690Y145509D01*
X128610Y145474D01*
X128529Y145442D01*
X128446Y145414D01*
X128363Y145390D01*
X128278Y145369D01*
X128193Y145352D01*
X128107Y145339D01*
X128020Y145330D01*
X127933Y145324D01*
X127846Y145322D01*
X127846Y145321D02*
X122854Y145321D01*
X122767Y145323D01*
X122680Y145329D01*
X122593Y145338D01*
X122507Y145351D01*
X122422Y145368D01*
X122337Y145389D01*
X122254Y145413D01*
X122171Y145441D01*
X122090Y145473D01*
X122010Y145508D01*
X121932Y145547D01*
X121856Y145589D01*
X121781Y145634D01*
X121709Y145682D01*
X121638Y145734D01*
X121570Y145788D01*
X121505Y145846D01*
X121442Y145906D01*
X121382Y145969D01*
X121324Y146034D01*
X121270Y146102D01*
X121218Y146173D01*
X121170Y146245D01*
X121125Y146319D01*
X121083Y146396D01*
X121044Y146474D01*
X121009Y146554D01*
X120977Y146635D01*
X120949Y146717D01*
X120925Y146801D01*
X120904Y146886D01*
X120887Y146971D01*
X120874Y147057D01*
X120865Y147144D01*
X120859Y147231D01*
X120857Y147318D01*
X120858Y147318D02*
X120858Y149314D01*
X120858Y154847D02*
X127846Y152851D01*
X127846Y157842D01*
X125849Y156345D02*
X129842Y156345D01*
X122854Y161851D02*
X120858Y164346D01*
X129842Y164346D01*
X129842Y161851D02*
X129842Y166842D01*
X190842Y136314D02*
X190842Y134318D01*
X190840Y134231D01*
X190834Y134144D01*
X190825Y134057D01*
X190812Y133971D01*
X190795Y133886D01*
X190774Y133801D01*
X190750Y133718D01*
X190722Y133635D01*
X190690Y133554D01*
X190655Y133474D01*
X190616Y133396D01*
X190575Y133320D01*
X190529Y133246D01*
X190481Y133173D01*
X190430Y133103D01*
X190375Y133035D01*
X190318Y132970D01*
X190257Y132907D01*
X190194Y132846D01*
X190129Y132789D01*
X190061Y132734D01*
X189991Y132683D01*
X189918Y132635D01*
X189844Y132589D01*
X189768Y132548D01*
X189690Y132509D01*
X189610Y132474D01*
X189529Y132442D01*
X189446Y132414D01*
X189363Y132390D01*
X189278Y132369D01*
X189193Y132352D01*
X189107Y132339D01*
X189020Y132330D01*
X188933Y132324D01*
X188846Y132322D01*
X188846Y132321D02*
X183854Y132321D01*
X183767Y132323D01*
X183680Y132329D01*
X183593Y132338D01*
X183507Y132351D01*
X183422Y132368D01*
X183337Y132389D01*
X183254Y132413D01*
X183171Y132441D01*
X183090Y132473D01*
X183010Y132508D01*
X182932Y132547D01*
X182856Y132589D01*
X182781Y132634D01*
X182709Y132682D01*
X182638Y132734D01*
X182570Y132788D01*
X182505Y132846D01*
X182442Y132906D01*
X182382Y132969D01*
X182324Y133034D01*
X182270Y133102D01*
X182218Y133173D01*
X182170Y133245D01*
X182125Y133319D01*
X182083Y133396D01*
X182044Y133474D01*
X182009Y133554D01*
X181977Y133635D01*
X181949Y133717D01*
X181925Y133801D01*
X181904Y133886D01*
X181887Y133971D01*
X181874Y134057D01*
X181865Y134144D01*
X181859Y134231D01*
X181857Y134318D01*
X181858Y134318D02*
X181858Y136314D01*
X183854Y139851D02*
X181858Y142346D01*
X190842Y142346D01*
X190842Y139851D02*
X190842Y144842D01*
X160314Y247158D02*
X158318Y247158D01*
X158231Y247160D01*
X158144Y247166D01*
X158057Y247175D01*
X157971Y247188D01*
X157886Y247205D01*
X157801Y247226D01*
X157718Y247250D01*
X157635Y247278D01*
X157554Y247310D01*
X157474Y247345D01*
X157396Y247384D01*
X157320Y247425D01*
X157246Y247471D01*
X157173Y247519D01*
X157103Y247570D01*
X157035Y247625D01*
X156970Y247682D01*
X156907Y247743D01*
X156846Y247806D01*
X156789Y247871D01*
X156734Y247939D01*
X156683Y248009D01*
X156635Y248082D01*
X156589Y248156D01*
X156548Y248232D01*
X156509Y248310D01*
X156474Y248390D01*
X156442Y248471D01*
X156414Y248554D01*
X156390Y248637D01*
X156369Y248722D01*
X156352Y248807D01*
X156339Y248893D01*
X156330Y248980D01*
X156324Y249067D01*
X156322Y249154D01*
X156321Y249154D02*
X156321Y254146D01*
X156322Y254146D02*
X156324Y254233D01*
X156330Y254320D01*
X156339Y254407D01*
X156352Y254493D01*
X156369Y254578D01*
X156390Y254663D01*
X156414Y254746D01*
X156442Y254829D01*
X156474Y254910D01*
X156509Y254990D01*
X156548Y255068D01*
X156589Y255144D01*
X156635Y255218D01*
X156683Y255291D01*
X156734Y255361D01*
X156789Y255429D01*
X156846Y255494D01*
X156907Y255557D01*
X156970Y255618D01*
X157035Y255675D01*
X157103Y255730D01*
X157173Y255781D01*
X157246Y255829D01*
X157320Y255875D01*
X157396Y255916D01*
X157474Y255955D01*
X157554Y255990D01*
X157635Y256022D01*
X157718Y256050D01*
X157801Y256074D01*
X157886Y256095D01*
X157971Y256112D01*
X158057Y256125D01*
X158144Y256134D01*
X158231Y256140D01*
X158318Y256142D01*
X160314Y256142D01*
X165847Y256142D02*
X163851Y249154D01*
X168842Y249154D01*
X167345Y251151D02*
X167345Y247158D01*
X172851Y249154D02*
X174847Y256142D01*
X172851Y249154D02*
X177842Y249154D01*
X176345Y251151D02*
X176345Y247158D01*
D14*
X101776Y209604D02*
X101776Y201476D01*
X101776Y209604D02*
X108364Y209604D01*
X130224Y209604D02*
X130224Y201476D01*
X130224Y209604D02*
X123636Y209604D01*
D11*
X107505Y226006D02*
X107505Y229999D01*
X107507Y230098D01*
X107513Y230197D01*
X107523Y230296D01*
X107537Y230394D01*
X107554Y230492D01*
X107576Y230589D01*
X107601Y230685D01*
X107630Y230780D01*
X107663Y230873D01*
X107700Y230966D01*
X107740Y231056D01*
X107784Y231145D01*
X107831Y231233D01*
X107882Y231318D01*
X107936Y231401D01*
X107993Y231482D01*
X108054Y231561D01*
X108118Y231637D01*
X108184Y231711D01*
X108254Y231781D01*
X108326Y231849D01*
X108401Y231915D01*
X108478Y231977D01*
X108558Y232036D01*
X108640Y232091D01*
X108724Y232144D01*
X108811Y232193D01*
X108899Y232239D01*
X108989Y232281D01*
X109080Y232319D01*
X109173Y232354D01*
X109268Y232385D01*
X109363Y232412D01*
X109459Y232436D01*
X109557Y232455D01*
X109655Y232471D01*
X109753Y232483D01*
X109852Y232491D01*
X109951Y232495D01*
X110051Y232495D01*
X110150Y232491D01*
X110249Y232483D01*
X110347Y232471D01*
X110445Y232455D01*
X110543Y232436D01*
X110639Y232412D01*
X110734Y232385D01*
X110829Y232354D01*
X110922Y232319D01*
X111013Y232281D01*
X111103Y232239D01*
X111191Y232193D01*
X111278Y232144D01*
X111362Y232091D01*
X111444Y232036D01*
X111524Y231977D01*
X111601Y231915D01*
X111676Y231849D01*
X111748Y231781D01*
X111818Y231711D01*
X111884Y231637D01*
X111948Y231561D01*
X112009Y231482D01*
X112066Y231401D01*
X112120Y231318D01*
X112171Y231233D01*
X112218Y231145D01*
X112262Y231056D01*
X112302Y230966D01*
X112339Y230873D01*
X112372Y230780D01*
X112401Y230685D01*
X112426Y230589D01*
X112448Y230492D01*
X112465Y230394D01*
X112479Y230296D01*
X112489Y230197D01*
X112495Y230098D01*
X112497Y229999D01*
X112496Y229999D02*
X112496Y226006D01*
X112497Y226006D02*
X112495Y225907D01*
X112489Y225808D01*
X112479Y225709D01*
X112465Y225611D01*
X112448Y225513D01*
X112426Y225416D01*
X112401Y225320D01*
X112372Y225225D01*
X112339Y225132D01*
X112302Y225039D01*
X112262Y224949D01*
X112218Y224860D01*
X112171Y224772D01*
X112120Y224687D01*
X112066Y224604D01*
X112009Y224523D01*
X111948Y224444D01*
X111884Y224368D01*
X111818Y224294D01*
X111748Y224224D01*
X111676Y224156D01*
X111601Y224090D01*
X111524Y224028D01*
X111444Y223969D01*
X111362Y223914D01*
X111278Y223861D01*
X111191Y223812D01*
X111103Y223766D01*
X111013Y223724D01*
X110922Y223686D01*
X110829Y223651D01*
X110734Y223620D01*
X110639Y223593D01*
X110543Y223569D01*
X110445Y223550D01*
X110347Y223534D01*
X110249Y223522D01*
X110150Y223514D01*
X110051Y223510D01*
X109951Y223510D01*
X109852Y223514D01*
X109753Y223522D01*
X109655Y223534D01*
X109557Y223550D01*
X109459Y223569D01*
X109363Y223593D01*
X109268Y223620D01*
X109173Y223651D01*
X109080Y223686D01*
X108989Y223724D01*
X108899Y223766D01*
X108811Y223812D01*
X108724Y223861D01*
X108640Y223914D01*
X108558Y223969D01*
X108478Y224028D01*
X108401Y224090D01*
X108326Y224156D01*
X108254Y224224D01*
X108184Y224294D01*
X108118Y224368D01*
X108054Y224444D01*
X107993Y224523D01*
X107936Y224604D01*
X107882Y224687D01*
X107831Y224772D01*
X107784Y224860D01*
X107740Y224949D01*
X107700Y225039D01*
X107663Y225132D01*
X107630Y225225D01*
X107601Y225320D01*
X107576Y225416D01*
X107554Y225513D01*
X107537Y225611D01*
X107523Y225709D01*
X107513Y225808D01*
X107507Y225907D01*
X107505Y226006D01*
X111498Y225507D02*
X113495Y223511D01*
X121200Y230249D02*
X121198Y230342D01*
X121192Y230434D01*
X121183Y230527D01*
X121169Y230619D01*
X121152Y230710D01*
X121131Y230800D01*
X121107Y230890D01*
X121078Y230978D01*
X121046Y231065D01*
X121011Y231151D01*
X120972Y231235D01*
X120929Y231318D01*
X120883Y231399D01*
X120834Y231477D01*
X120782Y231554D01*
X120726Y231629D01*
X120668Y231701D01*
X120606Y231770D01*
X120542Y231837D01*
X120475Y231901D01*
X120406Y231963D01*
X120334Y232021D01*
X120259Y232077D01*
X120182Y232129D01*
X120104Y232178D01*
X120023Y232224D01*
X119940Y232267D01*
X119856Y232306D01*
X119770Y232341D01*
X119683Y232373D01*
X119595Y232402D01*
X119505Y232426D01*
X119415Y232447D01*
X119324Y232464D01*
X119232Y232478D01*
X119139Y232487D01*
X119047Y232493D01*
X118954Y232495D01*
X118847Y232493D01*
X118741Y232487D01*
X118634Y232477D01*
X118529Y232463D01*
X118423Y232446D01*
X118319Y232424D01*
X118215Y232399D01*
X118112Y232370D01*
X118011Y232337D01*
X117911Y232300D01*
X117812Y232259D01*
X117715Y232215D01*
X117619Y232168D01*
X117525Y232117D01*
X117434Y232062D01*
X117344Y232004D01*
X117257Y231943D01*
X117171Y231879D01*
X117089Y231811D01*
X117009Y231741D01*
X116931Y231667D01*
X116856Y231591D01*
X116784Y231512D01*
X116716Y231431D01*
X116650Y231347D01*
X116587Y231260D01*
X116528Y231172D01*
X116471Y231081D01*
X116419Y230988D01*
X116369Y230893D01*
X116324Y230797D01*
X116282Y230699D01*
X116243Y230599D01*
X116208Y230498D01*
X120452Y228502D02*
X120522Y228571D01*
X120588Y228642D01*
X120652Y228716D01*
X120712Y228793D01*
X120770Y228872D01*
X120824Y228953D01*
X120874Y229037D01*
X120922Y229122D01*
X120966Y229210D01*
X121006Y229299D01*
X121043Y229389D01*
X121076Y229481D01*
X121105Y229574D01*
X121130Y229669D01*
X121152Y229764D01*
X121169Y229860D01*
X121183Y229957D01*
X121193Y230054D01*
X121199Y230151D01*
X121201Y230249D01*
X120451Y228502D02*
X116209Y223511D01*
X121200Y223511D01*
D15*
X4000Y202500D02*
X4000Y157500D01*
X39000Y220000D02*
X79000Y220000D01*
X79000Y211500D01*
X54000Y211500D01*
X54000Y197500D01*
X54000Y162500D02*
X54000Y148500D01*
X79000Y148500D01*
X79000Y140000D01*
X39000Y140000D01*
D16*
X89231Y203749D02*
X89231Y212046D01*
X93380Y207898D02*
X85082Y207898D01*
X89231Y154896D02*
X89231Y146599D01*
D11*
X55764Y223408D02*
X53768Y223408D01*
X53681Y223410D01*
X53594Y223416D01*
X53507Y223425D01*
X53421Y223438D01*
X53336Y223455D01*
X53251Y223476D01*
X53168Y223500D01*
X53085Y223528D01*
X53004Y223560D01*
X52924Y223595D01*
X52846Y223634D01*
X52770Y223675D01*
X52696Y223721D01*
X52623Y223769D01*
X52553Y223820D01*
X52485Y223875D01*
X52420Y223932D01*
X52357Y223993D01*
X52296Y224056D01*
X52239Y224121D01*
X52184Y224189D01*
X52133Y224259D01*
X52085Y224332D01*
X52039Y224406D01*
X51998Y224482D01*
X51959Y224560D01*
X51924Y224640D01*
X51892Y224721D01*
X51864Y224804D01*
X51840Y224887D01*
X51819Y224972D01*
X51802Y225057D01*
X51789Y225143D01*
X51780Y225230D01*
X51774Y225317D01*
X51772Y225404D01*
X51771Y225404D02*
X51771Y230396D01*
X51772Y230396D02*
X51774Y230483D01*
X51780Y230570D01*
X51789Y230657D01*
X51802Y230743D01*
X51819Y230828D01*
X51840Y230913D01*
X51864Y230996D01*
X51892Y231079D01*
X51924Y231160D01*
X51959Y231240D01*
X51998Y231318D01*
X52039Y231394D01*
X52085Y231468D01*
X52133Y231541D01*
X52184Y231611D01*
X52239Y231679D01*
X52296Y231744D01*
X52357Y231807D01*
X52420Y231868D01*
X52485Y231925D01*
X52553Y231980D01*
X52623Y232031D01*
X52696Y232079D01*
X52770Y232125D01*
X52846Y232166D01*
X52924Y232205D01*
X53004Y232240D01*
X53085Y232272D01*
X53168Y232300D01*
X53251Y232324D01*
X53336Y232345D01*
X53421Y232362D01*
X53507Y232375D01*
X53594Y232384D01*
X53681Y232390D01*
X53768Y232392D01*
X55764Y232392D01*
X59601Y232392D02*
X59601Y223408D01*
X64592Y223408D02*
X59601Y232392D01*
X64592Y232392D02*
X64592Y223408D01*
X68901Y230396D02*
X71396Y232392D01*
X71396Y223408D01*
X68901Y223408D02*
X73892Y223408D01*
X11826Y98403D02*
X4838Y98403D01*
X11826Y98402D02*
X11913Y98400D01*
X12000Y98394D01*
X12087Y98385D01*
X12173Y98372D01*
X12258Y98355D01*
X12343Y98334D01*
X12426Y98310D01*
X12509Y98282D01*
X12590Y98250D01*
X12670Y98215D01*
X12748Y98176D01*
X12824Y98135D01*
X12898Y98089D01*
X12971Y98041D01*
X13041Y97990D01*
X13109Y97935D01*
X13174Y97878D01*
X13237Y97817D01*
X13298Y97754D01*
X13355Y97689D01*
X13410Y97621D01*
X13461Y97551D01*
X13509Y97478D01*
X13555Y97404D01*
X13596Y97328D01*
X13635Y97250D01*
X13670Y97170D01*
X13702Y97089D01*
X13730Y97006D01*
X13754Y96923D01*
X13775Y96838D01*
X13792Y96753D01*
X13805Y96667D01*
X13814Y96580D01*
X13820Y96493D01*
X13822Y96406D01*
X13822Y95408D01*
X6834Y102670D02*
X4838Y105166D01*
X13822Y105166D01*
X13822Y107661D02*
X13822Y102670D01*
X99318Y142158D02*
X101314Y142158D01*
X99318Y142158D02*
X99231Y142160D01*
X99144Y142166D01*
X99057Y142175D01*
X98971Y142188D01*
X98886Y142205D01*
X98801Y142226D01*
X98718Y142250D01*
X98635Y142278D01*
X98554Y142310D01*
X98474Y142345D01*
X98396Y142384D01*
X98320Y142425D01*
X98246Y142471D01*
X98173Y142519D01*
X98103Y142570D01*
X98035Y142625D01*
X97970Y142682D01*
X97907Y142743D01*
X97846Y142806D01*
X97789Y142871D01*
X97734Y142939D01*
X97683Y143009D01*
X97635Y143082D01*
X97589Y143156D01*
X97548Y143232D01*
X97509Y143310D01*
X97474Y143390D01*
X97442Y143471D01*
X97414Y143554D01*
X97390Y143637D01*
X97369Y143722D01*
X97352Y143807D01*
X97339Y143893D01*
X97330Y143980D01*
X97324Y144067D01*
X97322Y144154D01*
X97321Y144154D02*
X97321Y149146D01*
X97322Y149146D02*
X97324Y149233D01*
X97330Y149320D01*
X97339Y149407D01*
X97352Y149493D01*
X97369Y149578D01*
X97390Y149663D01*
X97414Y149746D01*
X97442Y149829D01*
X97474Y149910D01*
X97509Y149990D01*
X97548Y150068D01*
X97589Y150144D01*
X97635Y150218D01*
X97683Y150291D01*
X97734Y150361D01*
X97789Y150429D01*
X97846Y150494D01*
X97907Y150557D01*
X97970Y150618D01*
X98035Y150675D01*
X98103Y150730D01*
X98173Y150781D01*
X98246Y150829D01*
X98320Y150875D01*
X98396Y150916D01*
X98474Y150955D01*
X98554Y150990D01*
X98635Y151022D01*
X98718Y151050D01*
X98801Y151074D01*
X98886Y151095D01*
X98971Y151112D01*
X99057Y151125D01*
X99144Y151134D01*
X99231Y151140D01*
X99318Y151142D01*
X101314Y151142D01*
X107596Y151142D02*
X107689Y151140D01*
X107781Y151134D01*
X107874Y151125D01*
X107966Y151111D01*
X108057Y151094D01*
X108147Y151073D01*
X108237Y151049D01*
X108325Y151020D01*
X108412Y150988D01*
X108498Y150953D01*
X108582Y150914D01*
X108665Y150871D01*
X108746Y150825D01*
X108824Y150776D01*
X108901Y150724D01*
X108976Y150668D01*
X109048Y150610D01*
X109117Y150548D01*
X109184Y150484D01*
X109248Y150417D01*
X109310Y150348D01*
X109368Y150276D01*
X109424Y150201D01*
X109476Y150124D01*
X109525Y150046D01*
X109571Y149965D01*
X109614Y149882D01*
X109653Y149798D01*
X109688Y149712D01*
X109720Y149625D01*
X109749Y149537D01*
X109773Y149447D01*
X109794Y149357D01*
X109811Y149266D01*
X109825Y149174D01*
X109834Y149081D01*
X109840Y148989D01*
X109842Y148896D01*
X107596Y151143D02*
X107489Y151141D01*
X107383Y151135D01*
X107276Y151125D01*
X107171Y151111D01*
X107065Y151094D01*
X106961Y151072D01*
X106857Y151047D01*
X106754Y151018D01*
X106653Y150985D01*
X106553Y150948D01*
X106454Y150907D01*
X106357Y150863D01*
X106261Y150816D01*
X106167Y150765D01*
X106076Y150710D01*
X105986Y150652D01*
X105899Y150591D01*
X105813Y150527D01*
X105731Y150459D01*
X105651Y150389D01*
X105573Y150315D01*
X105498Y150239D01*
X105426Y150160D01*
X105358Y150079D01*
X105292Y149995D01*
X105229Y149908D01*
X105170Y149820D01*
X105113Y149729D01*
X105061Y149636D01*
X105011Y149541D01*
X104966Y149445D01*
X104924Y149347D01*
X104885Y149247D01*
X104850Y149146D01*
X109094Y147149D02*
X109164Y147218D01*
X109230Y147289D01*
X109294Y147363D01*
X109354Y147440D01*
X109412Y147519D01*
X109466Y147600D01*
X109516Y147684D01*
X109564Y147769D01*
X109608Y147857D01*
X109648Y147946D01*
X109685Y148036D01*
X109718Y148128D01*
X109747Y148221D01*
X109772Y148316D01*
X109794Y148411D01*
X109811Y148507D01*
X109825Y148604D01*
X109835Y148701D01*
X109841Y148798D01*
X109843Y148896D01*
X109093Y147149D02*
X104851Y142158D01*
X109842Y142158D01*
X277208Y121917D02*
X286192Y121917D01*
X277208Y121917D02*
X277208Y124412D01*
X277210Y124511D01*
X277216Y124610D01*
X277226Y124709D01*
X277240Y124807D01*
X277257Y124905D01*
X277279Y125002D01*
X277304Y125098D01*
X277333Y125193D01*
X277366Y125286D01*
X277403Y125379D01*
X277443Y125469D01*
X277487Y125558D01*
X277534Y125646D01*
X277585Y125731D01*
X277639Y125814D01*
X277696Y125895D01*
X277757Y125974D01*
X277821Y126050D01*
X277887Y126124D01*
X277957Y126194D01*
X278029Y126262D01*
X278104Y126328D01*
X278181Y126390D01*
X278261Y126449D01*
X278343Y126504D01*
X278427Y126557D01*
X278514Y126606D01*
X278602Y126652D01*
X278692Y126694D01*
X278783Y126732D01*
X278876Y126767D01*
X278971Y126798D01*
X279066Y126825D01*
X279162Y126849D01*
X279260Y126868D01*
X279358Y126884D01*
X279456Y126896D01*
X279555Y126904D01*
X279654Y126908D01*
X279754Y126908D01*
X279853Y126904D01*
X279952Y126896D01*
X280050Y126884D01*
X280148Y126868D01*
X280246Y126849D01*
X280342Y126825D01*
X280437Y126798D01*
X280532Y126767D01*
X280625Y126732D01*
X280716Y126694D01*
X280806Y126652D01*
X280894Y126606D01*
X280981Y126557D01*
X281065Y126504D01*
X281147Y126449D01*
X281227Y126390D01*
X281304Y126328D01*
X281379Y126262D01*
X281451Y126194D01*
X281521Y126124D01*
X281587Y126050D01*
X281651Y125974D01*
X281712Y125895D01*
X281769Y125814D01*
X281823Y125731D01*
X281874Y125646D01*
X281921Y125558D01*
X281965Y125469D01*
X282005Y125379D01*
X282042Y125286D01*
X282075Y125193D01*
X282104Y125098D01*
X282129Y125002D01*
X282151Y124905D01*
X282168Y124807D01*
X282182Y124709D01*
X282192Y124610D01*
X282198Y124511D01*
X282200Y124412D01*
X282199Y124412D02*
X282199Y121917D01*
X282199Y124911D02*
X286192Y126908D01*
X279204Y130851D02*
X277208Y133346D01*
X286192Y133346D01*
X286192Y130851D02*
X286192Y135842D01*
M02*
