G04 EAGLE Gerber RS-274X export*
G75*
%MOMM*%
%FSLAX34Y34*%
%LPD*%
%INSolderpaste Top*%
%IPPOS*%
%AMOC8*
5,1,8,0,0,1.08239X$1,22.5*%
G01*
%ADD10R,0.700000X1.000000*%
%ADD11R,1.550000X0.600000*%
%ADD12R,1.100000X1.000000*%
%ADD13R,1.000000X0.500000*%
%ADD14R,1.100000X0.600000*%
%ADD15R,1.000000X1.100000*%
%ADD16R,1.000000X1.400000*%
%ADD17R,4.600000X1.000000*%
%ADD18R,3.400000X1.600000*%
%ADD19R,1.500000X1.300000*%


D10*
X235000Y143000D03*
X225500Y119000D03*
X244500Y119000D03*
D11*
X192000Y99050D03*
X192000Y86350D03*
X192000Y73650D03*
X192000Y60950D03*
X246000Y60950D03*
X246000Y73650D03*
X246000Y86350D03*
X246000Y99050D03*
D12*
X268000Y100500D03*
X268000Y83500D03*
D13*
X111250Y54000D03*
X168750Y54000D03*
X111250Y79400D03*
X168750Y79400D03*
X111250Y66700D03*
X168750Y66700D03*
X111250Y92100D03*
X168750Y92100D03*
X111250Y28600D03*
X168750Y28600D03*
X111250Y15900D03*
X168750Y15900D03*
X111250Y41300D03*
X168750Y41300D03*
D14*
X143000Y192500D03*
X143000Y183000D03*
X143000Y173500D03*
X169000Y173500D03*
X169000Y192500D03*
D15*
X143000Y150500D03*
X143000Y133500D03*
X169000Y150500D03*
X169000Y133500D03*
X169000Y213500D03*
X169000Y230500D03*
D16*
X116000Y214000D03*
X125500Y192000D03*
X106500Y192000D03*
D17*
X71000Y170000D03*
X71000Y190000D03*
D18*
X19000Y146000D03*
X19000Y214000D03*
D12*
X115500Y130000D03*
X98500Y130000D03*
D19*
X264000Y139500D03*
X264000Y120500D03*
M02*
