G04 EAGLE Gerber RS-274X export*
G75*
%MOMM*%
%FSLAX34Y34*%
%LPD*%
%INTop Copper*%
%IPPOS*%
%AMOC8*
5,1,8,0,0,1.08239X$1,22.5*%
G01*
%ADD10R,1.000000X1.100000*%
%ADD11R,1.100000X1.000000*%
%ADD12R,2.000000X1.100000*%
%ADD13C,0.152400*%
%ADD14C,0.654800*%
%ADD15C,0.200000*%
%ADD16C,0.300000*%

G36*
X557258Y2004D02*
X557258Y2004D01*
X557277Y2002D01*
X557379Y2024D01*
X557481Y2040D01*
X557498Y2050D01*
X557518Y2054D01*
X557607Y2107D01*
X557698Y2156D01*
X557712Y2170D01*
X557729Y2180D01*
X557796Y2259D01*
X557868Y2334D01*
X557876Y2352D01*
X557889Y2367D01*
X557928Y2463D01*
X557971Y2557D01*
X557973Y2577D01*
X557981Y2595D01*
X557999Y2762D01*
X557999Y117238D01*
X557996Y117258D01*
X557998Y117277D01*
X557976Y117379D01*
X557960Y117481D01*
X557950Y117498D01*
X557946Y117518D01*
X557893Y117607D01*
X557844Y117698D01*
X557830Y117712D01*
X557820Y117729D01*
X557741Y117796D01*
X557666Y117868D01*
X557648Y117876D01*
X557633Y117889D01*
X557537Y117928D01*
X557443Y117971D01*
X557423Y117973D01*
X557405Y117981D01*
X557238Y117999D01*
X2762Y117999D01*
X2742Y117996D01*
X2723Y117998D01*
X2621Y117976D01*
X2519Y117960D01*
X2502Y117950D01*
X2482Y117946D01*
X2393Y117893D01*
X2302Y117844D01*
X2288Y117830D01*
X2271Y117820D01*
X2204Y117741D01*
X2132Y117666D01*
X2124Y117648D01*
X2111Y117633D01*
X2072Y117537D01*
X2029Y117443D01*
X2027Y117423D01*
X2019Y117405D01*
X2001Y117238D01*
X2001Y2762D01*
X2004Y2742D01*
X2002Y2723D01*
X2024Y2621D01*
X2040Y2519D01*
X2050Y2502D01*
X2054Y2482D01*
X2107Y2393D01*
X2156Y2302D01*
X2170Y2288D01*
X2180Y2271D01*
X2259Y2204D01*
X2334Y2132D01*
X2352Y2124D01*
X2367Y2111D01*
X2463Y2072D01*
X2557Y2029D01*
X2577Y2027D01*
X2595Y2019D01*
X2762Y2001D01*
X557238Y2001D01*
X557258Y2004D01*
G37*
%LPC*%
G36*
X136121Y12499D02*
X136121Y12499D01*
X128954Y15468D01*
X123468Y20954D01*
X120499Y28121D01*
X120499Y35879D01*
X123468Y43046D01*
X128954Y48532D01*
X136121Y51501D01*
X143879Y51501D01*
X151046Y48532D01*
X156532Y43046D01*
X159501Y35879D01*
X159501Y28121D01*
X156532Y20954D01*
X151046Y15468D01*
X143879Y12499D01*
X136121Y12499D01*
G37*
%LPD*%
%LPC*%
G36*
X416171Y12749D02*
X416171Y12749D01*
X409095Y15680D01*
X403680Y21095D01*
X400749Y28171D01*
X400749Y35829D01*
X403680Y42905D01*
X409095Y48320D01*
X416171Y51251D01*
X423829Y51251D01*
X430905Y48320D01*
X436320Y42905D01*
X439251Y35829D01*
X439251Y28171D01*
X436320Y21095D01*
X430905Y15680D01*
X423829Y12749D01*
X416171Y12749D01*
G37*
%LPD*%
%LPC*%
G36*
X4474Y100229D02*
X4474Y100229D01*
X3729Y100974D01*
X3729Y113026D01*
X4474Y113771D01*
X25526Y113771D01*
X26271Y113026D01*
X26271Y109794D01*
X26274Y109774D01*
X26272Y109755D01*
X26294Y109653D01*
X26310Y109551D01*
X26320Y109534D01*
X26324Y109514D01*
X26377Y109425D01*
X26426Y109334D01*
X26440Y109320D01*
X26450Y109303D01*
X26529Y109236D01*
X26604Y109164D01*
X26622Y109156D01*
X26637Y109143D01*
X26733Y109104D01*
X26827Y109061D01*
X26847Y109059D01*
X26865Y109051D01*
X27032Y109033D01*
X33213Y109033D01*
X33303Y109047D01*
X33394Y109055D01*
X33423Y109067D01*
X33455Y109072D01*
X33536Y109115D01*
X33620Y109151D01*
X33652Y109177D01*
X33673Y109188D01*
X33695Y109211D01*
X33751Y109256D01*
X36802Y112307D01*
X41198Y112307D01*
X42430Y111075D01*
X42488Y111033D01*
X42540Y110984D01*
X42561Y110974D01*
X42566Y110970D01*
X42589Y110960D01*
X42629Y110932D01*
X42698Y110910D01*
X42763Y110880D01*
X42815Y110875D01*
X42865Y110859D01*
X42936Y110861D01*
X43007Y110853D01*
X43058Y110864D01*
X43110Y110866D01*
X43178Y110890D01*
X43248Y110905D01*
X43293Y110932D01*
X43341Y110950D01*
X43397Y110995D01*
X43459Y111032D01*
X43493Y111071D01*
X43533Y111104D01*
X43572Y111164D01*
X43590Y111185D01*
X43598Y111193D01*
X43598Y111195D01*
X43619Y111219D01*
X43638Y111267D01*
X43666Y111311D01*
X43683Y111377D01*
X43701Y111416D01*
X43702Y111425D01*
X43711Y111447D01*
X43719Y111518D01*
X43727Y111549D01*
X43725Y111572D01*
X43729Y111613D01*
X43729Y113026D01*
X44474Y113771D01*
X65526Y113771D01*
X66271Y113026D01*
X66271Y109794D01*
X66274Y109774D01*
X66272Y109755D01*
X66294Y109653D01*
X66310Y109551D01*
X66320Y109534D01*
X66324Y109514D01*
X66377Y109425D01*
X66426Y109334D01*
X66440Y109320D01*
X66450Y109303D01*
X66529Y109236D01*
X66604Y109164D01*
X66622Y109156D01*
X66637Y109143D01*
X66733Y109104D01*
X66827Y109061D01*
X66847Y109059D01*
X66865Y109051D01*
X67032Y109033D01*
X72968Y109033D01*
X72988Y109036D01*
X73007Y109034D01*
X73109Y109056D01*
X73211Y109072D01*
X73228Y109082D01*
X73248Y109086D01*
X73337Y109139D01*
X73428Y109188D01*
X73442Y109202D01*
X73459Y109212D01*
X73526Y109291D01*
X73598Y109366D01*
X73606Y109384D01*
X73619Y109399D01*
X73658Y109495D01*
X73701Y109589D01*
X73703Y109609D01*
X73711Y109627D01*
X73729Y109794D01*
X73729Y113026D01*
X74474Y113771D01*
X95526Y113771D01*
X96271Y113026D01*
X96271Y100974D01*
X95526Y100229D01*
X74474Y100229D01*
X73729Y100974D01*
X73729Y104206D01*
X73726Y104226D01*
X73728Y104245D01*
X73706Y104347D01*
X73690Y104449D01*
X73680Y104466D01*
X73676Y104486D01*
X73623Y104575D01*
X73574Y104666D01*
X73560Y104680D01*
X73550Y104697D01*
X73471Y104764D01*
X73396Y104836D01*
X73378Y104844D01*
X73363Y104857D01*
X73267Y104896D01*
X73173Y104939D01*
X73153Y104941D01*
X73135Y104949D01*
X72968Y104967D01*
X67032Y104967D01*
X67012Y104964D01*
X66993Y104966D01*
X66891Y104944D01*
X66789Y104928D01*
X66772Y104918D01*
X66752Y104914D01*
X66663Y104861D01*
X66572Y104812D01*
X66558Y104798D01*
X66541Y104788D01*
X66474Y104709D01*
X66402Y104634D01*
X66394Y104616D01*
X66381Y104601D01*
X66342Y104505D01*
X66299Y104411D01*
X66297Y104391D01*
X66289Y104373D01*
X66271Y104206D01*
X66271Y100974D01*
X65526Y100229D01*
X44474Y100229D01*
X43729Y100974D01*
X43729Y102387D01*
X43718Y102457D01*
X43716Y102529D01*
X43698Y102578D01*
X43690Y102629D01*
X43656Y102693D01*
X43631Y102760D01*
X43599Y102801D01*
X43574Y102847D01*
X43522Y102896D01*
X43478Y102952D01*
X43434Y102980D01*
X43396Y103016D01*
X43331Y103046D01*
X43271Y103085D01*
X43220Y103098D01*
X43173Y103120D01*
X43102Y103128D01*
X43032Y103145D01*
X42980Y103141D01*
X42929Y103147D01*
X42858Y103132D01*
X42787Y103126D01*
X42739Y103106D01*
X42688Y103095D01*
X42627Y103058D01*
X42561Y103030D01*
X42505Y102985D01*
X42477Y102968D01*
X42462Y102951D01*
X42430Y102925D01*
X41198Y101693D01*
X36802Y101693D01*
X33751Y104744D01*
X33677Y104797D01*
X33607Y104857D01*
X33577Y104869D01*
X33551Y104888D01*
X33464Y104915D01*
X33379Y104949D01*
X33338Y104953D01*
X33316Y104960D01*
X33284Y104959D01*
X33213Y104967D01*
X27032Y104967D01*
X27012Y104964D01*
X26993Y104966D01*
X26891Y104944D01*
X26789Y104928D01*
X26772Y104918D01*
X26752Y104914D01*
X26663Y104861D01*
X26572Y104812D01*
X26558Y104798D01*
X26541Y104788D01*
X26474Y104709D01*
X26402Y104634D01*
X26394Y104616D01*
X26381Y104601D01*
X26342Y104505D01*
X26299Y104411D01*
X26297Y104391D01*
X26289Y104373D01*
X26271Y104206D01*
X26271Y100974D01*
X25526Y100229D01*
X4474Y100229D01*
G37*
%LPD*%
%LPC*%
G36*
X394474Y100229D02*
X394474Y100229D01*
X393729Y100974D01*
X393729Y113026D01*
X394474Y113771D01*
X415526Y113771D01*
X416271Y113026D01*
X416271Y109794D01*
X416274Y109774D01*
X416272Y109755D01*
X416294Y109653D01*
X416310Y109551D01*
X416320Y109534D01*
X416324Y109514D01*
X416377Y109425D01*
X416426Y109334D01*
X416440Y109320D01*
X416450Y109303D01*
X416529Y109236D01*
X416604Y109164D01*
X416622Y109156D01*
X416637Y109143D01*
X416733Y109104D01*
X416827Y109061D01*
X416847Y109059D01*
X416865Y109051D01*
X417032Y109033D01*
X422968Y109033D01*
X422988Y109036D01*
X423007Y109034D01*
X423109Y109056D01*
X423211Y109072D01*
X423228Y109082D01*
X423248Y109086D01*
X423337Y109139D01*
X423428Y109188D01*
X423442Y109202D01*
X423459Y109212D01*
X423526Y109291D01*
X423598Y109366D01*
X423606Y109384D01*
X423619Y109399D01*
X423658Y109495D01*
X423701Y109589D01*
X423703Y109609D01*
X423711Y109627D01*
X423729Y109794D01*
X423729Y113026D01*
X424474Y113771D01*
X445526Y113771D01*
X446271Y113026D01*
X446271Y100974D01*
X445526Y100229D01*
X424474Y100229D01*
X423729Y100974D01*
X423729Y104206D01*
X423726Y104226D01*
X423728Y104245D01*
X423706Y104347D01*
X423690Y104449D01*
X423680Y104466D01*
X423676Y104486D01*
X423623Y104575D01*
X423574Y104666D01*
X423560Y104680D01*
X423550Y104697D01*
X423471Y104764D01*
X423396Y104836D01*
X423378Y104844D01*
X423363Y104857D01*
X423267Y104896D01*
X423173Y104939D01*
X423153Y104941D01*
X423135Y104949D01*
X422968Y104967D01*
X417032Y104967D01*
X417012Y104964D01*
X416993Y104966D01*
X416891Y104944D01*
X416789Y104928D01*
X416772Y104918D01*
X416752Y104914D01*
X416663Y104861D01*
X416572Y104812D01*
X416558Y104798D01*
X416541Y104788D01*
X416474Y104709D01*
X416402Y104634D01*
X416394Y104616D01*
X416381Y104601D01*
X416342Y104505D01*
X416299Y104411D01*
X416297Y104391D01*
X416289Y104373D01*
X416271Y104206D01*
X416271Y100974D01*
X415526Y100229D01*
X394474Y100229D01*
G37*
%LPD*%
%LPC*%
G36*
X324474Y100229D02*
X324474Y100229D01*
X323729Y100974D01*
X323729Y113026D01*
X324474Y113771D01*
X345526Y113771D01*
X346271Y113026D01*
X346271Y109794D01*
X346274Y109774D01*
X346272Y109755D01*
X346294Y109653D01*
X346310Y109551D01*
X346320Y109534D01*
X346324Y109514D01*
X346377Y109425D01*
X346426Y109334D01*
X346440Y109320D01*
X346450Y109303D01*
X346529Y109236D01*
X346604Y109164D01*
X346622Y109156D01*
X346637Y109143D01*
X346733Y109104D01*
X346827Y109061D01*
X346847Y109059D01*
X346865Y109051D01*
X347032Y109033D01*
X352968Y109033D01*
X352988Y109036D01*
X353007Y109034D01*
X353109Y109056D01*
X353211Y109072D01*
X353228Y109082D01*
X353248Y109086D01*
X353337Y109139D01*
X353428Y109188D01*
X353442Y109202D01*
X353459Y109212D01*
X353526Y109291D01*
X353598Y109366D01*
X353606Y109384D01*
X353619Y109399D01*
X353658Y109495D01*
X353701Y109589D01*
X353703Y109609D01*
X353711Y109627D01*
X353729Y109794D01*
X353729Y113026D01*
X354474Y113771D01*
X375526Y113771D01*
X376271Y113026D01*
X376271Y100974D01*
X375526Y100229D01*
X354474Y100229D01*
X353729Y100974D01*
X353729Y104206D01*
X353726Y104226D01*
X353728Y104245D01*
X353706Y104347D01*
X353690Y104449D01*
X353680Y104466D01*
X353676Y104486D01*
X353623Y104575D01*
X353574Y104666D01*
X353560Y104680D01*
X353550Y104697D01*
X353471Y104764D01*
X353396Y104836D01*
X353378Y104844D01*
X353363Y104857D01*
X353267Y104896D01*
X353173Y104939D01*
X353153Y104941D01*
X353135Y104949D01*
X352968Y104967D01*
X347032Y104967D01*
X347012Y104964D01*
X346993Y104966D01*
X346891Y104944D01*
X346789Y104928D01*
X346772Y104918D01*
X346752Y104914D01*
X346663Y104861D01*
X346572Y104812D01*
X346558Y104798D01*
X346541Y104788D01*
X346474Y104709D01*
X346402Y104634D01*
X346394Y104616D01*
X346381Y104601D01*
X346342Y104505D01*
X346299Y104411D01*
X346297Y104391D01*
X346289Y104373D01*
X346271Y104206D01*
X346271Y100974D01*
X345526Y100229D01*
X324474Y100229D01*
G37*
%LPD*%
%LPC*%
G36*
X464474Y100229D02*
X464474Y100229D01*
X463729Y100974D01*
X463729Y113026D01*
X464474Y113771D01*
X485526Y113771D01*
X486271Y113026D01*
X486271Y109794D01*
X486274Y109774D01*
X486272Y109755D01*
X486294Y109653D01*
X486310Y109551D01*
X486320Y109534D01*
X486324Y109514D01*
X486377Y109425D01*
X486426Y109334D01*
X486440Y109320D01*
X486450Y109303D01*
X486529Y109236D01*
X486604Y109164D01*
X486622Y109156D01*
X486637Y109143D01*
X486733Y109104D01*
X486827Y109061D01*
X486847Y109059D01*
X486865Y109051D01*
X487032Y109033D01*
X492968Y109033D01*
X492988Y109036D01*
X493007Y109034D01*
X493109Y109056D01*
X493211Y109072D01*
X493228Y109082D01*
X493248Y109086D01*
X493337Y109139D01*
X493428Y109188D01*
X493442Y109202D01*
X493459Y109212D01*
X493526Y109291D01*
X493598Y109366D01*
X493606Y109384D01*
X493619Y109399D01*
X493658Y109495D01*
X493701Y109589D01*
X493703Y109609D01*
X493711Y109627D01*
X493729Y109794D01*
X493729Y113026D01*
X494474Y113771D01*
X515526Y113771D01*
X516271Y113026D01*
X516271Y100974D01*
X515526Y100229D01*
X494474Y100229D01*
X493729Y100974D01*
X493729Y104206D01*
X493726Y104226D01*
X493728Y104245D01*
X493706Y104347D01*
X493690Y104449D01*
X493680Y104466D01*
X493676Y104486D01*
X493623Y104575D01*
X493574Y104666D01*
X493560Y104680D01*
X493550Y104697D01*
X493471Y104764D01*
X493396Y104836D01*
X493378Y104844D01*
X493363Y104857D01*
X493267Y104896D01*
X493173Y104939D01*
X493153Y104941D01*
X493135Y104949D01*
X492968Y104967D01*
X487032Y104967D01*
X487012Y104964D01*
X486993Y104966D01*
X486891Y104944D01*
X486789Y104928D01*
X486772Y104918D01*
X486752Y104914D01*
X486663Y104861D01*
X486572Y104812D01*
X486558Y104798D01*
X486541Y104788D01*
X486474Y104709D01*
X486402Y104634D01*
X486394Y104616D01*
X486381Y104601D01*
X486342Y104505D01*
X486299Y104411D01*
X486297Y104391D01*
X486289Y104373D01*
X486271Y104206D01*
X486271Y100974D01*
X485526Y100229D01*
X464474Y100229D01*
G37*
%LPD*%
%LPC*%
G36*
X184474Y100229D02*
X184474Y100229D01*
X183729Y100974D01*
X183729Y113026D01*
X184474Y113771D01*
X205526Y113771D01*
X206271Y113026D01*
X206271Y109794D01*
X206274Y109774D01*
X206272Y109755D01*
X206294Y109653D01*
X206310Y109551D01*
X206320Y109534D01*
X206324Y109514D01*
X206377Y109425D01*
X206426Y109334D01*
X206440Y109320D01*
X206450Y109303D01*
X206529Y109236D01*
X206604Y109164D01*
X206622Y109156D01*
X206637Y109143D01*
X206733Y109104D01*
X206827Y109061D01*
X206847Y109059D01*
X206865Y109051D01*
X207032Y109033D01*
X212968Y109033D01*
X212988Y109036D01*
X213007Y109034D01*
X213109Y109056D01*
X213211Y109072D01*
X213228Y109082D01*
X213248Y109086D01*
X213337Y109139D01*
X213428Y109188D01*
X213442Y109202D01*
X213459Y109212D01*
X213526Y109291D01*
X213598Y109366D01*
X213606Y109384D01*
X213619Y109399D01*
X213658Y109495D01*
X213701Y109589D01*
X213703Y109609D01*
X213711Y109627D01*
X213729Y109794D01*
X213729Y113026D01*
X214474Y113771D01*
X235526Y113771D01*
X236271Y113026D01*
X236271Y100974D01*
X235526Y100229D01*
X214474Y100229D01*
X213729Y100974D01*
X213729Y104206D01*
X213726Y104226D01*
X213728Y104245D01*
X213706Y104347D01*
X213690Y104449D01*
X213680Y104466D01*
X213676Y104486D01*
X213623Y104575D01*
X213574Y104666D01*
X213560Y104680D01*
X213550Y104697D01*
X213471Y104764D01*
X213396Y104836D01*
X213378Y104844D01*
X213363Y104857D01*
X213267Y104896D01*
X213173Y104939D01*
X213153Y104941D01*
X213135Y104949D01*
X212968Y104967D01*
X207032Y104967D01*
X207012Y104964D01*
X206993Y104966D01*
X206891Y104944D01*
X206789Y104928D01*
X206772Y104918D01*
X206752Y104914D01*
X206663Y104861D01*
X206572Y104812D01*
X206558Y104798D01*
X206541Y104788D01*
X206474Y104709D01*
X206402Y104634D01*
X206394Y104616D01*
X206381Y104601D01*
X206342Y104505D01*
X206299Y104411D01*
X206297Y104391D01*
X206289Y104373D01*
X206271Y104206D01*
X206271Y100974D01*
X205526Y100229D01*
X184474Y100229D01*
G37*
%LPD*%
%LPC*%
G36*
X114474Y100229D02*
X114474Y100229D01*
X113729Y100974D01*
X113729Y113026D01*
X114474Y113771D01*
X135526Y113771D01*
X136271Y113026D01*
X136271Y109794D01*
X136274Y109774D01*
X136272Y109755D01*
X136294Y109653D01*
X136310Y109551D01*
X136320Y109534D01*
X136324Y109514D01*
X136377Y109425D01*
X136426Y109334D01*
X136440Y109320D01*
X136450Y109303D01*
X136529Y109236D01*
X136604Y109164D01*
X136622Y109156D01*
X136637Y109143D01*
X136733Y109104D01*
X136827Y109061D01*
X136847Y109059D01*
X136865Y109051D01*
X137032Y109033D01*
X142968Y109033D01*
X142988Y109036D01*
X143007Y109034D01*
X143109Y109056D01*
X143211Y109072D01*
X143228Y109082D01*
X143248Y109086D01*
X143337Y109139D01*
X143428Y109188D01*
X143442Y109202D01*
X143459Y109212D01*
X143526Y109291D01*
X143598Y109366D01*
X143606Y109384D01*
X143619Y109399D01*
X143658Y109495D01*
X143701Y109589D01*
X143703Y109609D01*
X143711Y109627D01*
X143729Y109794D01*
X143729Y113026D01*
X144474Y113771D01*
X165526Y113771D01*
X166271Y113026D01*
X166271Y100974D01*
X165526Y100229D01*
X144474Y100229D01*
X143729Y100974D01*
X143729Y104206D01*
X143726Y104226D01*
X143728Y104245D01*
X143706Y104347D01*
X143690Y104449D01*
X143680Y104466D01*
X143676Y104486D01*
X143623Y104575D01*
X143574Y104666D01*
X143560Y104680D01*
X143550Y104697D01*
X143471Y104764D01*
X143396Y104836D01*
X143378Y104844D01*
X143363Y104857D01*
X143267Y104896D01*
X143173Y104939D01*
X143153Y104941D01*
X143135Y104949D01*
X142968Y104967D01*
X137032Y104967D01*
X137012Y104964D01*
X136993Y104966D01*
X136891Y104944D01*
X136789Y104928D01*
X136772Y104918D01*
X136752Y104914D01*
X136663Y104861D01*
X136572Y104812D01*
X136558Y104798D01*
X136541Y104788D01*
X136474Y104709D01*
X136402Y104634D01*
X136394Y104616D01*
X136381Y104601D01*
X136342Y104505D01*
X136299Y104411D01*
X136297Y104391D01*
X136289Y104373D01*
X136271Y104206D01*
X136271Y100974D01*
X135526Y100229D01*
X114474Y100229D01*
G37*
%LPD*%
%LPC*%
G36*
X254474Y100229D02*
X254474Y100229D01*
X253729Y100974D01*
X253729Y113026D01*
X254474Y113771D01*
X275526Y113771D01*
X276271Y113026D01*
X276271Y109794D01*
X276274Y109774D01*
X276272Y109755D01*
X276294Y109653D01*
X276310Y109551D01*
X276320Y109534D01*
X276324Y109514D01*
X276377Y109425D01*
X276426Y109334D01*
X276440Y109320D01*
X276450Y109303D01*
X276529Y109236D01*
X276604Y109164D01*
X276622Y109156D01*
X276637Y109143D01*
X276733Y109104D01*
X276827Y109061D01*
X276847Y109059D01*
X276865Y109051D01*
X277032Y109033D01*
X282968Y109033D01*
X282988Y109036D01*
X283007Y109034D01*
X283109Y109056D01*
X283211Y109072D01*
X283228Y109082D01*
X283248Y109086D01*
X283337Y109139D01*
X283428Y109188D01*
X283442Y109202D01*
X283459Y109212D01*
X283526Y109291D01*
X283598Y109366D01*
X283606Y109384D01*
X283619Y109399D01*
X283658Y109495D01*
X283701Y109589D01*
X283703Y109609D01*
X283711Y109627D01*
X283729Y109794D01*
X283729Y113026D01*
X284474Y113771D01*
X305526Y113771D01*
X306271Y113026D01*
X306271Y100974D01*
X305526Y100229D01*
X284474Y100229D01*
X283729Y100974D01*
X283729Y104206D01*
X283726Y104226D01*
X283728Y104245D01*
X283706Y104347D01*
X283690Y104449D01*
X283680Y104466D01*
X283676Y104486D01*
X283623Y104575D01*
X283574Y104666D01*
X283560Y104680D01*
X283550Y104697D01*
X283471Y104764D01*
X283396Y104836D01*
X283378Y104844D01*
X283363Y104857D01*
X283267Y104896D01*
X283173Y104939D01*
X283153Y104941D01*
X283135Y104949D01*
X282968Y104967D01*
X277032Y104967D01*
X277012Y104964D01*
X276993Y104966D01*
X276891Y104944D01*
X276789Y104928D01*
X276772Y104918D01*
X276752Y104914D01*
X276663Y104861D01*
X276572Y104812D01*
X276558Y104798D01*
X276541Y104788D01*
X276474Y104709D01*
X276402Y104634D01*
X276394Y104616D01*
X276381Y104601D01*
X276342Y104505D01*
X276299Y104411D01*
X276297Y104391D01*
X276289Y104373D01*
X276271Y104206D01*
X276271Y100974D01*
X275526Y100229D01*
X254474Y100229D01*
G37*
%LPD*%
%LPC*%
G36*
X254474Y83229D02*
X254474Y83229D01*
X253729Y83974D01*
X253729Y96026D01*
X254474Y96771D01*
X275526Y96771D01*
X276271Y96026D01*
X276271Y92794D01*
X276274Y92774D01*
X276272Y92755D01*
X276294Y92653D01*
X276310Y92551D01*
X276320Y92534D01*
X276324Y92514D01*
X276377Y92425D01*
X276426Y92334D01*
X276440Y92320D01*
X276450Y92303D01*
X276529Y92236D01*
X276604Y92164D01*
X276622Y92156D01*
X276637Y92143D01*
X276733Y92104D01*
X276827Y92061D01*
X276847Y92059D01*
X276865Y92051D01*
X277032Y92033D01*
X282968Y92033D01*
X282988Y92036D01*
X283007Y92034D01*
X283109Y92056D01*
X283211Y92072D01*
X283228Y92082D01*
X283248Y92086D01*
X283337Y92139D01*
X283428Y92188D01*
X283442Y92202D01*
X283459Y92212D01*
X283526Y92291D01*
X283598Y92366D01*
X283606Y92384D01*
X283619Y92399D01*
X283658Y92495D01*
X283701Y92589D01*
X283703Y92609D01*
X283711Y92627D01*
X283729Y92794D01*
X283729Y96026D01*
X284474Y96771D01*
X305526Y96771D01*
X306271Y96026D01*
X306271Y83974D01*
X305526Y83229D01*
X284474Y83229D01*
X283729Y83974D01*
X283729Y87206D01*
X283726Y87226D01*
X283728Y87245D01*
X283706Y87347D01*
X283690Y87449D01*
X283680Y87466D01*
X283676Y87486D01*
X283623Y87575D01*
X283574Y87666D01*
X283560Y87680D01*
X283550Y87697D01*
X283471Y87764D01*
X283396Y87836D01*
X283378Y87844D01*
X283363Y87857D01*
X283267Y87896D01*
X283173Y87939D01*
X283153Y87941D01*
X283135Y87949D01*
X282968Y87967D01*
X277032Y87967D01*
X277012Y87964D01*
X276993Y87966D01*
X276891Y87944D01*
X276789Y87928D01*
X276772Y87918D01*
X276752Y87914D01*
X276663Y87861D01*
X276572Y87812D01*
X276558Y87798D01*
X276541Y87788D01*
X276474Y87709D01*
X276402Y87634D01*
X276394Y87616D01*
X276381Y87601D01*
X276342Y87505D01*
X276299Y87411D01*
X276297Y87391D01*
X276289Y87373D01*
X276271Y87206D01*
X276271Y83974D01*
X275526Y83229D01*
X254474Y83229D01*
G37*
%LPD*%
%LPC*%
G36*
X44474Y83229D02*
X44474Y83229D01*
X43729Y83974D01*
X43729Y96026D01*
X44474Y96771D01*
X65526Y96771D01*
X66271Y96026D01*
X66271Y92794D01*
X66274Y92774D01*
X66272Y92755D01*
X66294Y92653D01*
X66310Y92551D01*
X66320Y92534D01*
X66324Y92514D01*
X66377Y92425D01*
X66426Y92334D01*
X66440Y92320D01*
X66450Y92303D01*
X66529Y92236D01*
X66604Y92164D01*
X66622Y92156D01*
X66637Y92143D01*
X66733Y92104D01*
X66827Y92061D01*
X66847Y92059D01*
X66865Y92051D01*
X67032Y92033D01*
X72968Y92033D01*
X72988Y92036D01*
X73007Y92034D01*
X73109Y92056D01*
X73211Y92072D01*
X73228Y92082D01*
X73248Y92086D01*
X73337Y92139D01*
X73428Y92188D01*
X73442Y92202D01*
X73459Y92212D01*
X73526Y92291D01*
X73598Y92366D01*
X73606Y92384D01*
X73619Y92399D01*
X73658Y92495D01*
X73701Y92589D01*
X73703Y92609D01*
X73711Y92627D01*
X73729Y92794D01*
X73729Y96026D01*
X74474Y96771D01*
X95526Y96771D01*
X96271Y96026D01*
X96271Y83974D01*
X95526Y83229D01*
X74474Y83229D01*
X73729Y83974D01*
X73729Y87206D01*
X73726Y87226D01*
X73728Y87245D01*
X73706Y87347D01*
X73690Y87449D01*
X73680Y87466D01*
X73676Y87486D01*
X73623Y87575D01*
X73574Y87666D01*
X73560Y87680D01*
X73550Y87697D01*
X73471Y87764D01*
X73396Y87836D01*
X73378Y87844D01*
X73363Y87857D01*
X73267Y87896D01*
X73173Y87939D01*
X73153Y87941D01*
X73135Y87949D01*
X72968Y87967D01*
X67032Y87967D01*
X67012Y87964D01*
X66993Y87966D01*
X66891Y87944D01*
X66789Y87928D01*
X66772Y87918D01*
X66752Y87914D01*
X66663Y87861D01*
X66572Y87812D01*
X66558Y87798D01*
X66541Y87788D01*
X66474Y87709D01*
X66402Y87634D01*
X66394Y87616D01*
X66381Y87601D01*
X66342Y87505D01*
X66299Y87411D01*
X66297Y87391D01*
X66289Y87373D01*
X66271Y87206D01*
X66271Y83974D01*
X65526Y83229D01*
X44474Y83229D01*
G37*
%LPD*%
%LPC*%
G36*
X114474Y83229D02*
X114474Y83229D01*
X113729Y83974D01*
X113729Y96026D01*
X114474Y96771D01*
X135526Y96771D01*
X136271Y96026D01*
X136271Y92794D01*
X136274Y92774D01*
X136272Y92755D01*
X136294Y92653D01*
X136310Y92551D01*
X136320Y92534D01*
X136324Y92514D01*
X136377Y92425D01*
X136426Y92334D01*
X136440Y92320D01*
X136450Y92303D01*
X136529Y92236D01*
X136604Y92164D01*
X136622Y92156D01*
X136637Y92143D01*
X136733Y92104D01*
X136827Y92061D01*
X136847Y92059D01*
X136865Y92051D01*
X137032Y92033D01*
X142968Y92033D01*
X142988Y92036D01*
X143007Y92034D01*
X143109Y92056D01*
X143211Y92072D01*
X143228Y92082D01*
X143248Y92086D01*
X143337Y92139D01*
X143428Y92188D01*
X143442Y92202D01*
X143459Y92212D01*
X143526Y92291D01*
X143598Y92366D01*
X143606Y92384D01*
X143619Y92399D01*
X143658Y92495D01*
X143701Y92589D01*
X143703Y92609D01*
X143711Y92627D01*
X143729Y92794D01*
X143729Y96026D01*
X144474Y96771D01*
X165526Y96771D01*
X166271Y96026D01*
X166271Y83974D01*
X165526Y83229D01*
X144474Y83229D01*
X143729Y83974D01*
X143729Y87206D01*
X143726Y87226D01*
X143728Y87245D01*
X143706Y87347D01*
X143690Y87449D01*
X143680Y87466D01*
X143676Y87486D01*
X143623Y87575D01*
X143574Y87666D01*
X143560Y87680D01*
X143550Y87697D01*
X143471Y87764D01*
X143396Y87836D01*
X143378Y87844D01*
X143363Y87857D01*
X143267Y87896D01*
X143173Y87939D01*
X143153Y87941D01*
X143135Y87949D01*
X142968Y87967D01*
X137032Y87967D01*
X137012Y87964D01*
X136993Y87966D01*
X136891Y87944D01*
X136789Y87928D01*
X136772Y87918D01*
X136752Y87914D01*
X136663Y87861D01*
X136572Y87812D01*
X136558Y87798D01*
X136541Y87788D01*
X136474Y87709D01*
X136402Y87634D01*
X136394Y87616D01*
X136381Y87601D01*
X136342Y87505D01*
X136299Y87411D01*
X136297Y87391D01*
X136289Y87373D01*
X136271Y87206D01*
X136271Y83974D01*
X135526Y83229D01*
X114474Y83229D01*
G37*
%LPD*%
%LPC*%
G36*
X184474Y83229D02*
X184474Y83229D01*
X183729Y83974D01*
X183729Y96026D01*
X184474Y96771D01*
X205526Y96771D01*
X206271Y96026D01*
X206271Y92794D01*
X206274Y92774D01*
X206272Y92755D01*
X206294Y92653D01*
X206310Y92551D01*
X206320Y92534D01*
X206324Y92514D01*
X206377Y92425D01*
X206426Y92334D01*
X206440Y92320D01*
X206450Y92303D01*
X206529Y92236D01*
X206604Y92164D01*
X206622Y92156D01*
X206637Y92143D01*
X206733Y92104D01*
X206827Y92061D01*
X206847Y92059D01*
X206865Y92051D01*
X207032Y92033D01*
X212968Y92033D01*
X212988Y92036D01*
X213007Y92034D01*
X213109Y92056D01*
X213211Y92072D01*
X213228Y92082D01*
X213248Y92086D01*
X213337Y92139D01*
X213428Y92188D01*
X213442Y92202D01*
X213459Y92212D01*
X213526Y92291D01*
X213598Y92366D01*
X213606Y92384D01*
X213619Y92399D01*
X213658Y92495D01*
X213701Y92589D01*
X213703Y92609D01*
X213711Y92627D01*
X213729Y92794D01*
X213729Y96026D01*
X214474Y96771D01*
X235526Y96771D01*
X236271Y96026D01*
X236271Y83974D01*
X235526Y83229D01*
X214474Y83229D01*
X213729Y83974D01*
X213729Y87206D01*
X213726Y87226D01*
X213728Y87245D01*
X213706Y87347D01*
X213690Y87449D01*
X213680Y87466D01*
X213676Y87486D01*
X213623Y87575D01*
X213574Y87666D01*
X213560Y87680D01*
X213550Y87697D01*
X213471Y87764D01*
X213396Y87836D01*
X213378Y87844D01*
X213363Y87857D01*
X213267Y87896D01*
X213173Y87939D01*
X213153Y87941D01*
X213135Y87949D01*
X212968Y87967D01*
X207032Y87967D01*
X207012Y87964D01*
X206993Y87966D01*
X206891Y87944D01*
X206789Y87928D01*
X206772Y87918D01*
X206752Y87914D01*
X206663Y87861D01*
X206572Y87812D01*
X206558Y87798D01*
X206541Y87788D01*
X206474Y87709D01*
X206402Y87634D01*
X206394Y87616D01*
X206381Y87601D01*
X206342Y87505D01*
X206299Y87411D01*
X206297Y87391D01*
X206289Y87373D01*
X206271Y87206D01*
X206271Y83974D01*
X205526Y83229D01*
X184474Y83229D01*
G37*
%LPD*%
%LPC*%
G36*
X394474Y83229D02*
X394474Y83229D01*
X393729Y83974D01*
X393729Y96026D01*
X394474Y96771D01*
X415526Y96771D01*
X416271Y96026D01*
X416271Y92794D01*
X416274Y92774D01*
X416272Y92755D01*
X416294Y92653D01*
X416310Y92551D01*
X416320Y92534D01*
X416324Y92514D01*
X416377Y92425D01*
X416426Y92334D01*
X416440Y92320D01*
X416450Y92303D01*
X416529Y92236D01*
X416604Y92164D01*
X416622Y92156D01*
X416637Y92143D01*
X416733Y92104D01*
X416827Y92061D01*
X416847Y92059D01*
X416865Y92051D01*
X417032Y92033D01*
X422968Y92033D01*
X422988Y92036D01*
X423007Y92034D01*
X423109Y92056D01*
X423211Y92072D01*
X423228Y92082D01*
X423248Y92086D01*
X423337Y92139D01*
X423428Y92188D01*
X423442Y92202D01*
X423459Y92212D01*
X423526Y92291D01*
X423598Y92366D01*
X423606Y92384D01*
X423619Y92399D01*
X423658Y92495D01*
X423701Y92589D01*
X423703Y92609D01*
X423711Y92627D01*
X423729Y92794D01*
X423729Y96026D01*
X424474Y96771D01*
X445526Y96771D01*
X446271Y96026D01*
X446271Y83974D01*
X445526Y83229D01*
X424474Y83229D01*
X423729Y83974D01*
X423729Y87206D01*
X423726Y87226D01*
X423728Y87245D01*
X423706Y87347D01*
X423690Y87449D01*
X423680Y87466D01*
X423676Y87486D01*
X423623Y87575D01*
X423574Y87666D01*
X423560Y87680D01*
X423550Y87697D01*
X423471Y87764D01*
X423396Y87836D01*
X423378Y87844D01*
X423363Y87857D01*
X423267Y87896D01*
X423173Y87939D01*
X423153Y87941D01*
X423135Y87949D01*
X422968Y87967D01*
X417032Y87967D01*
X417012Y87964D01*
X416993Y87966D01*
X416891Y87944D01*
X416789Y87928D01*
X416772Y87918D01*
X416752Y87914D01*
X416663Y87861D01*
X416572Y87812D01*
X416558Y87798D01*
X416541Y87788D01*
X416474Y87709D01*
X416402Y87634D01*
X416394Y87616D01*
X416381Y87601D01*
X416342Y87505D01*
X416299Y87411D01*
X416297Y87391D01*
X416289Y87373D01*
X416271Y87206D01*
X416271Y83974D01*
X415526Y83229D01*
X394474Y83229D01*
G37*
%LPD*%
%LPC*%
G36*
X464474Y83229D02*
X464474Y83229D01*
X463729Y83974D01*
X463729Y96026D01*
X464474Y96771D01*
X485526Y96771D01*
X486271Y96026D01*
X486271Y92794D01*
X486274Y92774D01*
X486272Y92755D01*
X486294Y92653D01*
X486310Y92551D01*
X486320Y92534D01*
X486324Y92514D01*
X486377Y92425D01*
X486426Y92334D01*
X486440Y92320D01*
X486450Y92303D01*
X486529Y92236D01*
X486604Y92164D01*
X486622Y92156D01*
X486637Y92143D01*
X486733Y92104D01*
X486827Y92061D01*
X486847Y92059D01*
X486865Y92051D01*
X487032Y92033D01*
X492968Y92033D01*
X492988Y92036D01*
X493007Y92034D01*
X493109Y92056D01*
X493211Y92072D01*
X493228Y92082D01*
X493248Y92086D01*
X493337Y92139D01*
X493428Y92188D01*
X493442Y92202D01*
X493459Y92212D01*
X493526Y92291D01*
X493598Y92366D01*
X493606Y92384D01*
X493619Y92399D01*
X493658Y92495D01*
X493701Y92589D01*
X493703Y92609D01*
X493711Y92627D01*
X493729Y92794D01*
X493729Y96026D01*
X494474Y96771D01*
X515526Y96771D01*
X516271Y96026D01*
X516271Y83974D01*
X515526Y83229D01*
X494474Y83229D01*
X493729Y83974D01*
X493729Y87206D01*
X493726Y87226D01*
X493728Y87245D01*
X493706Y87347D01*
X493690Y87449D01*
X493680Y87466D01*
X493676Y87486D01*
X493623Y87575D01*
X493574Y87666D01*
X493560Y87680D01*
X493550Y87697D01*
X493471Y87764D01*
X493396Y87836D01*
X493378Y87844D01*
X493363Y87857D01*
X493267Y87896D01*
X493173Y87939D01*
X493153Y87941D01*
X493135Y87949D01*
X492968Y87967D01*
X487032Y87967D01*
X487012Y87964D01*
X486993Y87966D01*
X486891Y87944D01*
X486789Y87928D01*
X486772Y87918D01*
X486752Y87914D01*
X486663Y87861D01*
X486572Y87812D01*
X486558Y87798D01*
X486541Y87788D01*
X486474Y87709D01*
X486402Y87634D01*
X486394Y87616D01*
X486381Y87601D01*
X486342Y87505D01*
X486299Y87411D01*
X486297Y87391D01*
X486289Y87373D01*
X486271Y87206D01*
X486271Y83974D01*
X485526Y83229D01*
X464474Y83229D01*
G37*
%LPD*%
%LPC*%
G36*
X324474Y83229D02*
X324474Y83229D01*
X323729Y83974D01*
X323729Y96026D01*
X324474Y96771D01*
X345526Y96771D01*
X346271Y96026D01*
X346271Y92794D01*
X346274Y92774D01*
X346272Y92755D01*
X346294Y92653D01*
X346310Y92551D01*
X346320Y92534D01*
X346324Y92514D01*
X346377Y92425D01*
X346426Y92334D01*
X346440Y92320D01*
X346450Y92303D01*
X346529Y92236D01*
X346604Y92164D01*
X346622Y92156D01*
X346637Y92143D01*
X346733Y92104D01*
X346827Y92061D01*
X346847Y92059D01*
X346865Y92051D01*
X347032Y92033D01*
X352968Y92033D01*
X352988Y92036D01*
X353007Y92034D01*
X353109Y92056D01*
X353211Y92072D01*
X353228Y92082D01*
X353248Y92086D01*
X353337Y92139D01*
X353428Y92188D01*
X353442Y92202D01*
X353459Y92212D01*
X353526Y92291D01*
X353598Y92366D01*
X353606Y92384D01*
X353619Y92399D01*
X353658Y92495D01*
X353701Y92589D01*
X353703Y92609D01*
X353711Y92627D01*
X353729Y92794D01*
X353729Y96026D01*
X354474Y96771D01*
X375526Y96771D01*
X376271Y96026D01*
X376271Y83974D01*
X375526Y83229D01*
X354474Y83229D01*
X353729Y83974D01*
X353729Y87206D01*
X353726Y87226D01*
X353728Y87245D01*
X353706Y87347D01*
X353690Y87449D01*
X353680Y87466D01*
X353676Y87486D01*
X353623Y87575D01*
X353574Y87666D01*
X353560Y87680D01*
X353550Y87697D01*
X353471Y87764D01*
X353396Y87836D01*
X353378Y87844D01*
X353363Y87857D01*
X353267Y87896D01*
X353173Y87939D01*
X353153Y87941D01*
X353135Y87949D01*
X352968Y87967D01*
X347032Y87967D01*
X347012Y87964D01*
X346993Y87966D01*
X346891Y87944D01*
X346789Y87928D01*
X346772Y87918D01*
X346752Y87914D01*
X346663Y87861D01*
X346572Y87812D01*
X346558Y87798D01*
X346541Y87788D01*
X346474Y87709D01*
X346402Y87634D01*
X346394Y87616D01*
X346381Y87601D01*
X346342Y87505D01*
X346299Y87411D01*
X346297Y87391D01*
X346289Y87373D01*
X346271Y87206D01*
X346271Y83974D01*
X345526Y83229D01*
X324474Y83229D01*
G37*
%LPD*%
%LPC*%
G36*
X157802Y55693D02*
X157802Y55693D01*
X154693Y58802D01*
X154693Y62073D01*
X154679Y62163D01*
X154671Y62254D01*
X154659Y62284D01*
X154654Y62316D01*
X154611Y62396D01*
X154575Y62480D01*
X154549Y62512D01*
X154538Y62533D01*
X154515Y62555D01*
X154470Y62611D01*
X152229Y64852D01*
X152229Y65468D01*
X152226Y65488D01*
X152228Y65507D01*
X152206Y65609D01*
X152190Y65711D01*
X152180Y65728D01*
X152176Y65748D01*
X152123Y65837D01*
X152074Y65928D01*
X152060Y65942D01*
X152050Y65959D01*
X151971Y66026D01*
X151896Y66098D01*
X151878Y66106D01*
X151863Y66119D01*
X151767Y66158D01*
X151673Y66201D01*
X151653Y66203D01*
X151635Y66211D01*
X151468Y66229D01*
X144474Y66229D01*
X143729Y66974D01*
X143729Y79026D01*
X144474Y79771D01*
X165526Y79771D01*
X166271Y79026D01*
X166271Y66974D01*
X165526Y66229D01*
X164113Y66229D01*
X164043Y66218D01*
X163971Y66216D01*
X163922Y66198D01*
X163871Y66190D01*
X163807Y66156D01*
X163740Y66131D01*
X163699Y66099D01*
X163653Y66074D01*
X163604Y66022D01*
X163548Y65978D01*
X163520Y65934D01*
X163484Y65896D01*
X163454Y65831D01*
X163415Y65771D01*
X163402Y65720D01*
X163380Y65673D01*
X163372Y65602D01*
X163355Y65532D01*
X163359Y65480D01*
X163353Y65429D01*
X163368Y65358D01*
X163374Y65287D01*
X163394Y65239D01*
X163405Y65188D01*
X163442Y65127D01*
X163470Y65061D01*
X163515Y65005D01*
X163532Y64977D01*
X163549Y64962D01*
X163575Y64930D01*
X165307Y63198D01*
X165307Y58802D01*
X162198Y55693D01*
X157802Y55693D01*
G37*
%LPD*%
%LPC*%
G36*
X437802Y55693D02*
X437802Y55693D01*
X434693Y58802D01*
X434693Y62073D01*
X434679Y62163D01*
X434671Y62254D01*
X434659Y62284D01*
X434654Y62316D01*
X434611Y62396D01*
X434575Y62480D01*
X434549Y62512D01*
X434538Y62533D01*
X434515Y62555D01*
X434470Y62611D01*
X434075Y63006D01*
X432229Y64852D01*
X432229Y65468D01*
X432226Y65488D01*
X432228Y65507D01*
X432206Y65609D01*
X432190Y65711D01*
X432180Y65728D01*
X432176Y65748D01*
X432123Y65837D01*
X432074Y65928D01*
X432060Y65942D01*
X432050Y65959D01*
X431971Y66026D01*
X431896Y66098D01*
X431878Y66106D01*
X431863Y66119D01*
X431767Y66158D01*
X431673Y66201D01*
X431653Y66203D01*
X431635Y66211D01*
X431468Y66229D01*
X424474Y66229D01*
X423729Y66974D01*
X423729Y79026D01*
X424474Y79771D01*
X445526Y79771D01*
X446271Y79026D01*
X446271Y66974D01*
X445526Y66229D01*
X444113Y66229D01*
X444043Y66218D01*
X443971Y66216D01*
X443922Y66198D01*
X443871Y66190D01*
X443807Y66156D01*
X443740Y66131D01*
X443699Y66099D01*
X443653Y66074D01*
X443604Y66022D01*
X443548Y65978D01*
X443520Y65934D01*
X443484Y65896D01*
X443454Y65831D01*
X443415Y65771D01*
X443402Y65720D01*
X443380Y65673D01*
X443372Y65602D01*
X443355Y65532D01*
X443359Y65480D01*
X443353Y65429D01*
X443368Y65358D01*
X443374Y65287D01*
X443394Y65239D01*
X443405Y65188D01*
X443442Y65127D01*
X443470Y65061D01*
X443515Y65005D01*
X443532Y64977D01*
X443549Y64962D01*
X443575Y64930D01*
X445307Y63198D01*
X445307Y58802D01*
X442198Y55693D01*
X437802Y55693D01*
G37*
%LPD*%
%LPC*%
G36*
X13802Y55693D02*
X13802Y55693D01*
X10693Y58802D01*
X10693Y63198D01*
X12425Y64930D01*
X12467Y64988D01*
X12516Y65040D01*
X12538Y65087D01*
X12568Y65129D01*
X12590Y65198D01*
X12620Y65263D01*
X12625Y65315D01*
X12641Y65365D01*
X12639Y65436D01*
X12647Y65507D01*
X12636Y65558D01*
X12634Y65610D01*
X12610Y65678D01*
X12595Y65748D01*
X12568Y65793D01*
X12550Y65841D01*
X12505Y65897D01*
X12468Y65959D01*
X12429Y65993D01*
X12396Y66033D01*
X12336Y66072D01*
X12281Y66119D01*
X12233Y66138D01*
X12189Y66166D01*
X12120Y66184D01*
X12053Y66211D01*
X11982Y66219D01*
X11951Y66227D01*
X11928Y66225D01*
X11887Y66229D01*
X4474Y66229D01*
X3729Y66974D01*
X3729Y79026D01*
X4474Y79771D01*
X25526Y79771D01*
X26271Y79026D01*
X26271Y66974D01*
X25526Y66229D01*
X20113Y66229D01*
X20043Y66218D01*
X19971Y66216D01*
X19922Y66198D01*
X19871Y66190D01*
X19807Y66156D01*
X19740Y66131D01*
X19699Y66099D01*
X19653Y66074D01*
X19604Y66022D01*
X19548Y65978D01*
X19520Y65934D01*
X19484Y65896D01*
X19454Y65831D01*
X19415Y65771D01*
X19402Y65720D01*
X19380Y65673D01*
X19372Y65602D01*
X19355Y65532D01*
X19359Y65480D01*
X19353Y65429D01*
X19368Y65358D01*
X19374Y65287D01*
X19394Y65239D01*
X19405Y65188D01*
X19442Y65127D01*
X19470Y65061D01*
X19515Y65005D01*
X19532Y64977D01*
X19549Y64962D01*
X19575Y64930D01*
X21307Y63198D01*
X21307Y58802D01*
X18198Y55693D01*
X13802Y55693D01*
G37*
%LPD*%
%LPC*%
G36*
X222802Y55693D02*
X222802Y55693D01*
X219693Y58802D01*
X219693Y63198D01*
X221425Y64930D01*
X221467Y64988D01*
X221516Y65040D01*
X221538Y65087D01*
X221568Y65129D01*
X221590Y65198D01*
X221620Y65263D01*
X221625Y65315D01*
X221641Y65365D01*
X221639Y65436D01*
X221647Y65507D01*
X221636Y65558D01*
X221634Y65610D01*
X221610Y65678D01*
X221595Y65748D01*
X221568Y65793D01*
X221550Y65841D01*
X221505Y65897D01*
X221468Y65959D01*
X221429Y65993D01*
X221396Y66033D01*
X221336Y66072D01*
X221281Y66119D01*
X221233Y66138D01*
X221189Y66166D01*
X221120Y66184D01*
X221053Y66211D01*
X220982Y66219D01*
X220951Y66227D01*
X220928Y66225D01*
X220887Y66229D01*
X214474Y66229D01*
X213729Y66974D01*
X213729Y79026D01*
X214474Y79771D01*
X235526Y79771D01*
X236271Y79026D01*
X236271Y66974D01*
X235526Y66229D01*
X229113Y66229D01*
X229043Y66218D01*
X228971Y66216D01*
X228922Y66198D01*
X228871Y66190D01*
X228807Y66156D01*
X228740Y66131D01*
X228699Y66099D01*
X228653Y66074D01*
X228604Y66022D01*
X228548Y65978D01*
X228520Y65934D01*
X228484Y65896D01*
X228454Y65831D01*
X228415Y65771D01*
X228402Y65720D01*
X228380Y65673D01*
X228372Y65602D01*
X228355Y65532D01*
X228359Y65480D01*
X228353Y65429D01*
X228368Y65358D01*
X228374Y65287D01*
X228394Y65239D01*
X228405Y65188D01*
X228442Y65127D01*
X228470Y65061D01*
X228515Y65005D01*
X228532Y64977D01*
X228549Y64962D01*
X228575Y64930D01*
X230307Y63198D01*
X230307Y58802D01*
X227198Y55693D01*
X222802Y55693D01*
G37*
%LPD*%
%LPC*%
G36*
X362802Y55693D02*
X362802Y55693D01*
X359693Y58802D01*
X359693Y63198D01*
X361425Y64930D01*
X361467Y64988D01*
X361516Y65040D01*
X361538Y65087D01*
X361568Y65129D01*
X361590Y65198D01*
X361620Y65263D01*
X361625Y65315D01*
X361641Y65365D01*
X361639Y65436D01*
X361647Y65507D01*
X361636Y65558D01*
X361634Y65610D01*
X361610Y65678D01*
X361595Y65748D01*
X361568Y65793D01*
X361550Y65841D01*
X361505Y65897D01*
X361468Y65959D01*
X361429Y65993D01*
X361396Y66033D01*
X361336Y66072D01*
X361281Y66119D01*
X361233Y66138D01*
X361189Y66166D01*
X361120Y66184D01*
X361053Y66211D01*
X360982Y66219D01*
X360951Y66227D01*
X360928Y66225D01*
X360887Y66229D01*
X354474Y66229D01*
X353729Y66974D01*
X353729Y79026D01*
X354474Y79771D01*
X375526Y79771D01*
X376271Y79026D01*
X376271Y66974D01*
X375526Y66229D01*
X369113Y66229D01*
X369043Y66218D01*
X368971Y66216D01*
X368922Y66198D01*
X368871Y66190D01*
X368807Y66156D01*
X368740Y66131D01*
X368699Y66099D01*
X368653Y66074D01*
X368604Y66022D01*
X368548Y65978D01*
X368520Y65934D01*
X368484Y65896D01*
X368454Y65831D01*
X368415Y65771D01*
X368402Y65720D01*
X368380Y65673D01*
X368372Y65602D01*
X368355Y65532D01*
X368359Y65480D01*
X368353Y65429D01*
X368368Y65358D01*
X368374Y65287D01*
X368394Y65239D01*
X368405Y65188D01*
X368442Y65127D01*
X368470Y65061D01*
X368515Y65005D01*
X368532Y64977D01*
X368549Y64962D01*
X368575Y64930D01*
X370307Y63198D01*
X370307Y58802D01*
X367198Y55693D01*
X362802Y55693D01*
G37*
%LPD*%
%LPC*%
G36*
X502802Y55693D02*
X502802Y55693D01*
X499693Y58802D01*
X499693Y63198D01*
X501425Y64930D01*
X501467Y64988D01*
X501516Y65040D01*
X501538Y65087D01*
X501568Y65129D01*
X501590Y65198D01*
X501620Y65263D01*
X501625Y65315D01*
X501641Y65365D01*
X501639Y65436D01*
X501647Y65507D01*
X501636Y65558D01*
X501634Y65610D01*
X501610Y65678D01*
X501595Y65748D01*
X501568Y65793D01*
X501550Y65841D01*
X501505Y65897D01*
X501468Y65959D01*
X501429Y65993D01*
X501396Y66033D01*
X501336Y66072D01*
X501281Y66119D01*
X501233Y66138D01*
X501189Y66166D01*
X501120Y66184D01*
X501053Y66211D01*
X500982Y66219D01*
X500951Y66227D01*
X500928Y66225D01*
X500887Y66229D01*
X494474Y66229D01*
X493729Y66974D01*
X493729Y79026D01*
X494474Y79771D01*
X515526Y79771D01*
X516271Y79026D01*
X516271Y66974D01*
X515526Y66229D01*
X509113Y66229D01*
X509043Y66218D01*
X508971Y66216D01*
X508922Y66198D01*
X508871Y66190D01*
X508807Y66156D01*
X508740Y66131D01*
X508699Y66099D01*
X508653Y66074D01*
X508604Y66022D01*
X508548Y65978D01*
X508520Y65934D01*
X508484Y65896D01*
X508454Y65831D01*
X508415Y65771D01*
X508402Y65720D01*
X508380Y65673D01*
X508372Y65602D01*
X508355Y65532D01*
X508359Y65480D01*
X508353Y65429D01*
X508368Y65358D01*
X508374Y65287D01*
X508394Y65239D01*
X508405Y65188D01*
X508442Y65127D01*
X508470Y65061D01*
X508515Y65005D01*
X508532Y64977D01*
X508549Y64962D01*
X508575Y64930D01*
X510307Y63198D01*
X510307Y58802D01*
X507198Y55693D01*
X502802Y55693D01*
G37*
%LPD*%
%LPC*%
G36*
X292802Y55693D02*
X292802Y55693D01*
X289693Y58802D01*
X289693Y63198D01*
X291425Y64930D01*
X291467Y64988D01*
X291516Y65040D01*
X291538Y65087D01*
X291568Y65129D01*
X291590Y65198D01*
X291620Y65263D01*
X291625Y65315D01*
X291641Y65365D01*
X291639Y65436D01*
X291647Y65507D01*
X291636Y65558D01*
X291634Y65610D01*
X291610Y65678D01*
X291595Y65748D01*
X291568Y65793D01*
X291550Y65841D01*
X291505Y65897D01*
X291468Y65959D01*
X291429Y65993D01*
X291396Y66033D01*
X291336Y66072D01*
X291281Y66119D01*
X291233Y66138D01*
X291189Y66166D01*
X291120Y66184D01*
X291053Y66211D01*
X290982Y66219D01*
X290951Y66227D01*
X290928Y66225D01*
X290887Y66229D01*
X284474Y66229D01*
X283729Y66974D01*
X283729Y79026D01*
X284474Y79771D01*
X305526Y79771D01*
X306271Y79026D01*
X306271Y66974D01*
X305526Y66229D01*
X299113Y66229D01*
X299043Y66218D01*
X298971Y66216D01*
X298922Y66198D01*
X298871Y66190D01*
X298807Y66156D01*
X298740Y66131D01*
X298699Y66099D01*
X298653Y66074D01*
X298604Y66022D01*
X298548Y65978D01*
X298520Y65934D01*
X298484Y65896D01*
X298454Y65831D01*
X298415Y65771D01*
X298402Y65720D01*
X298380Y65673D01*
X298372Y65602D01*
X298355Y65532D01*
X298359Y65480D01*
X298353Y65429D01*
X298368Y65358D01*
X298374Y65287D01*
X298394Y65239D01*
X298405Y65188D01*
X298442Y65127D01*
X298470Y65061D01*
X298515Y65005D01*
X298532Y64977D01*
X298549Y64962D01*
X298575Y64930D01*
X300307Y63198D01*
X300307Y58802D01*
X297198Y55693D01*
X292802Y55693D01*
G37*
%LPD*%
%LPC*%
G36*
X82802Y55693D02*
X82802Y55693D01*
X79693Y58802D01*
X79693Y63198D01*
X81425Y64930D01*
X81467Y64988D01*
X81516Y65040D01*
X81538Y65087D01*
X81568Y65129D01*
X81590Y65198D01*
X81620Y65263D01*
X81625Y65315D01*
X81641Y65365D01*
X81639Y65436D01*
X81647Y65507D01*
X81636Y65558D01*
X81634Y65610D01*
X81610Y65678D01*
X81595Y65748D01*
X81568Y65793D01*
X81550Y65841D01*
X81505Y65897D01*
X81468Y65959D01*
X81429Y65993D01*
X81396Y66033D01*
X81336Y66072D01*
X81281Y66119D01*
X81233Y66138D01*
X81189Y66166D01*
X81120Y66184D01*
X81053Y66211D01*
X80982Y66219D01*
X80951Y66227D01*
X80928Y66225D01*
X80887Y66229D01*
X74474Y66229D01*
X73729Y66974D01*
X73729Y79026D01*
X74474Y79771D01*
X95526Y79771D01*
X96271Y79026D01*
X96271Y66974D01*
X95526Y66229D01*
X89113Y66229D01*
X89043Y66218D01*
X88971Y66216D01*
X88922Y66198D01*
X88871Y66190D01*
X88807Y66156D01*
X88740Y66131D01*
X88699Y66099D01*
X88653Y66074D01*
X88604Y66022D01*
X88548Y65978D01*
X88520Y65934D01*
X88484Y65896D01*
X88454Y65831D01*
X88415Y65771D01*
X88402Y65720D01*
X88380Y65673D01*
X88372Y65602D01*
X88355Y65532D01*
X88359Y65480D01*
X88353Y65429D01*
X88368Y65358D01*
X88374Y65287D01*
X88394Y65239D01*
X88405Y65188D01*
X88442Y65127D01*
X88470Y65061D01*
X88515Y65005D01*
X88532Y64977D01*
X88549Y64962D01*
X88575Y64930D01*
X90307Y63198D01*
X90307Y58802D01*
X87198Y55693D01*
X82802Y55693D01*
G37*
%LPD*%
%LPC*%
G36*
X4474Y83229D02*
X4474Y83229D01*
X3729Y83974D01*
X3729Y96026D01*
X4474Y96771D01*
X25526Y96771D01*
X26271Y96026D01*
X26271Y94613D01*
X26282Y94543D01*
X26284Y94471D01*
X26302Y94422D01*
X26310Y94371D01*
X26344Y94307D01*
X26369Y94240D01*
X26401Y94199D01*
X26426Y94153D01*
X26478Y94104D01*
X26522Y94048D01*
X26566Y94020D01*
X26604Y93984D01*
X26669Y93954D01*
X26729Y93915D01*
X26780Y93902D01*
X26827Y93880D01*
X26898Y93872D01*
X26968Y93855D01*
X27020Y93859D01*
X27071Y93853D01*
X27142Y93868D01*
X27213Y93874D01*
X27261Y93894D01*
X27312Y93905D01*
X27373Y93942D01*
X27439Y93970D01*
X27495Y94015D01*
X27523Y94032D01*
X27538Y94049D01*
X27570Y94075D01*
X28802Y95307D01*
X33198Y95307D01*
X36307Y92198D01*
X36307Y87802D01*
X33198Y84693D01*
X28802Y84693D01*
X27570Y85925D01*
X27512Y85967D01*
X27460Y86016D01*
X27413Y86038D01*
X27371Y86068D01*
X27302Y86090D01*
X27237Y86120D01*
X27185Y86125D01*
X27135Y86141D01*
X27064Y86139D01*
X26993Y86147D01*
X26942Y86136D01*
X26890Y86134D01*
X26822Y86110D01*
X26752Y86095D01*
X26707Y86068D01*
X26659Y86050D01*
X26603Y86005D01*
X26541Y85968D01*
X26507Y85929D01*
X26467Y85896D01*
X26428Y85836D01*
X26381Y85781D01*
X26362Y85733D01*
X26334Y85689D01*
X26316Y85620D01*
X26289Y85553D01*
X26281Y85482D01*
X26273Y85451D01*
X26275Y85428D01*
X26271Y85387D01*
X26271Y83974D01*
X25526Y83229D01*
X4474Y83229D01*
G37*
%LPD*%
%LPC*%
G36*
X534474Y100229D02*
X534474Y100229D01*
X533729Y100974D01*
X533729Y113026D01*
X534474Y113771D01*
X555526Y113771D01*
X556271Y113026D01*
X556271Y100974D01*
X555526Y100229D01*
X534474Y100229D01*
G37*
%LPD*%
%LPC*%
G36*
X534474Y83229D02*
X534474Y83229D01*
X533729Y83974D01*
X533729Y96026D01*
X534474Y96771D01*
X555526Y96771D01*
X556271Y96026D01*
X556271Y83974D01*
X555526Y83229D01*
X534474Y83229D01*
G37*
%LPD*%
%LPC*%
G36*
X83802Y26693D02*
X83802Y26693D01*
X80693Y29802D01*
X80693Y34198D01*
X81925Y35430D01*
X81967Y35488D01*
X82016Y35540D01*
X82038Y35587D01*
X82068Y35629D01*
X82090Y35698D01*
X82120Y35763D01*
X82125Y35815D01*
X82141Y35865D01*
X82139Y35936D01*
X82147Y36007D01*
X82136Y36058D01*
X82134Y36110D01*
X82110Y36178D01*
X82095Y36248D01*
X82068Y36293D01*
X82050Y36341D01*
X82005Y36397D01*
X81968Y36459D01*
X81929Y36493D01*
X81896Y36533D01*
X81836Y36572D01*
X81781Y36619D01*
X81733Y36638D01*
X81689Y36666D01*
X81620Y36684D01*
X81553Y36711D01*
X81482Y36719D01*
X81451Y36727D01*
X81428Y36725D01*
X81387Y36729D01*
X80474Y36729D01*
X79729Y37474D01*
X79729Y48526D01*
X80474Y49271D01*
X92526Y49271D01*
X93271Y48526D01*
X93271Y37474D01*
X92526Y36729D01*
X90613Y36729D01*
X90543Y36718D01*
X90471Y36716D01*
X90422Y36698D01*
X90371Y36690D01*
X90307Y36656D01*
X90240Y36631D01*
X90199Y36599D01*
X90153Y36574D01*
X90104Y36522D01*
X90048Y36478D01*
X90020Y36434D01*
X89984Y36396D01*
X89954Y36331D01*
X89915Y36271D01*
X89902Y36220D01*
X89880Y36173D01*
X89872Y36102D01*
X89855Y36032D01*
X89859Y35980D01*
X89853Y35929D01*
X89868Y35858D01*
X89874Y35787D01*
X89894Y35739D01*
X89905Y35688D01*
X89942Y35627D01*
X89970Y35561D01*
X90015Y35505D01*
X90032Y35477D01*
X90049Y35462D01*
X90075Y35430D01*
X91307Y34198D01*
X91307Y29802D01*
X88198Y26693D01*
X83802Y26693D01*
G37*
%LPD*%
%LPC*%
G36*
X464474Y28729D02*
X464474Y28729D01*
X463729Y29474D01*
X463729Y31387D01*
X463718Y31457D01*
X463716Y31529D01*
X463698Y31578D01*
X463690Y31629D01*
X463656Y31693D01*
X463631Y31760D01*
X463599Y31801D01*
X463574Y31847D01*
X463522Y31896D01*
X463478Y31952D01*
X463434Y31980D01*
X463396Y32016D01*
X463331Y32046D01*
X463271Y32085D01*
X463220Y32098D01*
X463173Y32120D01*
X463102Y32128D01*
X463032Y32145D01*
X462980Y32141D01*
X462929Y32147D01*
X462858Y32132D01*
X462787Y32126D01*
X462739Y32106D01*
X462688Y32095D01*
X462627Y32058D01*
X462561Y32030D01*
X462505Y31985D01*
X462477Y31968D01*
X462462Y31951D01*
X462430Y31925D01*
X461198Y30693D01*
X456802Y30693D01*
X453693Y33802D01*
X453693Y38198D01*
X456802Y41307D01*
X461198Y41307D01*
X462430Y40075D01*
X462488Y40033D01*
X462540Y39984D01*
X462587Y39962D01*
X462629Y39932D01*
X462698Y39910D01*
X462763Y39880D01*
X462815Y39875D01*
X462865Y39859D01*
X462936Y39861D01*
X463007Y39853D01*
X463058Y39864D01*
X463110Y39866D01*
X463178Y39890D01*
X463248Y39905D01*
X463293Y39932D01*
X463341Y39950D01*
X463397Y39995D01*
X463459Y40032D01*
X463493Y40071D01*
X463533Y40104D01*
X463572Y40164D01*
X463619Y40219D01*
X463638Y40267D01*
X463666Y40311D01*
X463684Y40380D01*
X463711Y40447D01*
X463719Y40518D01*
X463727Y40549D01*
X463725Y40572D01*
X463729Y40613D01*
X463729Y41526D01*
X464474Y42271D01*
X475526Y42271D01*
X476271Y41526D01*
X476271Y29474D01*
X475526Y28729D01*
X464474Y28729D01*
G37*
%LPD*%
%LPC*%
G36*
X184474Y28729D02*
X184474Y28729D01*
X183729Y29474D01*
X183729Y30387D01*
X183718Y30457D01*
X183716Y30529D01*
X183698Y30578D01*
X183690Y30629D01*
X183656Y30693D01*
X183631Y30760D01*
X183599Y30801D01*
X183574Y30847D01*
X183522Y30896D01*
X183478Y30952D01*
X183434Y30980D01*
X183396Y31016D01*
X183331Y31046D01*
X183271Y31085D01*
X183220Y31098D01*
X183173Y31120D01*
X183102Y31128D01*
X183032Y31145D01*
X182980Y31141D01*
X182929Y31147D01*
X182858Y31132D01*
X182787Y31126D01*
X182739Y31106D01*
X182688Y31095D01*
X182627Y31058D01*
X182561Y31030D01*
X182505Y30985D01*
X182477Y30968D01*
X182462Y30951D01*
X182430Y30925D01*
X181198Y29693D01*
X176802Y29693D01*
X173693Y32802D01*
X173693Y37198D01*
X176802Y40307D01*
X181198Y40307D01*
X182430Y39075D01*
X182488Y39033D01*
X182540Y38984D01*
X182587Y38962D01*
X182629Y38932D01*
X182698Y38910D01*
X182763Y38880D01*
X182815Y38875D01*
X182865Y38859D01*
X182936Y38861D01*
X183007Y38853D01*
X183058Y38864D01*
X183110Y38866D01*
X183178Y38890D01*
X183248Y38905D01*
X183293Y38932D01*
X183341Y38950D01*
X183397Y38995D01*
X183459Y39032D01*
X183493Y39071D01*
X183533Y39104D01*
X183572Y39164D01*
X183619Y39219D01*
X183638Y39267D01*
X183666Y39311D01*
X183684Y39380D01*
X183711Y39447D01*
X183719Y39518D01*
X183727Y39549D01*
X183725Y39572D01*
X183729Y39613D01*
X183729Y41526D01*
X184474Y42271D01*
X195526Y42271D01*
X196271Y41526D01*
X196271Y29474D01*
X195526Y28729D01*
X184474Y28729D01*
G37*
%LPD*%
%LPC*%
G36*
X43474Y28729D02*
X43474Y28729D01*
X42729Y29474D01*
X42729Y30387D01*
X42718Y30457D01*
X42716Y30529D01*
X42698Y30578D01*
X42690Y30629D01*
X42656Y30693D01*
X42631Y30760D01*
X42599Y30801D01*
X42574Y30847D01*
X42522Y30896D01*
X42478Y30952D01*
X42434Y30980D01*
X42396Y31016D01*
X42331Y31046D01*
X42271Y31085D01*
X42220Y31098D01*
X42173Y31120D01*
X42102Y31128D01*
X42032Y31145D01*
X41980Y31141D01*
X41929Y31147D01*
X41858Y31132D01*
X41787Y31126D01*
X41739Y31106D01*
X41688Y31095D01*
X41627Y31058D01*
X41561Y31030D01*
X41505Y30985D01*
X41477Y30968D01*
X41462Y30951D01*
X41430Y30925D01*
X40198Y29693D01*
X35802Y29693D01*
X32693Y32802D01*
X32693Y37198D01*
X35802Y40307D01*
X40198Y40307D01*
X41430Y39075D01*
X41488Y39033D01*
X41540Y38984D01*
X41587Y38962D01*
X41629Y38932D01*
X41698Y38910D01*
X41763Y38880D01*
X41815Y38875D01*
X41865Y38859D01*
X41936Y38861D01*
X42007Y38853D01*
X42058Y38864D01*
X42110Y38866D01*
X42178Y38890D01*
X42248Y38905D01*
X42293Y38932D01*
X42341Y38950D01*
X42397Y38995D01*
X42459Y39032D01*
X42493Y39071D01*
X42533Y39104D01*
X42572Y39164D01*
X42619Y39219D01*
X42638Y39267D01*
X42666Y39311D01*
X42684Y39380D01*
X42711Y39447D01*
X42719Y39518D01*
X42727Y39549D01*
X42725Y39572D01*
X42729Y39613D01*
X42729Y41526D01*
X43474Y42271D01*
X54526Y42271D01*
X55271Y41526D01*
X55271Y29474D01*
X54526Y28729D01*
X43474Y28729D01*
G37*
%LPD*%
%LPC*%
G36*
X324474Y28729D02*
X324474Y28729D01*
X323729Y29474D01*
X323729Y31387D01*
X323718Y31457D01*
X323716Y31529D01*
X323698Y31578D01*
X323690Y31629D01*
X323656Y31693D01*
X323631Y31760D01*
X323599Y31801D01*
X323574Y31847D01*
X323522Y31896D01*
X323478Y31952D01*
X323434Y31980D01*
X323396Y32016D01*
X323331Y32046D01*
X323271Y32085D01*
X323220Y32098D01*
X323173Y32120D01*
X323102Y32128D01*
X323032Y32145D01*
X322980Y32141D01*
X322929Y32147D01*
X322858Y32132D01*
X322787Y32126D01*
X322739Y32106D01*
X322688Y32095D01*
X322627Y32058D01*
X322561Y32030D01*
X322505Y31985D01*
X322477Y31968D01*
X322462Y31951D01*
X322430Y31925D01*
X321198Y30693D01*
X316802Y30693D01*
X313693Y33802D01*
X313693Y38198D01*
X316802Y41307D01*
X321198Y41307D01*
X322430Y40075D01*
X322488Y40033D01*
X322540Y39984D01*
X322587Y39962D01*
X322629Y39932D01*
X322698Y39910D01*
X322763Y39880D01*
X322815Y39875D01*
X322865Y39859D01*
X322936Y39861D01*
X323007Y39853D01*
X323058Y39864D01*
X323110Y39866D01*
X323178Y39890D01*
X323248Y39905D01*
X323293Y39932D01*
X323341Y39950D01*
X323397Y39995D01*
X323459Y40032D01*
X323493Y40071D01*
X323533Y40104D01*
X323572Y40164D01*
X323619Y40219D01*
X323638Y40267D01*
X323666Y40311D01*
X323684Y40380D01*
X323711Y40447D01*
X323719Y40518D01*
X323727Y40549D01*
X323725Y40572D01*
X323729Y40613D01*
X323729Y41526D01*
X324474Y42271D01*
X335526Y42271D01*
X336271Y41526D01*
X336271Y29474D01*
X335526Y28729D01*
X324474Y28729D01*
G37*
%LPD*%
%LPC*%
G36*
X254474Y28729D02*
X254474Y28729D01*
X253729Y29474D01*
X253729Y31387D01*
X253718Y31457D01*
X253716Y31529D01*
X253698Y31578D01*
X253690Y31629D01*
X253656Y31693D01*
X253631Y31760D01*
X253599Y31801D01*
X253574Y31847D01*
X253522Y31896D01*
X253478Y31952D01*
X253434Y31980D01*
X253396Y32016D01*
X253331Y32046D01*
X253271Y32085D01*
X253220Y32098D01*
X253173Y32120D01*
X253102Y32128D01*
X253032Y32145D01*
X252980Y32141D01*
X252929Y32147D01*
X252858Y32132D01*
X252787Y32126D01*
X252739Y32106D01*
X252688Y32095D01*
X252627Y32058D01*
X252561Y32030D01*
X252505Y31985D01*
X252477Y31968D01*
X252462Y31951D01*
X252430Y31925D01*
X251198Y30693D01*
X246802Y30693D01*
X243693Y33802D01*
X243693Y38198D01*
X246802Y41307D01*
X251198Y41307D01*
X252430Y40075D01*
X252488Y40033D01*
X252540Y39984D01*
X252587Y39962D01*
X252629Y39932D01*
X252698Y39910D01*
X252763Y39880D01*
X252815Y39875D01*
X252865Y39859D01*
X252936Y39861D01*
X253007Y39853D01*
X253058Y39864D01*
X253110Y39866D01*
X253178Y39890D01*
X253248Y39905D01*
X253293Y39932D01*
X253341Y39950D01*
X253397Y39995D01*
X253459Y40032D01*
X253493Y40071D01*
X253533Y40104D01*
X253572Y40164D01*
X253619Y40219D01*
X253638Y40267D01*
X253666Y40311D01*
X253684Y40380D01*
X253711Y40447D01*
X253719Y40518D01*
X253727Y40549D01*
X253725Y40572D01*
X253729Y40613D01*
X253729Y41526D01*
X254474Y42271D01*
X265526Y42271D01*
X266271Y41526D01*
X266271Y29474D01*
X265526Y28729D01*
X254474Y28729D01*
G37*
%LPD*%
%LPC*%
G36*
X534474Y28729D02*
X534474Y28729D01*
X533729Y29474D01*
X533729Y30387D01*
X533718Y30457D01*
X533716Y30529D01*
X533698Y30578D01*
X533690Y30629D01*
X533656Y30693D01*
X533631Y30760D01*
X533599Y30801D01*
X533574Y30847D01*
X533522Y30896D01*
X533478Y30952D01*
X533434Y30980D01*
X533396Y31016D01*
X533331Y31046D01*
X533271Y31085D01*
X533220Y31098D01*
X533173Y31120D01*
X533102Y31128D01*
X533032Y31145D01*
X532980Y31141D01*
X532929Y31147D01*
X532858Y31132D01*
X532787Y31126D01*
X532739Y31106D01*
X532688Y31095D01*
X532627Y31058D01*
X532561Y31030D01*
X532505Y30985D01*
X532477Y30968D01*
X532462Y30951D01*
X532430Y30925D01*
X531198Y29693D01*
X526802Y29693D01*
X523693Y32802D01*
X523693Y37198D01*
X526802Y40307D01*
X531198Y40307D01*
X532430Y39075D01*
X532488Y39033D01*
X532540Y38984D01*
X532587Y38962D01*
X532629Y38932D01*
X532698Y38910D01*
X532763Y38880D01*
X532815Y38875D01*
X532865Y38859D01*
X532936Y38861D01*
X533007Y38853D01*
X533058Y38864D01*
X533110Y38866D01*
X533178Y38890D01*
X533248Y38905D01*
X533293Y38932D01*
X533341Y38950D01*
X533397Y38995D01*
X533459Y39032D01*
X533493Y39071D01*
X533533Y39104D01*
X533572Y39164D01*
X533619Y39219D01*
X533638Y39267D01*
X533666Y39311D01*
X533684Y39380D01*
X533711Y39447D01*
X533719Y39518D01*
X533727Y39549D01*
X533725Y39572D01*
X533729Y39613D01*
X533729Y41526D01*
X534474Y42271D01*
X545526Y42271D01*
X546271Y41526D01*
X546271Y29474D01*
X545526Y28729D01*
X534474Y28729D01*
G37*
%LPD*%
%LPC*%
G36*
X362802Y23693D02*
X362802Y23693D01*
X359693Y26802D01*
X359693Y31198D01*
X360925Y32430D01*
X360967Y32488D01*
X361016Y32540D01*
X361038Y32587D01*
X361068Y32629D01*
X361090Y32698D01*
X361120Y32763D01*
X361125Y32815D01*
X361141Y32865D01*
X361139Y32936D01*
X361147Y33007D01*
X361136Y33058D01*
X361134Y33110D01*
X361110Y33178D01*
X361095Y33248D01*
X361068Y33293D01*
X361050Y33341D01*
X361005Y33397D01*
X360968Y33459D01*
X360929Y33493D01*
X360896Y33533D01*
X360836Y33572D01*
X360781Y33619D01*
X360733Y33638D01*
X360689Y33666D01*
X360620Y33684D01*
X360553Y33711D01*
X360484Y33718D01*
X359729Y34474D01*
X359729Y45526D01*
X360474Y46271D01*
X372526Y46271D01*
X373271Y45526D01*
X373271Y34474D01*
X372526Y33729D01*
X369613Y33729D01*
X369543Y33718D01*
X369471Y33716D01*
X369422Y33698D01*
X369371Y33690D01*
X369307Y33656D01*
X369240Y33631D01*
X369199Y33599D01*
X369153Y33574D01*
X369104Y33522D01*
X369048Y33478D01*
X369020Y33434D01*
X368984Y33396D01*
X368954Y33331D01*
X368915Y33271D01*
X368902Y33220D01*
X368880Y33173D01*
X368872Y33102D01*
X368855Y33032D01*
X368859Y32980D01*
X368853Y32929D01*
X368868Y32858D01*
X368874Y32787D01*
X368894Y32739D01*
X368905Y32688D01*
X368942Y32627D01*
X368970Y32561D01*
X369015Y32505D01*
X369032Y32477D01*
X369049Y32462D01*
X369075Y32430D01*
X370307Y31198D01*
X370307Y26802D01*
X367198Y23693D01*
X362802Y23693D01*
G37*
%LPD*%
D10*
X540000Y52500D03*
X540000Y35500D03*
X470000Y52500D03*
X470000Y35500D03*
D11*
X383500Y40000D03*
X366500Y40000D03*
D10*
X330000Y52500D03*
X330000Y35500D03*
X260000Y52500D03*
X260000Y35500D03*
X190000Y52500D03*
X190000Y35500D03*
D11*
X103500Y43000D03*
X86500Y43000D03*
D10*
X49000Y52500D03*
X49000Y35500D03*
D12*
X545000Y73000D03*
X545000Y90000D03*
X545000Y107000D03*
X505000Y107000D03*
X505000Y90000D03*
X505000Y73000D03*
X475000Y73000D03*
X475000Y90000D03*
X475000Y107000D03*
X435000Y107000D03*
X435000Y90000D03*
X435000Y73000D03*
X405000Y73000D03*
X405000Y90000D03*
X405000Y107000D03*
X365000Y107000D03*
X365000Y90000D03*
X365000Y73000D03*
X335000Y73000D03*
X335000Y90000D03*
X335000Y107000D03*
X295000Y107000D03*
X295000Y90000D03*
X295000Y73000D03*
X265000Y73000D03*
X265000Y90000D03*
X265000Y107000D03*
X225000Y107000D03*
X225000Y90000D03*
X225000Y73000D03*
X195000Y73000D03*
X195000Y90000D03*
X195000Y107000D03*
X155000Y107000D03*
X155000Y90000D03*
X155000Y73000D03*
X125000Y73000D03*
X125000Y90000D03*
X125000Y107000D03*
X85000Y107000D03*
X85000Y90000D03*
X85000Y73000D03*
X55000Y73000D03*
X55000Y90000D03*
X55000Y107000D03*
X15000Y107000D03*
X15000Y90000D03*
X15000Y73000D03*
D13*
X475000Y90000D02*
X505000Y90000D01*
X505000Y107000D02*
X475000Y107000D01*
X435000Y90000D02*
X405000Y90000D01*
X405000Y107000D02*
X435000Y107000D01*
X365000Y90000D02*
X335000Y90000D01*
X335000Y107000D02*
X365000Y107000D01*
X295000Y90000D02*
X265000Y90000D01*
X265000Y107000D02*
X295000Y107000D01*
X225000Y90000D02*
X195000Y90000D01*
X195000Y107000D02*
X225000Y107000D01*
X155000Y90000D02*
X125000Y90000D01*
X125000Y107000D02*
X155000Y107000D01*
X85000Y90000D02*
X55000Y90000D01*
X55000Y107000D02*
X85000Y107000D01*
D14*
X70000Y45000D03*
D15*
X49000Y35500D02*
X38500Y35500D01*
X38000Y35000D01*
D14*
X38000Y35000D03*
D16*
X505000Y61000D02*
X505000Y73000D01*
D14*
X505000Y61000D03*
D16*
X440000Y61000D02*
X435000Y66000D01*
X435000Y73000D01*
D14*
X440000Y61000D03*
D16*
X365000Y61000D02*
X365000Y73000D01*
D14*
X365000Y61000D03*
D16*
X295000Y61000D02*
X295000Y73000D01*
D14*
X295000Y61000D03*
D16*
X225000Y61000D02*
X225000Y73000D01*
D14*
X225000Y61000D03*
D16*
X155000Y66000D02*
X155000Y73000D01*
X155000Y66000D02*
X160000Y61000D01*
D14*
X160000Y61000D03*
D16*
X85000Y61000D02*
X85000Y73000D01*
D14*
X85000Y61000D03*
D15*
X16000Y72000D02*
X15000Y73000D01*
D16*
X16000Y72000D02*
X16000Y61000D01*
D14*
X16000Y61000D03*
D15*
X529500Y35500D02*
X540000Y35500D01*
X529500Y35500D02*
X529000Y35000D01*
D14*
X529000Y35000D03*
D15*
X470000Y35500D02*
X469500Y36000D01*
X459000Y36000D01*
D14*
X459000Y36000D03*
D15*
X366500Y40000D02*
X365000Y38500D01*
X365000Y29000D01*
D14*
X365000Y29000D03*
D15*
X330000Y35500D02*
X319500Y35500D01*
X319000Y36000D01*
D14*
X319000Y36000D03*
D15*
X249500Y35500D02*
X249000Y36000D01*
X249500Y35500D02*
X260000Y35500D01*
D14*
X249000Y36000D03*
D15*
X190000Y35500D02*
X179500Y35500D01*
X179000Y35000D01*
D14*
X179000Y35000D03*
D15*
X86500Y33000D02*
X86500Y43000D01*
X86500Y33000D02*
X86000Y32000D01*
D14*
X86000Y32000D03*
X31000Y90000D03*
D13*
X15000Y90000D01*
D14*
X39000Y107000D03*
D13*
X15000Y107000D01*
M02*
