G04 EAGLE Gerber RS-274X export*
G75*
%MOMM*%
%FSLAX34Y34*%
%LPD*%
%IN*%
%IPPOS*%
%AMOC8*
5,1,8,0,0,1.08239X$1,22.5*%
G01*
%ADD10C,0.254000*%


D10*
X0Y0D02*
X560000Y0D01*
X560000Y120000D01*
X0Y120000D01*
X0Y0D01*
X157500Y31427D02*
X157425Y30284D01*
X157276Y29148D01*
X157052Y28024D01*
X156755Y26917D01*
X156387Y25832D01*
X155949Y24774D01*
X155442Y23746D01*
X154869Y22754D01*
X154232Y21801D01*
X153535Y20892D01*
X152779Y20031D01*
X151969Y19221D01*
X151108Y18465D01*
X150199Y17768D01*
X149246Y17131D01*
X148254Y16558D01*
X147226Y16051D01*
X146168Y15613D01*
X145083Y15245D01*
X143976Y14948D01*
X142852Y14725D01*
X141716Y14575D01*
X140573Y14500D01*
X139427Y14500D01*
X138284Y14575D01*
X137148Y14725D01*
X136024Y14948D01*
X134917Y15245D01*
X133832Y15613D01*
X132774Y16051D01*
X131746Y16558D01*
X130754Y17131D01*
X129801Y17768D01*
X128892Y18465D01*
X128031Y19221D01*
X127221Y20031D01*
X126465Y20892D01*
X125768Y21801D01*
X125131Y22754D01*
X124558Y23746D01*
X124051Y24774D01*
X123613Y25832D01*
X123245Y26917D01*
X122948Y28024D01*
X122725Y29148D01*
X122575Y30284D01*
X122500Y31427D01*
X122500Y32573D01*
X122575Y33716D01*
X122725Y34852D01*
X122948Y35976D01*
X123245Y37083D01*
X123613Y38168D01*
X124051Y39226D01*
X124558Y40254D01*
X125131Y41246D01*
X125768Y42199D01*
X126465Y43108D01*
X127221Y43969D01*
X128031Y44779D01*
X128892Y45535D01*
X129801Y46232D01*
X130754Y46869D01*
X131746Y47442D01*
X132774Y47949D01*
X133832Y48387D01*
X134917Y48755D01*
X136024Y49052D01*
X137148Y49276D01*
X138284Y49425D01*
X139427Y49500D01*
X140573Y49500D01*
X141716Y49425D01*
X142852Y49276D01*
X143976Y49052D01*
X145083Y48755D01*
X146168Y48387D01*
X147226Y47949D01*
X148254Y47442D01*
X149246Y46869D01*
X150199Y46232D01*
X151108Y45535D01*
X151969Y44779D01*
X152779Y43969D01*
X153535Y43108D01*
X154232Y42199D01*
X154869Y41246D01*
X155442Y40254D01*
X155949Y39226D01*
X156387Y38168D01*
X156755Y37083D01*
X157052Y35976D01*
X157276Y34852D01*
X157425Y33716D01*
X157500Y32573D01*
X157500Y31427D01*
X437250Y31435D02*
X437176Y30308D01*
X437029Y29189D01*
X436808Y28081D01*
X436516Y26990D01*
X436153Y25920D01*
X435721Y24877D01*
X435221Y23864D01*
X434657Y22886D01*
X434029Y21947D01*
X433342Y21051D01*
X432597Y20202D01*
X431798Y19403D01*
X430949Y18658D01*
X430053Y17971D01*
X429114Y17343D01*
X428136Y16779D01*
X427123Y16279D01*
X426080Y15847D01*
X425010Y15484D01*
X423919Y15192D01*
X422811Y14971D01*
X421692Y14824D01*
X420565Y14750D01*
X419435Y14750D01*
X418308Y14824D01*
X417189Y14971D01*
X416081Y15192D01*
X414990Y15484D01*
X413920Y15847D01*
X412877Y16279D01*
X411864Y16779D01*
X410886Y17343D01*
X409947Y17971D01*
X409051Y18658D01*
X408202Y19403D01*
X407403Y20202D01*
X406658Y21051D01*
X405971Y21947D01*
X405343Y22886D01*
X404779Y23864D01*
X404279Y24877D01*
X403847Y25920D01*
X403484Y26990D01*
X403192Y28081D01*
X402971Y29189D01*
X402824Y30308D01*
X402750Y31435D01*
X402750Y32565D01*
X402824Y33692D01*
X402971Y34811D01*
X403192Y35919D01*
X403484Y37010D01*
X403847Y38080D01*
X404279Y39123D01*
X404779Y40136D01*
X405343Y41114D01*
X405971Y42053D01*
X406658Y42949D01*
X407403Y43798D01*
X408202Y44597D01*
X409051Y45342D01*
X409947Y46029D01*
X410886Y46657D01*
X411864Y47221D01*
X412877Y47721D01*
X413920Y48153D01*
X414990Y48516D01*
X416081Y48808D01*
X417189Y49029D01*
X418308Y49176D01*
X419435Y49250D01*
X420565Y49250D01*
X421692Y49176D01*
X422811Y49029D01*
X423919Y48808D01*
X425010Y48516D01*
X426080Y48153D01*
X427123Y47721D01*
X428136Y47221D01*
X429114Y46657D01*
X430053Y46029D01*
X430949Y45342D01*
X431798Y44597D01*
X432597Y43798D01*
X433342Y42949D01*
X434029Y42053D01*
X434657Y41114D01*
X435221Y40136D01*
X435721Y39123D01*
X436153Y38080D01*
X436516Y37010D01*
X436808Y35919D01*
X437029Y34811D01*
X437176Y33692D01*
X437250Y32565D01*
X437250Y31435D01*
M02*
