G04 EAGLE Gerber RS-274X export*
G75*
%MOMM*%
%FSLAX34Y34*%
%LPD*%
%INSilkscreen Bottom*%
%IPPOS*%
%AMOC8*
5,1,8,0,0,1.08239X$1,22.5*%
G01*
%ADD10C,0.300000*%
%ADD11C,0.127000*%
%ADD12C,0.101600*%


D10*
X52850Y35500D02*
X52852Y35563D01*
X52858Y35625D01*
X52868Y35687D01*
X52881Y35749D01*
X52899Y35809D01*
X52920Y35868D01*
X52945Y35926D01*
X52974Y35982D01*
X53006Y36036D01*
X53041Y36088D01*
X53079Y36137D01*
X53121Y36185D01*
X53165Y36229D01*
X53213Y36271D01*
X53262Y36309D01*
X53314Y36344D01*
X53368Y36376D01*
X53424Y36405D01*
X53482Y36430D01*
X53541Y36451D01*
X53601Y36469D01*
X53663Y36482D01*
X53725Y36492D01*
X53787Y36498D01*
X53850Y36500D01*
X53913Y36498D01*
X53975Y36492D01*
X54037Y36482D01*
X54099Y36469D01*
X54159Y36451D01*
X54218Y36430D01*
X54276Y36405D01*
X54332Y36376D01*
X54386Y36344D01*
X54438Y36309D01*
X54487Y36271D01*
X54535Y36229D01*
X54579Y36185D01*
X54621Y36137D01*
X54659Y36088D01*
X54694Y36036D01*
X54726Y35982D01*
X54755Y35926D01*
X54780Y35868D01*
X54801Y35809D01*
X54819Y35749D01*
X54832Y35687D01*
X54842Y35625D01*
X54848Y35563D01*
X54850Y35500D01*
X54848Y35437D01*
X54842Y35375D01*
X54832Y35313D01*
X54819Y35251D01*
X54801Y35191D01*
X54780Y35132D01*
X54755Y35074D01*
X54726Y35018D01*
X54694Y34964D01*
X54659Y34912D01*
X54621Y34863D01*
X54579Y34815D01*
X54535Y34771D01*
X54487Y34729D01*
X54438Y34691D01*
X54386Y34656D01*
X54332Y34624D01*
X54276Y34595D01*
X54218Y34570D01*
X54159Y34549D01*
X54099Y34531D01*
X54037Y34518D01*
X53975Y34508D01*
X53913Y34502D01*
X53850Y34500D01*
X53787Y34502D01*
X53725Y34508D01*
X53663Y34518D01*
X53601Y34531D01*
X53541Y34549D01*
X53482Y34570D01*
X53424Y34595D01*
X53368Y34624D01*
X53314Y34656D01*
X53262Y34691D01*
X53213Y34729D01*
X53165Y34771D01*
X53121Y34815D01*
X53079Y34863D01*
X53041Y34912D01*
X53006Y34964D01*
X52974Y35018D01*
X52945Y35074D01*
X52920Y35132D01*
X52899Y35191D01*
X52881Y35251D01*
X52868Y35313D01*
X52858Y35375D01*
X52852Y35437D01*
X52850Y35500D01*
D11*
X46750Y38000D02*
X46750Y30000D01*
X24000Y30000D01*
X46750Y82000D02*
X46750Y90000D01*
X24000Y90000D01*
X4250Y78000D02*
X4250Y42000D01*
D12*
X25131Y63127D02*
X25131Y72226D01*
X25130Y63127D02*
X25132Y63027D01*
X25138Y62928D01*
X25147Y62829D01*
X25160Y62730D01*
X25178Y62632D01*
X25198Y62535D01*
X25223Y62438D01*
X25251Y62343D01*
X25283Y62248D01*
X25318Y62155D01*
X25357Y62063D01*
X25400Y61973D01*
X25446Y61885D01*
X25495Y61798D01*
X25548Y61714D01*
X25603Y61631D01*
X25662Y61551D01*
X25724Y61473D01*
X25789Y61397D01*
X25857Y61324D01*
X25927Y61254D01*
X26000Y61186D01*
X26076Y61121D01*
X26154Y61059D01*
X26234Y61000D01*
X26317Y60945D01*
X26401Y60892D01*
X26488Y60843D01*
X26576Y60797D01*
X26666Y60754D01*
X26758Y60715D01*
X26851Y60680D01*
X26946Y60648D01*
X27041Y60620D01*
X27138Y60595D01*
X27235Y60575D01*
X27333Y60557D01*
X27432Y60544D01*
X27531Y60535D01*
X27630Y60529D01*
X27730Y60527D01*
X29030Y60527D01*
X19852Y69627D02*
X16602Y72226D01*
X16602Y60527D01*
X19852Y60527D02*
X13352Y60527D01*
M02*
